<?xml version="1.0" standalone="no"?>
<!DOCTYPE svg PUBLIC "-//W3C//DTD SVG 1.1//EN" "http://www.w3.org/Graphics/SVG/1.1/DTD/svg11.dtd" >
<svg xmlns="http://www.w3.org/2000/svg">
<metadata></metadata>
<defs>
<font id="edwardian_script_itcregular" horiz-adv-x="979" >
<font-face units-per-em="2048" ascent="1638" descent="-410" />
<missing-glyph horiz-adv-x="362" />
<glyph horiz-adv-x="0" />
<glyph horiz-adv-x="682" />
<glyph unicode=" "  horiz-adv-x="362" />
<glyph unicode="&#x09;" horiz-adv-x="362" />
<glyph unicode="&#xa0;" horiz-adv-x="362" />
<glyph unicode="!" horiz-adv-x="588" d="M162 35q0 41 43 82t86 41q39 0 39 -41q0 -45 -41 -86t-84 -41t-43 45zM319 231q0 3 13 21q102 150 332 676q58 134 97 184.5t85 50.5q57 0 57 -59q0 -46 -229 -363q-251 -345 -332 -508q-6 -12 -14 -12q-9 0 -9 10z" />
<glyph unicode="&#x22;" d="M846 834q31 107 74 315q34 168 98 168q39 0 39 -49q0 -40 -45 -125q-115 -218 -148 -309h-18zM1016 834q14 49 74 315q34 168 96 168q39 0 39 -47q0 -30 -15 -63q-12 -29 -98 -195q-58 -114 -80 -178h-16z" />
<glyph unicode="#" d="M268 393q6 17 43 17h246l107 227h-205q-34 0 -27 22q6 17 43 17h207q52 112 139 299q19 40 37 35q20 -6 2 -43q-42 -89 -137 -291h268q54 112 142 299q18 40 36 35q20 -6 2 -43q-42 -89 -137 -291h236q45 0 39 -21q-6 -18 -58 -18h-235l-107 -227h197q45 0 39 -21 q-6 -18 -58 -18h-194q-88 -191 -143 -305q-22 -45 -39 -39t0 43q33 73 139 301h-268q-52 -114 -144 -305q-21 -46 -39 -39q-16 6 0 43q34 73 140 301h-244q-34 0 -27 22zM600 410h268l107 227h-270q-36 -76 -105 -227z" />
<glyph unicode="$" d="M279 168q0 89 101 167.5t216 78.5q13 0 14 -4q0 -6 -22 -11q-94 -18 -157.5 -87t-63.5 -152q0 -91 56.5 -142t156.5 -51q135 0 234 72t99 172q0 54 -28 87t-153.5 127.5t-125.5 192.5q0 117 122 210.5t276 93.5q22 0 43 -2l153 290q12 23 21 23q10 0 10 -12q0 -4 -8 -25 l-154 -281q164 -33 164 -147q0 -75 -69.5 -126.5t-172.5 -51.5q-133 0 -133 96q0 39 40.5 87t72.5 48q8 0 8 -6q-1 -4 -4 -4q-101 -45 -101 -123q0 -80 91 -80q66 0 133 64t67 127q0 108 -151 108q-114 0 -207.5 -73t-93.5 -160q0 -52 74 -118q57 -45 114 -89 q115 -91 115 -193q0 -130 -129.5 -224.5t-306.5 -94.5q-23 0 -45 2l-201 -375q-9 -16 -19 -16t-10 12q0 8 8 23l201 360q-235 39 -235 207z" />
<glyph unicode="%" horiz-adv-x="1096" d="M481 635q0 91 109 195t205 104q75 0 75 -82q0 -52 -43 -121q66 84 181 150q125 71 198 145q11 10 15 10q5 -2 6 -6q0 -7 -10 -18q-206 -220 -590 -914q-39 11 -76 11q-4 0 -57 -5q308 428 634 824l29 35q-67 -69 -209 -148q-89 -49 -147 -133q-110 -158 -215 -158 q-46 0 -75.5 31t-29.5 80zM543 588q0 -49 43 -49q71 0 164.5 118.5t93.5 208.5q0 54 -43 54q-68 0 -163 -123t-95 -209zM868 262q0 92 108.5 196.5t205.5 104.5q75 0 75 -82q0 -99 -99 -213t-185 -114q-46 0 -75.5 30t-29.5 78zM930 219q0 -51 43 -51q71 0 164.5 118.5 t93.5 209.5q0 53 -43 53q-67 0 -162.5 -122.5t-95.5 -207.5z" />
<glyph unicode="&#x26;" horiz-adv-x="1821" d="M406 606q0 234 209 394.5t513 160.5q170 0 342 -53q76 88 155 147.5t120 59.5q35 0 35 -33q0 -59 -201 -215q212 -95 337.5 -260.5t125.5 -349.5q0 -176 -113 -299t-274 -123q-64 0 -152 33q-157 -103 -346 -103q-157 0 -282.5 71.5t-182.5 192.5q-134 45 -210 145 t-76 232zM465 561q0 -216 215 -305q-23 62 -23 123q0 240 304 412q80 45 409 170q33 56 88 133q-142 45 -282 45q-281 0 -496 -175t-215 -403zM748 301q0 -29 8 -68q61 -6 82 -6q66 0 145 21q-31 58 -31 114q0 119 90 223t232 150q23 77 78 191q-36 -18 -107 -54 q-497 -251 -497 -571zM762 213q40 -101 143.5 -163t231.5 -62q153 0 311 106q-52 32 -74 58q-78 -35 -149 -35q-143 0 -230 114q-86 -24 -155 -24q-31 0 -78 6zM1001 354q0 -45 19 -94q123 40 223 121q-12 61 -12 108q0 99 37 224q-119 -53 -193 -152t-74 -207zM1030 242 q59 -107 209 -107q58 0 121 29q-85 94 -113 198q-103 -78 -217 -120zM1282 477q0 -35 2 -61q152 139 234 311q-55 14 -105 14q-48 0 -102 -14q-29 -106 -29 -250zM1286 393q13 -128 94 -219q135 83 138 195q0 28 20 28q23 0 23 -24q0 -43 -51.5 -108.5t-114.5 -102.5 q14 -15 59 -49l10 -7q105 79 167.5 179t62.5 192q0 168 -154 242q-96 -189 -254 -326zM1315 748q56 10 98 10q59 0 111 -17q38 77 49 146q4 28 18 28q13 0 13 -16q0 -45 -56 -166q181 -78 181 -282q0 -218 -207 -371q53 -21 108 -21q149 0 256 129.5t107 309.5 q0 176 -112 321t-318 236q-70 -51 -174 -109q-45 -88 -74 -198zM1403 977q53 26 139 86q-33 12 -63 22q-40 -48 -76 -108zM1491 1102l8 -4l21 -6l26 -13l13 -4q78 54 140 117.5t62 89.5q0 16 -16 16q-32 0 -108.5 -59t-145.5 -137z" />
<glyph unicode="'" horiz-adv-x="657" d="M770 834q31 107 74 315q34 168 98 168q39 0 39 -49q0 -40 -45 -125q-115 -218 -148 -309h-18z" />
<glyph unicode="(" horiz-adv-x="899" d="M563 313q0 278 185.5 557t465.5 424q104 54 275 105t246 51q14 0 14 -8q0 -9 -37 -15q-408 -66 -737.5 -453t-329.5 -800q0 -195 123 -315q6 -6 6 -11q-1 -6 -6 -6q-12 0 -63 60q-142 162 -142 411z" />
<glyph unicode=")" horiz-adv-x="899" d="M-199 -166q0 8 25 12q393 73 715.5 465.5t322.5 798.5q0 204 -121 315q-8 6 -8 13q0 6 8 6t39 -31q164 -161 164 -395q0 -215 -50 -370.5t-167 -307.5q-135 -174 -300.5 -282.5t-408.5 -180.5q-172 -51 -208 -51q-11 0 -11 8z" />
<glyph unicode="*" horiz-adv-x="569" d="M528 991q11 45 62 49q23 2 84 -12q41 -9 82 -6q-18 26 -41 53q-30 28 -64 76q-17 35 4 66q18 24 43 6q18 -17 39 -109q9 -38 29 -88q12 27 37 92q26 83 43 111q25 41 61 41q34 0 25 -41q-7 -31 -86 -115q-57 -60 -70 -90q19 2 125 35q31 10 64 16q19 4 31 -4t10 -20 q-9 -46 -70 -54q-13 -1 -78 15q-30 6 -84 2q14 -28 45 -62q28 -25 64 -71q15 -37 -4 -66q-19 -28 -43 0q-13 14 -37 105q-14 49 -33 88q-23 -43 -39 -84q-11 -44 -37 -111q-26 -41 -67 -41q-32 0 -19 41q5 15 90 115q45 53 64 86q-48 -5 -90 -21q-38 -14 -99 -30 q-21 -2 -32.5 6t-8.5 22z" />
<glyph unicode="+" horiz-adv-x="1071" d="M365 528q3 19 61 19h399l166 356q24 51 39 45q20 -7 0 -49q-55 -118 -166 -352h402q38 0 34 -19q-3 -18 -61 -18h-391l-168 -360q-20 -43 -33 -43q-3 0 -6 2q-18 7 2 49l166 352h-414q-34 0 -30 18z" />
<glyph unicode="," horiz-adv-x="457" d="M90 -111q0 6 8 9q42 15 75.5 42.5t33.5 47.5q0 6 -10 6q-45 0 -45 43q0 39 40.5 83t75.5 44q41 0 41 -43q0 -68 -73 -148q-29 -30 -75 -60t-65 -30q-6 0 -6 6z" />
<glyph unicode="-" horiz-adv-x="733" d="M274 213q0 12 77.5 39t113.5 27q21 0 86 -15q55 -12 80 -12q47 0 88 20q6 4 10 4t4 -4q0 -12 -82 -37.5t-125 -25.5q-40 0 -84 10q-52 12 -77 12q-42 0 -80 -20q-2 -2 -6 -2q-4 1 -5 4z" />
<glyph unicode="." horiz-adv-x="457" d="M180 35q0 41 43 82t86 41q39 0 39 -41q0 -45 -41 -86t-84 -41t-43 45z" />
<glyph unicode="/" horiz-adv-x="1083" d="M348 -207l1075 1694h31l-1075 -1694h-31z" />
<glyph unicode="0" d="M274 293q0 269 330 547q285 239 455 239q106 0 169.5 -79t63.5 -209q0 -229 -229 -488q-279 -315 -516 -315q-120 0 -196.5 85.5t-76.5 219.5zM367 190q0 -188 178 -188q220 0 442 307q105 145 168.5 307t63.5 285q0 164 -158 164q-129 0 -298 -152q-161 -144 -276 -347 q-120 -213 -120 -376z" />
<glyph unicode="1" d="M461 344q0 7 12 12q254 115 737 652l13 14q19 20 22 20q4 0 4 -4q0 -9 -227 -360q-182 -281 -251.5 -414.5t-104.5 -269.5q-36 8 -62 8q-29 0 -108 -12q68 199 415 618q213 257 283 367q-260 -308 -522 -508q-169 -129 -203 -129q-8 0 -8 6z" />
<glyph unicode="2" d="M166 -35q0 47 80 129q69 71 140 116q76 46 276 140q251 118 393.5 271.5t142.5 304.5q0 63 -46.5 100t-125.5 37q-176 0 -381 -180.5t-205 -335.5q0 -113 135 -113q108 0 240.5 105.5t181.5 228.5q3 10 9 10t6 -6q0 -43 -86 -145q-75 -89 -173 -146t-175 -57t-123.5 46 t-46.5 122q0 187 247 350q202 133 375 133q117 0 190.5 -62.5t73.5 -162.5q0 -138 -114 -246q-82 -77 -169 -123.5t-343 -148.5q-320 -128 -441 -275q89 70 195 70q83 0 221 -43q118 -37 180 -37q85 0 157.5 69t98.5 175q3 12 11 12q3 -1 4 -4q0 -57 -68 -152 q-125 -174 -311 -174q-69 0 -205 41q-163 49 -207 49q-104 0 -115 -83q-2 -23 -14 -23q-8 0 -8 8z" />
<glyph unicode="3" d="M205 176q0 89 87.5 152t211.5 63q94 0 94 -12q0 -6 -6 -6h-8q-37 6 -62 6q-109 0 -184.5 -62.5t-75.5 -152.5q0 -74 59.5 -121t153.5 -47q183 0 336.5 130t153.5 286q0 129 -158 170q-86 -13 -141 -13q-52 0 -52 13q0 20 74 20q57 0 119 -10q152 51 242 147t90 209 q0 127 -162 127q-140 0 -280 -96.5t-140 -194.5q0 -90 115 -90q69 0 156 55.5t137 131.5q5 10 12 10q4 -1 4 -4q0 -11 -38 -53t-71 -68q-106 -84 -204 -84q-59 0 -96 34.5t-37 88.5q0 101 142 191.5t302 90.5q117 0 186.5 -51.5t69.5 -138.5q0 -237 -412 -309 q242 -55 242 -246q0 -144 -165 -253t-382 -109q-137 0 -225 55t-88 141z" />
<glyph unicode="4" d="M98 250q0 34 193 74q138 81 230 161q87 74 294 287q415 426 678 426q37 0 73 -10t36 -21q0 -8 -9 -8q-3 0 -10 2q-46 17 -90 17q-260 0 -668 -422q-200 -207 -294.5 -286.5t-219.5 -145.5q118 30 310 30q71 0 118 -4q55 84 238 336q157 217 197 299q5 12 12 12q4 -1 4 -4 q0 -2 -2 -6l-10 -20q-12 -24 -144 -260q-127 -230 -190 -363q61 -4 114 -4q105 0 170.5 46t65.5 118q0 26 -14 57q-2 4 -2 10q0 7 6 7q22 0 22 -74q0 -201 -383 -201q-87 -191 -106 -307q-37 12 -74 12q-46 0 -100 -12q53 144 166 307q-22 1 -107 8q-118 13 -174 13 q-55 0 -123 -9q-119 -75 -190 -75q-17 0 -17 10z" />
<glyph unicode="5" d="M213 184q0 103 102 172.5t252 69.5q86 0 86 -12q-1 -4 -6 -4q-12 0 -35.5 2t-36.5 2q-133 0 -219 -69.5t-86 -176.5q0 -80 56 -126t153 -46q183 0 356 153t173 314q0 95 -64 152t-172 57q-71 0 -158 -33q-105 -135 -145 -135q-12 0 -12 10q0 40 147 125q176 236 176 405 q0 19 -2 27q-2 4 -2 10q0 13 12 13q13 0 13 -33q0 -30 -13 -82q57 98 150 98q36 0 192 -53q55 -18 84 -18q31 0 54.5 22.5t23.5 52.5q0 8 -4 19t-4 14q0 12 10 12q13 0 13 -26q0 -63 -57.5 -111.5t-131.5 -48.5q-56 0 -119 23q-97 34 -141 34q-58 0 -84 -69 q-57 -153 -147 -277q83 39 168 39q135 0 225 -76.5t90 -191.5q0 -169 -188.5 -304.5t-425.5 -135.5q-125 0 -204 56.5t-79 145.5z" />
<glyph unicode="6" d="M326 246q0 181 149 379t418 376q108 72 232 125.5t182 53.5q18 0 18 -11q0 -10 -20 -10h-19q-178 0 -440 -254t-391 -551q100 162 233.5 261.5t251.5 99.5q100 0 162.5 -61.5t62.5 -159.5q0 -177 -194.5 -345.5t-399.5 -168.5q-112 0 -178.5 72t-66.5 194zM412 164 q0 -78 39 -125t104 -47q155 0 339.5 202.5t184.5 372.5q0 135 -149 135q-159 0 -338.5 -186.5t-179.5 -351.5z" />
<glyph unicode="7" d="M389 -4q35 194 179.5 369t469.5 421q175 132 230 248q-72 -106 -217 -106q-75 0 -197 45t-158 45q-30 0 -59 -17l-6 -12q-78 -155 -113 -155q-12 0 -12 12q0 50 117 155q22 46 22 78q0 13 -6 33v4q0 12 12 12q13 0 13 -20q0 -37 -23 -92q80 65 162 65q48 0 201 -51 q85 -29 141 -29q139 0 139 99q0 8 -2 18v6q0 17 14 17q15 0 15 -17q0 -46 -49 -127q-40 -65 -79 -108q-45 -52 -206 -209q-402 -393 -418 -684q-46 10 -92 10q-42 0 -78 -10z" />
<glyph unicode="8" d="M256 207q0 121 118.5 210.5t405.5 186.5q-100 98 -100 184q0 117 129.5 213.5t286.5 96.5q98 0 164.5 -48.5t66.5 -119.5q0 -176 -424 -301q94 -89 126 -143t32 -121q0 -149 -152 -267t-344 -118q-138 0 -223.5 62.5t-85.5 164.5zM334 172q0 -180 229 -180 q161 0 278 91.5t117 217.5q0 84 -54 162q-16 22 -118 133q-452 -165 -452 -424zM776 842q0 -55 41 -113q16 -23 80 -92q166 57 264.5 145t98.5 179q0 53 -47 88.5t-117 35.5q-126 0 -223 -73.5t-97 -169.5z" />
<glyph unicode="9" d="M223 -80q0 14 25 14h14q181 0 450.5 241.5t399.5 520.5q-98 -146 -241 -242t-263 -96q-96 0 -153.5 58.5t-57.5 156.5q0 178 205 338q99 78 216 127t200 49q104 0 169.5 -74t65.5 -194q0 -170 -153 -367t-416 -364q-116 -74 -246.5 -126t-197.5 -52q-17 0 -17 10z M481 502q0 -129 137 -129q90 0 215 74t216 182q118 140 118 276q0 170 -147 170q-154 0 -346.5 -205t-192.5 -368z" />
<glyph unicode=":" horiz-adv-x="457" d="M180 35q0 41 43 82t86 41q39 0 39 -41q0 -45 -41 -86t-84 -41t-43 45zM360 328q0 41 42.5 82t86.5 41q39 0 39 -41q0 -45 -40.5 -86t-84.5 -41q-43 0 -43 45z" />
<glyph unicode=";" horiz-adv-x="457" d="M92 -111q0 6 8 9q42 15 75.5 42.5t33.5 47.5q0 6 -10 6q-45 0 -45 43q0 39 40.5 83t75.5 44q41 0 41 -43q0 -68 -73 -148q-28 -30 -74.5 -60t-65.5 -30q-6 0 -6 6zM340 334q0 43 42 84t87 41q39 0 39 -41q0 -45 -41 -86t-84 -41t-43 43z" />
<glyph unicode="&#x3c;" horiz-adv-x="1071" d="M367 485l16 43l1026 381l-16 -43l-979 -364l733 -373l-31 -25z" />
<glyph unicode="=" horiz-adv-x="1071" d="M281 426q3 18 61 18h840q38 0 35 -18q-4 -18 -62 -18h-844q-34 0 -30 18zM401 610q4 19 62 19h840q38 0 34 -19q-4 -18 -61 -18h-844q-34 0 -31 18z" />
<glyph unicode="&#x3e;" horiz-adv-x="1071" d="M231 109l17 43l979 364l-733 373l30 24l750 -381l-17 -43z" />
<glyph unicode="?" horiz-adv-x="893" d="M309 35q0 41 43 82t86 41q39 0 39 -41q0 -45 -41 -86t-84 -41t-43 45zM371 743q0 163 176.5 299t388.5 136q-52 122 -170 122q-41 0 -78 -14q-8 -4 -10 -4q-5 2 -6 6q0 8 33 17.5t61 9.5q128 0 184 -137q134 -10 218.5 -85t84.5 -184q0 -157 -190 -276q-69 -44 -336 -146 q-274 -105 -274 -217q0 -51 53 -51q90 0 170 117q3 6 8 6q4 -1 4 -6q0 -17 -57 -70q-68 -61 -125 -61q-68 0 -68 63q0 54 64 111q30 27 56 43q37 24 171 98q422 235 422 461q0 165 -197 186q9 -38 9 -75q0 -177 -141.5 -337.5t-297.5 -160.5q-66 0 -109.5 42.5t-43.5 106.5z M401 717q0 -109 121 -109q143 0 285.5 162t142.5 322q0 37 -10 75q-201 0 -377 -166q-162 -152 -162 -284z" />
<glyph unicode="@" horiz-adv-x="1393" d="M336 426q0 273 247 456q238 177 570 177q230 0 382 -139q142 -129 142 -299q0 -49 -14 -95q-36 -116 -131 -204q-7 -100 -76 -181q-169 -196 -528 -196q-232 0 -395 107q-197 131 -197 374zM391 424q0 -221 179 -353q155 -114 360 -114q348 0 514 190q60 70 74 160 q-147 -126 -307 -126q-15 0 -36 2q-147 19 -147 143q0 54 33 116q-101 -140 -154 -188.5t-102 -48.5q-54 0 -89.5 45.5t-35.5 114.5q0 191 270 340q120 65 193 65q61 0 61 -59q0 -18 -8 -45l51 96q31 -6 53 -6q27 0 70 6l-176 -293q-92 -153 -92 -203q0 -65 90 -73 q80 -8 170 40t158 134q-4 91 -54 151q-16 17 -14 19q5 5 21 -11q49 -49 59 -143q91 126 91 255q0 163 -124 282q-135 129 -350 129q-316 0 -535 -177q-223 -180 -223 -448zM754 285q0 -66 57 -66q69 0 240 230q139 187 139 258q0 49 -45 49q-92 0 -241.5 -180.5 t-149.5 -290.5z" />
<glyph unicode="A" horiz-adv-x="1860" d="M178 217q0 55 33.5 94t81.5 39q65 0 65 -63q0 -33 -22.5 -56.5t-52.5 -23.5q-47 0 -47 45l2 20q2 4 2 11q0 10 -9 10q-10 0 -20 -25t-10 -51q0 -98 103 -165.5t253 -67.5q215 0 473 211q59 47 131 124q143 150 228 234l30 31h-194l12 18q96 0 197 -2q293 326 568.5 476.5 t582.5 152.5q71 14 133 14q139 0 139 -45q0 -18 -21 -18q-9 0 -67 12q-107 22 -178 22q-161 -49 -284.5 -190t-281.5 -457q-242 -485 -620 -573q79 -12 137 -12q184 0 309 118q121 114 201 242q9 14 14 14q6 0 7 -4q0 -15 -115 -155q-107 -131 -195 -180.5t-215 -49.5 q-73 0 -178 21q-64 -21 -147 -21q-58 0 -58 21q0 24 78 24q55 0 127 -10q155 37 234.5 122t306.5 460h-385q-245 -258 -379 -367q-313 -254 -590 -254q-158 0 -268.5 74t-110.5 180zM690 838q0 211 203.5 391t441.5 180q105 0 164.5 -52t59.5 -143q0 -68 -48 -161 q-43 -85 -43 -115q0 -74 88 -74q100 0 207 148q9 12 15 12q8 0 8 -8q0 -11 -37 -53q-102 -117 -193 -117q-58 0 -94.5 40.5t-36.5 106.5q0 56 66 181q31 58 31 96q0 50 -55.5 85.5t-135.5 35.5q-229 0 -424.5 -176t-195.5 -381q0 -104 65.5 -170t169.5 -66q113 0 227.5 82.5 t161.5 198.5q3 10 8 10q9 0 9 -10q0 -21 -35 -74.5t-72 -89.5q-135 -133 -303 -133q-114 0 -183 70t-69 186zM1542 600h379q128 223 309 400q178 176 310 210q-261 -13 -484 -150t-514 -460z" />
<glyph unicode="B" horiz-adv-x="1903" d="M233 172q0 51 30.5 88t72.5 37q61 0 61 -68q0 -34 -20.5 -58t-50.5 -24q-50 0 -50 50q0 26 -4 26q-16 0 -16 -53q0 -83 81.5 -138t205.5 -55q219 0 397 162q77 70 134 146.5t261 388.5q99 149 238 303t233 219q-158 133 -458 133q-422 0 -734 -305q-256 -250 -256 -471 q0 -112 72 -178t195 -66q201 0 415.5 193t214.5 375q0 145 -149 145t-319.5 -165.5t-170.5 -311.5q0 -36 24 -62t56 -26q17 -3 17 -8q0 -9 -19 -9q-48 0 -81 43.5t-33 106.5q0 155 171 302.5t351 147.5q172 0 172 -159q0 -194 -219 -392t-432 -198q-139 0 -222.5 83.5 t-83.5 223.5q0 283 319.5 516.5t706.5 233.5q291 0 494 -131q183 114 354 114q134 0 215.5 -80t81.5 -211q0 -52 -14 -114t-27 -62q-10 0 -10 10q0 3 2 9q27 70 27 151q0 126 -75 202.5t-198 76.5q-165 0 -340 -109q140 -104 140 -243q0 -223 -303 -265q249 -87 249 -319 q0 -172 -146.5 -301t-342.5 -129q-94 0 -149.5 48.5t-55.5 131.5q0 128 117.5 253.5t236.5 125.5q66 0 108 -41.5t42 -106.5q0 -39 -24 -97t-39 -58q-11 0 -11 8q0 4 4 12q52 76 52 137q0 57 -37 92t-97 35q-113 0 -221 -119t-108 -243q0 -66 45 -110t112 -44 q153 0 280.5 148.5t127.5 326.5q0 166 -160 244l-58 -7q-24 -3 -48 -3q-76 0 -76 25q0 18 63 18q45 0 119 -18q104 32 164.5 112t60.5 184q0 100 -77 181q-219 -168 -412 -570q-119 -247 -218 -358q-96 -107 -273 -195q-209 -102 -373 -102q-134 0 -223 61.5t-89 153.5z" />
<glyph unicode="C" horiz-adv-x="1632" d="M358 1053q0 156 161 261t401 105q335 0 677 -223q59 12 121 12q199 0 199 -98q0 -65 -90 -135q82 -121 82 -223q0 -25 -15 -25q-12 0 -12 33q0 100 -70 203q-145 -108 -394.5 -186.5t-442.5 -78.5q-27 0 -47 2q-160 -223 -160 -430q0 -141 87.5 -223t238.5 -82 q285 0 508 273q135 165 135 313q0 78 -47 124t-125 46q-125 0 -268.5 -131.5t-143.5 -245.5q0 -10 6 -10q5 1 8 4q27 24 50 24q51 0 51 -55q0 -74 -72 -74q-66 0 -66 80q0 143 145 283.5t294 140.5q192 0 192 -211q0 -218 -208.5 -397.5t-462.5 -179.5q-177 0 -297.5 119 t-120.5 294q0 170 119 349q-433 80 -433 342zM393 1034q0 -239 406 -309q252 351 770 467q-304 176 -647 176q-212 0 -370.5 -100t-158.5 -234zM940 715q209 0 462.5 76.5t401.5 185.5q-77 111 -207 197q-187 -51 -365 -175.5t-292 -283.5zM1622 1178q119 -82 197 -191 q82 70 82 123q0 82 -160 82q-50 0 -119 -14z" />
<glyph unicode="D" horiz-adv-x="1735" d="M129 6q0 26 64.5 46t150.5 20q104 0 414 -68q209 55 329 173q117 115 359 501q146 234 321 399q-146 246 -473 246q-338 0 -620 -266q-142 -134 -227 -296t-85 -298q0 -108 68.5 -173t181.5 -65q191 0 396.5 206t205.5 396q0 72 -40 116t-105 44q-74 0 -74 -24 q0 -7 11 -7q6 0 10 2h14q49 0 49 -45q0 -33 -25 -57.5t-59 -24.5q-61 0 -61 66q0 45 40 77t97 32q73 0 118.5 -48.5t45.5 -126.5q0 -202 -210.5 -413t-412.5 -211q-139 0 -229 92.5t-90 237.5q0 311 307 557.5t694 246.5q329 0 496 -243q244 225 496 225q126 0 204 -81.5 t78 -213.5q0 -51 -12 -107.5t-23 -56.5q-6 0 -6 6q0 7 2 13q23 61 23 143q0 126 -76.5 202.5t-202.5 76.5q-242 0 -469 -230q86 -160 86 -338q0 -328 -251.5 -556t-614.5 -228q-112 0 -307 31q-169 -31 -324 -31q-264 0 -264 53zM150 6q0 -35 262 -35q150 0 270 19 q-276 39 -412 39q-120 0 -120 -23zM791 -4q127 -27 270 -27q383 0 620 371q154 240 154 471q0 128 -53 240q-135 -154 -242 -387q-141 -309 -292 -445q-156 -139 -457 -223z" />
<glyph unicode="E" horiz-adv-x="1722" d="M317 752q0 177 154 325q183 176 514 176q184 0 490 -75q138 67 321 67q136 0 232 -36.5t96 -88.5q0 -67 -123 -67q-97 0 -461 90q-170 -97 -170 -244q0 -71 49 -98q71 6 107 6q104 0 104 -25q0 -16 -55 -16q-70 0 -152 20q-111 -16 -258 -86q-374 -179 -374 -464 q0 -189 204 -240q-37 61 -37 141q0 197 201 363t440 166q110 0 175 -54t65 -145q0 -195 -214 -351.5t-482 -156.5q-54 0 -101 6q96 -129 285 -129q117 0 191 35l12 2q6 -2 6 -8q0 -14 -74 -29.5t-135 -15.5q-209 0 -319 151q-153 34 -239.5 115.5t-86.5 189.5 q0 145 120 271.5t320 191.5q121 40 277 58q-111 47 -111 149q0 131 162 219q-232 56 -383 56q-296 0 -504.5 -148t-208.5 -358q0 -94 55 -161t132 -67q53 0 53 17q0 9 -19 6q-53 0 -53 49q0 28 23.5 48t56.5 20q64 0 64 -62q0 -41 -36.5 -69.5t-88.5 -28.5 q-93 0 -158.5 83.5t-65.5 201.5zM995 98q0 -54 33 -110q58 -11 107 -11q236 0 461 163.5t225 334.5q0 72 -57 119t-144 47q-215 0 -420 -178.5t-205 -364.5zM1563 1157q265 -86 446 -86q94 0 94 51q0 39 -82.5 69t-189.5 30q-147 0 -268 -64z" />
<glyph unicode="F" horiz-adv-x="1352" d="M119 184q0 50 29.5 85.5t70.5 35.5q66 0 66 -67q0 -31 -20.5 -53.5t-49.5 -22.5q-49 0 -49 47q3 24 -6 24q-19 0 -19 -53q0 -84 87.5 -143.5t211.5 -59.5q195 0 351 116.5t342 402.5q16 23 47 71h-19q-112 0 -155 -86q-5 -14 -11 -14q-8 0 -8 8q0 40 56.5 75.5 t119.5 35.5h29q262 396 549 524q-77 17 -160 39q-268 70 -416 70q-30 0 -57 -2q43 -83 43 -187q0 -218 -170.5 -411t-364.5 -193q-82 0 -133 51.5t-51 134.5q0 189 196.5 382.5t438.5 244.5q-76 113 -233 113q-257 0 -465 -250q-17 -17 -19 -17q-6 0 -8 7q0 18 84 96 q194 180 401 180q184 0 267 -125q106 27 247 27q89 0 164 -14t361 -82q223 86 418 86q115 0 185.5 -25.5t70.5 -67.5q0 -49 -98 -83.5t-236 -34.5q-180 0 -441 55q-127 -60 -233.5 -182.5t-231.5 -352.5q62 -10 103 -16q56 129 160 129q71 0 71 -55q0 -44 -47.5 -71.5 t-124.5 -27.5h-20q-3 -4 -25 -53q-25 -58 -72 -98.5t-88 -40.5q-14 0 -14 6q0 5 10 8q69 21 140 185q-29 3 -84 12l-19 4q-14 -25 -41 -74q-86 -154 -139.5 -220t-144.5 -130q-242 -170 -500 -170q-152 0 -249 63.5t-97 163.5zM449 614q0 -70 44.5 -119t110.5 -49 q174 0 342 208.5t168 422.5q0 67 -33 135q-230 -29 -431 -219.5t-201 -378.5zM1448 547h25q62 0 102.5 22t40.5 56q0 43 -49 43q-65 0 -111 -103zM1898 1165l134 -30q168 -39 309 -39q72 0 126 21t54 48q0 31 -65.5 53.5t-157.5 22.5q-218 0 -400 -76z" />
<glyph unicode="G" horiz-adv-x="1503" d="M109 -12q0 155 96 294.5t262.5 225.5t308.5 86q12 0 21 -2q0 25 14 88q-18 -2 -43 -2q-161 0 -256.5 71t-95.5 189q0 204 231 362t531 158q238 0 389 -119q105 39 155 39q97 0 97 -80q0 -74 -113 -184q8 -55 8 -92q0 -108 -63 -231q-19 -37 -27 -37q-5 0 -6 6q1 5 4 10 q74 122 74 256q0 41 -4 76q-167 -147 -372.5 -256.5t-391.5 -151.5q-32 -52 -49 -108q264 -45 264 -287v-20q199 54 489 395q65 102 133 180t93 78q6 0 8 -6q0 -25 -77.5 -116.5t-156.5 -158.5q-71 -114 -104 -188.5t-82 -235.5q-61 -196 -150.5 -311t-251.5 -205 q-232 -129 -475 -129q-206 0 -333 112t-127 294zM166 -72q0 -145 107.5 -235t281.5 -90q236 0 429 167t448 592q78 132 165 248q-269 -299 -458 -350q-20 -137 -128.5 -249.5t-219.5 -112.5q-59 0 -98.5 36t-39.5 89q0 55 37.5 99t83.5 44q70 0 70 -64q0 -29 -23 -52 t-51 -23q-53 0 -53 47q0 7 4 22q2 8 2 15q0 6 -6 6q-15 0 -30 -32.5t-15 -61.5q0 -47 34 -78t85 -31q102 0 209.5 111t121.5 231q-22 -4 -51 -4q-128 0 -202 86.5t-74 234.5q-252 -16 -440.5 -209.5t-188.5 -435.5zM434 940q0 -115 92 -179.5t256 -64.5h35q117 383 731 637 q-133 105 -366 105q-281 0 -514.5 -155.5t-233.5 -342.5zM862 467q0 -89 57.5 -143t151.5 -54q29 0 55 4q1 11 1 22q0 104 -60 174q-66 78 -190 99q-15 -51 -15 -102zM938 713q178 42 382.5 152.5t367.5 254.5q-26 119 -119 197q-179 -89 -356 -258.5t-275 -345.5z M1585 1323q86 -74 117 -190q98 95 98 163q0 66 -76 66q-58 0 -139 -39z" />
<glyph unicode="H" horiz-adv-x="1767" d="M178 164q0 49 29.5 85t71.5 36q65 0 65 -66q0 -32 -20 -55t-50 -23q-47 0 -47 47q3 25 -6 25q-18 0 -18 -53q0 -82 77 -134.5t197 -52.5q211 0 369.5 125.5t359.5 450.5h-307l8 20h312q12 20 41 64q210 340 395 475q39 29 104 62.5t80 33.5q6 -2 6 -8t-20 -14 q-123 -50 -220 -172t-266 -441h390q187 334 406.5 519.5t428.5 185.5q103 0 167.5 -55.5t64.5 -143.5q0 -160 -193 -268q-84 -47 -115 -47q-8 0 -8 8q0 5 29 16q112 44 183 125.5t71 167.5q0 80 -55 130t-144 50q-286 0 -512 -329q-39 -57 -237 -439q-215 -411 -506 -505 q87 -11 137 -11q182 0 309 119q110 102 199 238q11 14 16 14q4 -1 4 -4q0 -10 -94 -131q-111 -143 -203.5 -196.5t-226.5 -53.5q-83 0 -180 14q-74 -20 -135 -20q-52 0 -52 22q0 25 82 25q46 0 115 -12q132 58 201 143q74 92 221 385l16 33h-389q-94 -175 -163 -259 t-185 -163q-255 -174 -492 -174q-138 0 -224.5 58.5t-86.5 152.5zM424 838q0 216 200.5 398.5t438.5 182.5q209 0 209 -184q0 -63 -43 -151t-43 -117q0 -76 82 -76q50 0 114 47t99 111q5 10 10 10q8 0 8 -8q0 -21 -59 -84q-88 -95 -168 -95q-57 0 -95 40.5t-38 99.5 q0 55 41 137q51 102 51 141q0 51 -48 82t-126 31q-223 0 -419 -179.5t-196 -383.5q0 -105 64 -171.5t166 -66.5q197 0 332 182q2 6 6 7q8 0 8 -9q0 -21 -64 -77q-132 -119 -286 -119q-108 0 -176 70t-68 182z" />
<glyph unicode="I" horiz-adv-x="1307" d="M141 174q0 52 29.5 88.5t71.5 36.5q65 0 65 -68q0 -33 -21.5 -56t-52.5 -23q-47 0 -47 45v20q0 9 -6 10q-18 0 -18 -51q0 -86 84 -144.5t209 -58.5q301 0 542 301q71 89 191 275q-170 74 -170 239q0 200 225 297q114 50 359 91l110 18l94 20q54 40 140.5 79.5t119.5 40.5 q17 0 17 -11q0 -17 -82.5 -53.5t-188.5 -65.5q-249 -178 -493 -635l-16 -30q12 -2 28 -2q122 0 225 75t125 181q4 16 11 16q6 0 6 -8q0 -61 -66 -139q-118 -142 -305 -142q-18 0 -35 2l-28 -55q-73 -140 -129 -208q-52 -64 -142 -128q-251 -178 -514 -178q-147 0 -242.5 62 t-95.5 159zM1073 739q0 -126 123 -178q265 423 586 635q-23 -5 -68 -16q-37 -10 -108 -27q-244 -58 -388.5 -170.5t-144.5 -243.5z" />
<glyph unicode="J" horiz-adv-x="1153" d="M-135 -147q0 50 28.5 85t69.5 35q66 0 66 -67q0 -80 -72 -80q-52 0 -55 65q0 4 -2 7q-17 0 -17 -48q0 -79 79.5 -132.5t199.5 -53.5q256 0 442 209q73 82 140 197q109 193 219 387l16 28q-101 31 -161 109.5t-60 179.5q0 180 149 301q88 71 177.5 99t322.5 57 q102 12 244 47q186 119 258 119q14 0 14 -11q0 -15 -80 -52q-83 -37 -182 -64q-172 -143 -290.5 -312t-262.5 -479h25q169 0 284 125q57 62 80 164q4 16 12 16q9 0 9 -10q0 -112 -122.5 -211.5t-260.5 -99.5q-21 0 -35 2q-6 -13 -60 -123q-125 -255 -210.5 -365t-221.5 -196 q-217 -137 -444 -137q-131 0 -215 59t-84 150zM811 717q0 -158 176 -217q300 543 645 762q-68 -17 -184 -43q-188 -42 -286 -83t-179 -110q-172 -147 -172 -309z" />
<glyph unicode="K" horiz-adv-x="1804" d="M178 160q0 52 30 87.5t75 35.5q65 0 65 -66q0 -32 -21 -55t-51 -23q-49 0 -49 54q0 20 -8 20q-16 0 -16 -55q0 -83 78 -135t204 -52q218 0 400 160q92 81 151.5 160.5t223.5 341.5q211 338 397 475q36 27 102 61.5t80 34.5q8 0 8 -8q0 -6 -20 -14q-129 -54 -225.5 -179.5 t-284.5 -480.5q-88 -166 -171.5 -257t-221.5 -175q-230 -139 -432 -139q-140 0 -227 58t-87 151zM424 838q0 216 201 398.5t440 182.5q209 0 209 -184q0 -64 -66 -195q-22 -45 -22 -73q0 -76 82 -76q60 0 126 55q54 45 91 107q4 6 8 6q8 0 8 -8q0 -22 -59 -84 q-90 -95 -170 -95q-57 0 -95 40.5t-38 99.5q0 52 43 137q51 101 51 141q0 51 -49 82t-127 31q-222 0 -418.5 -179.5t-196.5 -383.5q0 -105 64 -171.5t166 -66.5q91 0 184.5 51.5t149.5 132.5q4 5 6 5q8 0 8 -9q0 -20 -64 -77q-132 -119 -286 -119q-109 0 -177.5 70 t-68.5 182zM1413 676q0 14 41 14t90 -18q102 18 186 76q81 56 238 215q183 184 327 264t290 80q100 0 165.5 -56.5t65.5 -142.5q0 -177 -229 -287q-65 -30 -84 -30q-9 0 -9 6q0 8 9 10q121 34 201.5 119.5t80.5 179.5q0 80 -56.5 130t-148.5 50q-118 0 -228 -67.5 t-267 -237.5q-273 -296 -518 -319q92 -53 92 -185q0 -61 -49 -250q-23 -86 -23 -125q0 -72 44.5 -117.5t115.5 -45.5q62 0 111 38q12 11 16 11q6 0 6 -6q0 -19 -49 -40.5t-90 -21.5q-98 0 -169 83.5t-71 197.5q0 74 58 239q28 83 28 129q0 56 -39 93q-37 -5 -61 -5 q-74 0 -74 19z" />
<glyph unicode="L" horiz-adv-x="1554" d="M178 96q0 90 240 90q186 0 555 -96q110 43 195.5 127.5t215.5 280.5q-298 -260 -557 -260q-176 0 -280.5 104t-104.5 281q0 271 256.5 514t542.5 243q132 0 210.5 -68t78.5 -184q0 -205 -192 -424t-371 -219q-76 0 -128.5 48t-52.5 118q0 54 33.5 93.5t79.5 39.5 q62 0 62 -61q0 -33 -24 -58.5t-54 -25.5q-47 0 -47 42q0 32 -7 32q-22 0 -22 -62q0 -63 47.5 -105t118.5 -42q165 0 351.5 215.5t186.5 406.5q0 103 -70.5 169.5t-180.5 66.5q-265 0 -507.5 -265t-242.5 -552q0 -135 86.5 -212t237.5 -77q130 0 258.5 64t316.5 223 q157 263 228 365q68 98 163 198q185 194 283 194q41 0 41 -36q0 -71 -174.5 -273t-339.5 -323q-125 -274 -258 -400t-359 -184q398 -106 476.5 -123.5t150.5 -17.5q104 0 188 75q9 5 11 5q5 -2 6 -5q0 -16 -53 -53q-98 -67 -285 -67q-137 0 -264 26t-387 109 q-167 -33 -344 -33q-314 0 -314 96zM195 96q0 -78 307 -78q166 0 301 25q-351 111 -477 111q-131 0 -131 -58zM1624 698q171 139 327 321.5t156 244.5q0 22 -24 22q-74 0 -203 -151q-115 -135 -256 -437z" />
<glyph unicode="M" horiz-adv-x="2003" d="M178 166q0 52 30 87.5t75 35.5q65 0 65 -64q0 -33 -21 -56.5t-51 -23.5q-49 0 -49 54q0 20 -8 20q-16 0 -16 -55q0 -82 81.5 -134.5t209.5 -52.5q261 0 512 271q101 109 171 212.5t279 450.5q88 147 198.5 267t157.5 120q7 0 7 -6q-1 -4 -4 -8q-93 -102 -168 -385 q-112 -415 -211 -604q-98 -184 -252 -279q-4 -1 -4 -4q1 -1 4 -2q23 0 112 64q108 76 199 182t330 434q169 232 268.5 339.5t220.5 189.5q189 127 381 127q168 0 276.5 -98t108.5 -249q0 -39 -8.5 -75.5t-17.5 -36.5q-7 0 -7 6l2 8q15 35 15 94q0 133 -106 225.5t-259 92.5 q-247 0 -506 -242q-102 -95 -176 -185q-71 -85 -278 -360q-306 -405 -502 -506q-88 -45 -113 -45q-6 0 -6 7q1 1 21 16q98 73 156 196q54 113 194 535q119 360 272 516q6 6 6 10h-2q-14 0 -57 -43q-149 -148 -350 -532q-124 -236 -217.5 -357.5t-222.5 -213.5 q-212 -152 -426 -152q-139 0 -226.5 58.5t-87.5 150.5zM426 838q0 217 200.5 399t438.5 182q98 0 153.5 -49t55.5 -135q0 -64 -64 -195q-22 -46 -22 -73q0 -76 82 -76q49 0 109.5 47t97.5 115q5 10 10 10q8 0 8 -8q0 -22 -57 -86q-86 -97 -166 -97q-55 0 -93 40.5t-38 99.5 q0 57 41 137q51 100 51 141q0 51 -48 82t-126 31q-223 0 -419 -180t-196 -383q0 -105 64.5 -171.5t165.5 -66.5q90 0 182.5 51.5t149.5 132.5q4 5 6 5q8 0 8 -9q0 -20 -64 -77q-132 -119 -286 -119q-108 0 -176 70t-68 182zM1321 -25q0 25 74 25q41 0 108 -10h13 q106 38 179.5 120.5t176.5 278.5q209 397 331 562q118 158 283 270q83 55 107 55q6 0 6 -6q0 -5 -27 -19q-117 -62 -206 -179t-203 -359q-166 -352 -296.5 -506t-322.5 -221q89 -13 137 -13q154 0 246.5 65.5t261.5 293.5q11 14 17 14q4 -1 4 -6q0 -10 -94 -129 q-115 -146 -205.5 -199t-222.5 -53q-82 0 -177 18q-67 -22 -137 -22q-53 0 -53 20z" />
<glyph unicode="N" horiz-adv-x="1784" d="M178 166q0 52 30 87.5t75 35.5q65 0 65 -64q0 -33 -21 -56.5t-51 -23.5q-49 0 -49 54q0 20 -8 20q-16 0 -16 -55q0 -82 78.5 -134.5t199.5 -52.5q232 0 430.5 175t454.5 606q209 351 334 461q86 75 110 75q4 -1 5 -4q0 -2 -13 -18q-63 -85 -79.5 -180.5t-22.5 -407.5 q-8 -381 -94 -545q-2 0 -2 -4l2 -2q18 0 303 502q208 367 401.5 530.5t417.5 163.5q160 0 264.5 -97.5t104.5 -246.5q0 -84 -19 -84q-8 0 -8 6q0 11 4 35t4 37q0 138 -98 226.5t-250 88.5q-301 0 -606 -391q-96 -122 -373 -588q-80 -135 -164.5 -240.5t-111.5 -105.5 q-15 0 -15 15q0 19 45 41q88 41 88 204q0 31 -4 103q-10 178 -10 307q0 215 41.5 353.5t138.5 244.5q2 3 4 8h-2q-32 0 -135 -127q-56 -69 -100.5 -143t-231.5 -412q-160 -289 -373 -446.5t-444 -157.5q-130 0 -214.5 58t-84.5 149zM426 838q0 217 200.5 399t438.5 182 q98 0 153.5 -49t55.5 -135q0 -64 -64 -195q-22 -46 -22 -73q0 -76 82 -76q49 0 109.5 47t97.5 115q5 10 10 10q8 0 8 -8q0 -22 -57 -86q-86 -97 -166 -97q-55 0 -93 40.5t-38 99.5q0 57 41 137q51 100 51 141q0 51 -48 82t-126 31q-223 0 -419 -180t-196 -383 q0 -105 64.5 -171.5t165.5 -66.5q90 0 182.5 51.5t149.5 132.5q4 5 6 5q8 0 8 -9q0 -20 -64 -77q-132 -119 -286 -119q-108 0 -176 70t-68 182z" />
<glyph unicode="O" horiz-adv-x="1624" d="M500 383q0 184 114 375t308 329q138 100 310.5 162t311.5 62q138 0 220.5 -67t82.5 -179q0 -46 -16 -109q27 -79 27 -157q0 -153 -86 -311.5t-238 -286.5q-146 -124 -313.5 -196.5t-307.5 -72.5q-184 0 -298.5 125t-114.5 326zM588 287q0 -148 87.5 -241t225.5 -93 q280 0 563 288t314 603q-34 -60 -121.5 -141.5t-118.5 -81.5q-8 0 -8 8q0 5 16 14q162 90 234 238q0 125 -73 198.5t-198 73.5q-232 0 -476.5 -247.5t-244.5 -483.5q0 -94 44 -152.5t116 -58.5q34 0 69.5 20t35.5 39q-1 6 -4 6l-9 -4q-12 -12 -39 -12q-47 0 -47 55 q0 34 23 57t55 23q64 0 64 -71q0 -53 -45.5 -92t-106.5 -39q-86 0 -143.5 70.5t-57.5 176.5q0 244 254.5 486.5t509.5 242.5q109 0 195 -51.5t117 -134.5q12 40 12 80q0 101 -71 163t-187 62q-230 0 -465 -153q-225 -147 -369 -377q-151 -238 -151 -471z" />
<glyph unicode="P" horiz-adv-x="1575" d="M233 172q0 51 30.5 88t72.5 37q61 0 61 -68q0 -34 -20.5 -58t-50.5 -24q-50 0 -50 50q0 26 -4 26q-16 0 -16 -53q0 -83 81.5 -138t205.5 -55q219 0 397 162q78 71 133 145q60 80 262 388q101 152 238 305t233 219q-156 133 -458 133q-422 0 -734 -305 q-256 -250 -256 -471q0 -112 72 -178t195 -66q201 0 415.5 193t214.5 375q0 145 -149 145t-319.5 -166.5t-170.5 -312.5q0 -36 24 -62t56 -26q17 0 17 -9q0 -8 -19 -8q-48 0 -81 43.5t-33 106.5q0 156 171 304t351 148q172 0 172 -159q0 -194 -219 -392t-432 -198 q-139 0 -222.5 83.5t-83.5 223.5q0 283 319.5 516.5t706.5 233.5q294 0 494 -131q183 114 354 114q134 0 215.5 -80t81.5 -211q0 -52 -14 -114t-27 -62q-10 0 -10 10q0 3 2 9q27 70 27 151q0 126 -75 202.5t-198 76.5q-166 0 -342 -109q150 -120 150 -272q0 -128 -103 -223 t-241 -95q-54 0 -116 21.5t-62 40.5q2 6 8 6q5 0 16 -6q62 -35 125 -35q114 0 195.5 98t81.5 234q0 117 -84 209q-217 -162 -412 -570q-118 -247 -216 -356t-275 -197q-209 -102 -373 -102q-134 0 -223 61.5t-89 153.5z" />
<glyph unicode="Q" horiz-adv-x="1438" d="M156 80q0 78 221 78q191 0 487 -92q321 102 536.5 371t215.5 564q0 154 -80 240t-223 86q-294 0 -573 -275t-279 -567q0 -123 71 -193.5t195 -70.5q256 0 457 246q168 206 168 399q0 80 -41.5 132.5t-106.5 52.5q-32 0 -69 -19.5t-37 -36.5q1 -4 6 -4q1 0 16 8q10 7 27 7 q49 0 49 -54q0 -32 -22.5 -56t-53.5 -24q-63 0 -63 68q0 54 42.5 91.5t102.5 37.5q86 0 141.5 -73t55.5 -187q0 -230 -207 -418t-461 -188q-160 0 -253 94.5t-93 255.5q0 336 346 586q290 209 584 209q176 0 285.5 -118t109.5 -308q0 -165 -93.5 -333.5t-256.5 -297.5 q-189 -150 -471 -234q327 -98 420 -121q87 -22 149 -22q92 0 166 68q3 2 8 4q6 -3 6 -9q0 -15 -49 -47q-87 -55 -248 -55q-151 0 -247 19q-130 27 -340 114l-25 10q-132 -30 -287 -30q-286 0 -286 92zM174 80q0 -74 270 -74q157 0 256 23q-302 98 -409 98q-117 0 -117 -47z " />
<glyph unicode="R" horiz-adv-x="1894" d="M233 172q0 51 30.5 88t72.5 37q61 0 61 -68q0 -34 -20.5 -58t-50.5 -24q-50 0 -50 50q0 26 -4 26q-16 0 -16 -53q0 -83 81.5 -138t205.5 -55q219 0 397 162q78 71 133 145q60 80 262 388q101 152 238 305t233 219q-156 133 -458 133q-422 0 -734 -305 q-256 -250 -256 -471q0 -112 72 -178t195 -66q201 0 415.5 193t214.5 375q0 145 -149 145t-319.5 -166.5t-170.5 -312.5q0 -36 24 -62t56 -26q17 0 17 -9q0 -8 -19 -8q-48 0 -81 43.5t-33 106.5q0 156 171 304t351 148q172 0 172 -159q0 -194 -219 -392t-432 -198 q-139 0 -222.5 83.5t-83.5 223.5q0 283 319.5 516.5t706.5 233.5q294 0 494 -131q183 114 354 114q134 0 215.5 -80t81.5 -211q0 -52 -14 -114t-27 -62q-10 0 -10 10q0 3 2 9q27 70 27 151q0 126 -75 202.5t-198 76.5q-169 0 -342 -109q148 -118 148 -256 q0 -117 -93.5 -199.5t-246.5 -101.5q104 -60 104 -174q0 -76 -53 -231q-35 -102 -35 -160q0 -60 43 -101.5t105 -41.5q64 0 121 43q13 8 18 8q8 0 8 -8q0 -17 -56 -39.5t-97 -22.5q-96 0 -161 76.5t-65 189.5q0 82 72 289q18 53 18 90q0 47 -39 80q-64 -6 -73 -6 q-99 0 -99 25q0 16 50 16q59 0 118 -23q119 19 195 110.5t76 215.5q0 98 -76 188l-10 13q-219 -164 -414 -572q-118 -247 -216 -356t-275 -197q-209 -102 -373 -102q-134 0 -223 61.5t-89 153.5z" />
<glyph unicode="S" horiz-adv-x="1448" d="M270 377q0 169 100 336t281 301q231 170 457 170q123 0 195.5 -69t72.5 -187q0 -63 -18 -131q147 98 260 166q72 157 181 270t190 113q47 0 47 -39q0 -48 -96.5 -138.5t-235.5 -173.5q-18 -57 -53 -207q-56 -235 -103 -333.5t-155 -200.5q-312 -295 -699 -295 q-111 0 -196 37q-47 -92 -47 -160q0 -86 57 -158q6 -6 6 -14t-10 -8q-23 0 -49.5 62t-26.5 116q0 78 51 172q-209 108 -209 371zM344 305q0 -197 145 -280q68 112 195 245q-66 57 -66 136q0 60 38 102.5t92 42.5q67 0 67 -62q0 -32 -25 -55.5t-59 -23.5q-49 0 -49 47 q0 15 10 32q4 13 4 15q0 6 -6 6q-17 0 -35 -36t-18 -71q0 -66 61 -118q201 212 635 495q25 88 25 152q0 105 -66.5 169t-175.5 64q-269 0 -520.5 -280t-251.5 -580zM508 14q82 -37 186 -37q188 0 364 106.5t302 295.5q59 88 93 163.5t110 284.5q18 52 43 109 q-117 -74 -256 -168q-66 -212 -231.5 -372t-317.5 -160q-46 0 -101 24q-113 -117 -192 -246zM713 274q42 -22 90 -22q140 0 293 147t227 353l-66 -45q-377 -260 -544 -433zM1712 1020q132 81 218.5 162t86.5 123q0 24 -28 24q-67 0 -149.5 -92.5t-127.5 -216.5z" />
<glyph unicode="T" horiz-adv-x="1202" d="M156 174q0 49 29 84t69 35q65 0 65 -68q0 -32 -20 -55t-49 -23q-47 0 -47 46q0 24 -8 24q-17 0 -17 -49q0 -81 83.5 -137t205.5 -56q268 0 481 242q100 113 258 373q258 422 539 555q-54 9 -162 33q-254 55 -389 55q-14 0 -84 -4q47 -88 47 -201q0 -220 -167 -413 t-357 -193q-79 0 -128.5 52.5t-49.5 135.5q0 114 86.5 252.5t224 242t301.5 144.5q-79 107 -225 107q-123 0 -248.5 -71.5t-220.5 -194.5q-14 -19 -19 -19q-6 0 -8 6q0 17 82 99q197 196 412 196q167 0 254 -117q121 35 278 35q81 0 148 -10q71 -11 348 -68q231 101 444 101 q219 0 219 -86q0 -54 -108 -91.5t-264 -37.5q-157 0 -390 43q-123 -64 -225 -189.5t-219 -355.5t-171.5 -306.5t-149.5 -148.5q-251 -186 -521 -186q-144 0 -235.5 61t-91.5 158zM471 612q0 -72 44.5 -121t109.5 -49q169 0 331 208.5t162 426.5q0 80 -37 148 q-224 -37 -417 -231t-193 -382zM1901 1204q25 -4 133 -24q160 -31 284 -31q81 0 139 22.5t58 53.5q0 29 -56.5 49t-142.5 20q-214 0 -415 -90z" />
<glyph unicode="U" horiz-adv-x="1845" d="M299 547q0 328 344 598q134 105 290 168t281 63q152 0 236 -81.5t84 -227.5q0 -124 -61 -235.5t-304 -432.5q-106 -140 -139 -200.5t-33 -114.5q0 -49 30.5 -81t76.5 -32q150 0 415 302t689 958q53 -4 59 -4q38 0 96 10q-694 -952 -694 -1229q0 -68 44.5 -111.5 t113.5 -43.5q119 0 233 127q10 10 15 10q6 0 6 -8q0 -11 -35 -41q-118 -105 -219 -105q-95 0 -158 74t-63 186q0 192 197 505q-11 -15 -31 -42l-48 -65q-181 -253 -347.5 -396t-276.5 -143q-72 0 -116 52t-44 138q0 91 48.5 180.5t217.5 311.5q177 231 225 321.5t48 192.5 q0 95 -70.5 151t-191.5 56q-306 0 -588.5 -278.5t-282.5 -579.5q0 -113 63.5 -181.5t168.5 -68.5q199 0 383 227q192 238 192 434q0 166 -141 166q-35 0 -66 -16t-31 -35q0 -8 9 -8q6 1 18 6q5 2 14 2q52 0 52 -49q0 -32 -24 -56t-56 -24q-62 0 -62 66q0 54 44.5 93.5 t105.5 39.5q71 0 113 -50t42 -135q0 -196 -188 -436q-191 -244 -405 -244q-126 0 -202.5 86.5t-76.5 229.5z" />
<glyph unicode="V" horiz-adv-x="1534" d="M307 508q0 278 279 549.5t563 271.5q169 0 274 -117.5t105 -308.5q0 -204 -115 -429t-371 -523q-10 -12 -10 -14l2 -3q17 0 125 93q83 70 172 167q80 87 422 476q202 230 356 362.5t345 241.5q311 178 548 178q82 0 82 -29q0 -24 -28 -24h-17q-55 6 -90 6 q-258 0 -608 -225q-168 -109 -285 -221q-113 -110 -424 -463q-367 -418 -553 -553q-98 -72 -108 -72q-6 0 -6 6q0 1 22 31q177 229 303.5 543t126.5 524q0 338 -274 338q-108 0 -249 -74t-257 -192q-126 -129 -201.5 -287.5t-75.5 -296.5q0 -124 67 -196t181 -72 q222 0 432 284q150 203 150 363q0 72 -35.5 114.5t-95.5 42.5q-34 0 -67.5 -15.5t-33.5 -31.5q0 -6 7 -6h8q28 4 31 4q45 0 45 -49q0 -31 -24 -53.5t-56 -22.5q-62 0 -62 64q0 52 45 90.5t107 38.5q67 0 108 -47.5t41 -124.5q0 -196 -194 -430q-198 -238 -408 -238 q-132 0 -215.5 92t-83.5 238z" />
<glyph unicode="W" horiz-adv-x="1892" d="M307 520q0 138 73.5 288t201.5 273q287 279 551 279q155 0 260.5 -122t105.5 -300q0 -191 -158 -463.5t-383 -468.5q-22 -20 -22 -22q1 -4 4 -4q31 0 199 174q238 247 643 780q116 153 228 274t138 121q6 0 6 -6q0 -3 -6 -10q-63 -84 -102 -171q-44 -99 -133 -372 q-98 -298 -178 -454q-84 -161 -211 -291q-2 -4 -4 -7q1 -3 4 -4q17 0 143 131q88 91 492 580q209 253 374 399.5t371 261.5q281 158 490 158q71 0 71 -28q0 -25 -31 -25h-14q-31 4 -78 4q-230 0 -555 -207q-185 -118 -310 -242q-129 -127 -435 -499q-370 -449 -578 -602 q-69 -51 -80 -51q-5 0 -6 4q0 1 29 30q127 129 262 502q121 333 191.5 486t150.5 255q19 24 19 27q-7 2 -15 -8l-10 -10l-25 -31q-65 -81 -305 -397q-379 -513 -665 -738q-154 -120 -179 -120q-5 2 -6 6q0 3 13 14q196 179 375.5 537.5t179.5 572.5q0 146 -71 231.5 t-194 85.5q-259 0 -514.5 -289t-255.5 -583q0 -122 66.5 -197t173.5 -75q226 0 428 309q131 201 131 358q0 74 -36.5 119t-96.5 45q-36 0 -70 -17.5t-34 -35.5q0 -6 6 -6q3 0 10 2q25 4 33 4q45 0 45 -51q0 -31 -24 -53.5t-56 -22.5q-62 0 -62 67q0 53 46 92.5t106 39.5 q69 0 110.5 -50t41.5 -133q0 -188 -172 -424q-191 -260 -408 -260q-126 0 -207.5 96.5t-81.5 243.5z" />
<glyph unicode="X" horiz-adv-x="2056" d="M197 152q0 50 27 84t67 34q67 0 67 -65q0 -31 -20 -54.5t-47 -23.5q-43 0 -47 47q-2 23 -11 23q-14 0 -14 -43q0 -80 67.5 -132.5t172.5 -52.5q301 0 852 543q26 27 96 94q52 125 103 251q59 159 59 263q0 101 -59 159t-160 58q-244 0 -516 -219q-314 -252 -314 -526 q0 -101 70 -163t184 -62q241 0 465 251q160 180 160 332q0 62 -40.5 101t-105.5 39q-143 0 -308 -167t-165 -313q0 -41 26 -70q25 -28 58 -28h2q13 0 13 -4q0 -8 -15 -8q-55 0 -89 41t-34 110q0 157 167 306t343 149q74 0 120 -43.5t46 -112.5q0 -197 -225 -407 q-208 -195 -414 -195q-135 0 -216 78t-81 209q0 284 326 514q287 203 539 203q136 0 220.5 -80.5t84.5 -212.5q0 -122 -74 -307q10 9 223 221q175 174 349 274.5t300 100.5q91 0 150 -47.5t59 -120.5q0 -34 -19 -73.5t-36 -39.5q-10 0 -10 10q0 4 16 21q31 30 31 80 q0 59 -47 98t-119 39q-225 0 -584 -299q-147 -123 -313 -289l-14 -14l-9 -19l-10 -28q-139 -390 -139 -482q0 -207 190 -207q176 0 378 208t202 370q0 74 -45.5 118t-120.5 44q-83 0 -185.5 -61t-183.5 -156q-15 -19 -22 -19q-5 2 -6 6q0 12 49 60q193 188 354 188 q80 0 135.5 -58t55.5 -142q0 -191 -209 -383.5t-416 -192.5q-117 0 -194.5 81.5t-77.5 203.5q0 139 84 323q-21 -19 -82 -82q-263 -283 -461 -410.5t-375 -127.5q-121 0 -199.5 57.5t-78.5 147.5z" />
<glyph unicode="Y" horiz-adv-x="1907" d="M301 596q0 298 313 549q156 124 335.5 197t328.5 73q158 0 249 -88.5t91 -243.5q0 -123 -56 -239.5t-221 -329.5q-142 -185 -180.5 -250.5t-38.5 -128.5q0 -125 119 -125q111 0 266 136.5t408 457.5q261 331 526 508l13 8q8 4 10 4q10 0 10 -12q-1 -3 -8 -8 q-173 -122 -319 -330q-141 -203 -316 -575q-150 -320 -407 -511.5t-529 -191.5q-135 0 -222 62.5t-87 160.5q0 59 36 100.5t87 41.5q65 0 65 -62q0 -33 -22.5 -57.5t-53.5 -24.5q-53 0 -53 50q0 12 4 22q2 5 2 12q0 6 -4 6q-14 0 -27.5 -28.5t-13.5 -59.5q0 -89 80 -147.5 t203 -58.5q166 0 316.5 90.5t245.5 212.5q93 119 284 465q66 119 157 264q-221 -266 -329 -367q-202 -188 -330 -188q-77 0 -125.5 57.5t-48.5 149.5q0 94 54 192t226 318q222 281 222 458q0 234 -283 234q-315 0 -631 -287q-130 -118 -217.5 -280.5t-87.5 -286.5 q0 -120 69.5 -191t186.5 -71q208 0 397 196q228 236 228 436q0 71 -40 114.5t-106 43.5q-146 0 -307.5 -180.5t-161.5 -343.5q0 -105 101 -105h4q10 0 10 -6q0 -8 -25 -8q-55 0 -90 46t-35 120q0 171 164.5 332.5t337.5 161.5q76 0 121 -47.5t45 -127.5q0 -179 -184 -397 q-215 -254 -457 -254q-135 0 -217 91t-82 241z" />
<glyph unicode="Z" horiz-adv-x="1337" d="M203 -457q0 51 28.5 86t71.5 35q64 0 64 -65q0 -33 -21.5 -57.5t-50.5 -24.5q-22 0 -40 15.5t-15 33.5l2 14v4q-1 4 -4 4q-17 0 -17 -49q0 -80 78 -133t195 -53q223 0 444 209q225 213 225 411q0 239 -282 260q-110 -38 -187 -38q-30 0 -30 14q0 15 53.5 27t124.5 12h32 q147 64 263 166t286 315q99 124 158 191q-134 3 -194.5 67t-65.5 203q-6 172 -180 172q-250 0 -507 -263.5t-257 -518.5q0 -114 66.5 -183t177.5 -69q195 0 391 208.5t196 415.5q0 73 -38 116.5t-101 43.5q-130 0 -281 -180.5t-151 -335.5q0 -96 92 -109q12 0 12 -8t-12 -8 q-57 0 -98 50.5t-41 119.5q0 161 158 325t313 164q77 0 121.5 -47.5t44.5 -132.5q0 -216 -202.5 -429.5t-408.5 -213.5q-129 0 -207.5 87.5t-78.5 232.5q0 257 268 497q285 256 557 256q173 0 246 -114q24 -39 32 -68q5 -23 21 -133q19 -131 132 -131h5q302 348 412 348 q35 0 35 -33q0 -53 -148 -184q-119 -106 -248 -143q-10 -17 -77 -144q-119 -230 -271.5 -352.5t-390.5 -179.5q168 -9 268.5 -88t100.5 -203q0 -238 -279 -436q-262 -187 -491 -187q-129 0 -214 60.5t-85 150.5zM1655 946q154 48 299 205q61 67 61 92q0 19 -20 19 q-46 0 -143 -90.5t-197 -225.5z" />
<glyph unicode="[" horiz-adv-x="899" d="M299 -162q106 180 446 809q231 426 414 799q68 -15 217 -19q51 -1 117 6q41 5 41 -1q0 -29 -135 -29q-75 0 -115 6q-109 -160 -442 -772q-296 -543 -383 -764q71 4 121 2q60 -2 108 -14q43 -11 39 -19q-3 -6 -14 -6q-2 0 -47.5 6t-92.5 6q-202 0 -274 -10z" />
<glyph unicode="\" horiz-adv-x="1083" d="M852 1487h27l69 -1694h-26z" />
<glyph unicode="]" horiz-adv-x="899" d="M184 -154q0 29 135 29q75 0 115 -6q110 160 443 772q295 543 383 764q-71 -4 -121 -2q-60 2 -109 14q-42 11 -39 19q3 6 14 6q3 0 48.5 -6t91.5 -6q203 0 274 10q-105 -180 -446 -809q-231 -426 -414 -799q-67 15 -217 18q-50 2 -116 -5q-42 -5 -42 1z" />
<glyph unicode="^" horiz-adv-x="1024" d="M406 602q5 7 28 16q218 93 435 231q221 141 302 243q-1 -31 -1 -62q0 -217 77 -409q10 -25 4 -25q-19 0 -49 45q-64 95 -125 242q-125 -83 -361 -187t-298 -104q-12 0 -12 10z" />
<glyph unicode="_" horiz-adv-x="1024" d="M94 -170h1024v-43h-1024v43z" />
<glyph unicode="`" horiz-adv-x="1024" d="M762 866l86 60q-17 -49 -17 -97q0 -104 56 -178q7 -7 8 -12q-1 -4 -6 -4q-25 0 -65.5 74t-61.5 157z" />
<glyph unicode="a" horiz-adv-x="705" d="M104 137q0 192 271 340q119 66 192 66q62 0 62 -60q0 -17 -8 -45l51 97q30 -7 53 -7q27 0 70 7l-177 -293q-92 -154 -92 -203q0 -47 39 -47q40 0 128 91.5t179 225.5q6 10 11 10q6 0 6 -6q0 -21 -146 -194q-118 -142 -186 -142q-46 0 -75 34.5t-29 86.5q0 54 32 117 q-100 -140 -153 -189t-103 -49q-53 0 -89 45.5t-36 114.5zM178 57q0 -65 58 -65q69 0 239 229q139 188 139 258q0 49 -45 49q-92 0 -241.5 -180t-149.5 -291z" />
<glyph unicode="b" horiz-adv-x="539" d="M94 119q0 75 96 229l414 664q27 -8 58 -8q24 0 61 6l-449 -709q105 144 157 193t99 49q56 0 91.5 -45.5t35.5 -114.5q0 -151 -192 -297q-143 -109 -254 -109q-52 0 -84.5 39.5t-32.5 102.5zM147 45q0 -53 52 -53q90 0 237.5 179.5t147.5 289.5q0 67 -56 67 q-73 0 -249 -241q-132 -180 -132 -242z" />
<glyph unicode="c" horiz-adv-x="496" d="M109 158q0 84 68 174t183 155q97 56 158 56q74 0 74 -88q0 -69 -46.5 -138t-92.5 -69q-45 0 -45 45q0 53 92 98q71 35 71 92q0 45 -49 45q-83 0 -204 -165t-121 -277q0 -94 88 -94q138 0 374 311q13 16 19 16q4 -1 4 -6q0 -13 -141 -168q-154 -168 -262 -168 q-70 0 -120 53.5t-50 127.5z" />
<glyph unicode="d" horiz-adv-x="705" d="M104 137q0 165 205 299q163 107 256 107q62 0 62 -60q0 -28 -17 -63l357 598q33 -10 65 -10q8 0 62 4q-375 -596 -473 -762q-99 -169 -99 -213q0 -45 41 -45q91 0 309 317q6 10 11 10q6 0 6 -6q-1 -3 -10 -16l-43 -59q-189 -261 -279 -261q-46 0 -75 34.5t-29 88.5 t36 125q-175 -248 -260 -248q-53 0 -89 45.5t-36 114.5zM178 59q0 -67 55 -67q80 0 275 278q104 150 104 205q0 53 -49 53q-90 0 -237.5 -179.5t-147.5 -289.5z" />
<glyph unicode="e" horiz-adv-x="504" d="M109 154q0 180 251 317q132 72 215 72q36 0 61.5 -21.5t25.5 -52.5q0 -72 -94 -122.5t-314 -94.5q-68 -103 -68 -172q0 -86 93 -86q158 0 387 309q12 16 20 16q4 -1 4 -6q0 -3 -18 -26l-43 -54q-207 -256 -355 -256q-70 0 -117.5 50.5t-47.5 126.5zM262 266 q144 37 244 104.5t100 127.5q0 32 -35 32q-53 0 -139.5 -73.5t-169.5 -190.5z" />
<glyph unicode="f" horiz-adv-x="272" d="M-623 -481q0 10 11 10q8 0 12 -2q36 -10 68 -10q135 0 272 121q84 74 147 174q52 80 246 436l154 280h-107l8 15h109q128 217 283 375.5t239 158.5q45 0 45 -47q0 -89 -126 -223.5t-330 -263.5h172l-9 -15h-174l-82 -159q-151 -295 -258 -444.5t-247 -266.5 q-193 -160 -359 -160q-74 0 -74 21zM416 563q164 114 300 260t136 209q0 33 -33 33q-76 0 -207 -174q-65 -88 -196 -328z" />
<glyph unicode="g" horiz-adv-x="686" d="M-285 -582q0 205 463 416q100 46 129 62l170 313q-111 -147 -156.5 -189.5t-93.5 -42.5q-52 0 -88.5 46t-36.5 112q0 173 226 314q151 94 237 94q60 0 60 -66q0 -18 -9 -43l56 101q27 -7 47 -7q26 0 76 7q-7 -9 -88 -150l-248 -428q131 74 209.5 143t177.5 199 q15 20 20 20q4 -1 4 -6q0 -16 -108 -137q-121 -134 -313 -239l-50 -91q-136 -251 -305 -387q-162 -131 -280 -131q-43 0 -71 26t-28 64zM-272 -584q0 -31 23 -52t59 -21q110 0 214 112.5t261 403.5l12 20q-19 -11 -113 -57q-456 -226 -456 -406zM178 59q0 -67 58 -67 q59 0 200 178q178 225 178 307q0 51 -49 51q-90 0 -238.5 -179.5t-148.5 -289.5z" />
<glyph unicode="h" horiz-adv-x="641" d="M-12 -18l147 266q30 57 92 168q33 54 203 344l152 258q30 -6 51 -6q40 0 76 10q-104 -167 -310 -500q-6 -10 -155 -258q188 279 297 279q43 0 73.5 -37t30.5 -90q0 -69 -88 -199q-98 -145 -98 -182q0 -43 43 -43q78 0 258 252l31 43l18 22q5 10 12 10q4 0 4 -4 q0 -8 -10 -18l-43 -59q-188 -261 -280 -261q-48 0 -78.5 34.5t-30.5 86.5q0 70 76 183q119 175 119 208q0 39 -41 39q-60 0 -164 -118q-100 -113 -275 -428q-30 6 -51 6q-22 0 -59 -6z" />
<glyph unicode="i" horiz-adv-x="344" d="M78 94q0 58 69 176l156 265q31 -7 49 -7q27 0 76 7l-227 -373q-49 -81 -49 -125q0 -45 47 -45q89 0 313 317q5 10 10 10q6 0 6 -6q-1 -3 -10 -16l-43 -59q-188 -261 -287 -261q-47 0 -78.5 33.5t-31.5 83.5zM375 676q0 33 31 63.5t65 30.5q43 0 43 -43q0 -35 -29.5 -65.5 t-64.5 -30.5q-45 0 -45 45z" />
<glyph unicode="j" horiz-adv-x="309" d="M-659 -578q0 115 155 236q85 66 144 100q91 52 280 133l14 7l175 311q73 127 188 326q28 -7 47 -7q28 0 74 7q-80 -130 -242 -410l-92 -168q129 72 210.5 144t176.5 198q12 20 21 20q3 0 4 -4q0 -15 -111 -139q-114 -128 -311 -239l-51 -89q-155 -265 -306 -389 q-160 -131 -274 -131q-102 0 -102 94zM-645 -582q0 -32 24 -53.5t60 -21.5q105 0 208 117q87 98 267 399l12 20q-285 -145 -362 -198q-209 -144 -209 -263zM389 676q0 32 29.5 62t62.5 30q43 0 43 -43q0 -34 -29.5 -63t-64.5 -29q-41 0 -41 43z" />
<glyph unicode="k" horiz-adv-x="616" d="M-20 -18q23 39 51 88l116 202q26 45 78 136l367 614q41 -8 61 -8t64 8q-8 -14 -25 -41q-26 -42 -78 -125q-25 -43 -77 -129l-172 -278q-86 -139 -146 -252q-67 -126 -108 -195l-13 -20q-27 6 -53 6q-22 0 -65 -6zM301 319q0 17 33 17q32 0 59 -10q50 22 160 149 q59 68 121 68q76 0 76 -72q0 -48 -38.5 -95.5t-76.5 -47.5q-43 0 -43 39q0 36 65 77q27 17 27 48q0 24 -31 24q-43 0 -108 -76q-83 -95 -135 -118q104 -48 104 -111q0 -35 -49 -135q-21 -42 -21 -58q0 -26 33 -26q94 0 307 317q7 10 13 10t6 -6q-1 -3 -10 -16l-43 -59 q-189 -261 -285 -261q-43 0 -76 29t-33 66q0 32 56 143l1 4q19 37 19 55q0 22 -33 41q-38 -16 -63 -16q-35 0 -35 20z" />
<glyph unicode="l" horiz-adv-x="328" d="M84 92q0 55 25.5 106.5t173.5 297.5q181 301 305 522q30 -8 53 -8q38 0 70 12q-420 -699 -489.5 -822t-69.5 -163q0 -45 38 -45q84 0 308 317q5 10 12 10q4 -1 4 -6q0 -6 -10 -16l-43 -59q-189 -261 -279 -261q-43 0 -70.5 32.5t-27.5 82.5z" />
<glyph unicode="m" horiz-adv-x="1114" d="M125 -14l143 225q148 232 148 287q0 30 -23 30q-49 0 -203 -215q-10 -14 -16 -14q-4 1 -4 6q0 9 92 125q90 113 139 113q32 0 55 -30.5t23 -72.5q0 -58 -59 -161q180 264 268 264q42 0 69 -34t27 -85q0 -57 -53 -145q190 264 285 264q43 0 72.5 -37t29.5 -90 q0 -62 -49 -145q-1 -1 -86 -128q-49 -72 -49 -110q0 -41 41 -41q78 0 258 252l31 43l18 22q5 10 10 10q6 0 6 -6q-1 -3 -10 -16l-43 -59q-188 -261 -278 -261q-47 0 -77 35t-30 90q0 56 38 121q7 12 73 107q84 120 84 157q0 41 -41 41q-132 0 -453 -542q-20 4 -55 4 q-41 0 -70 -4l142 225q139 222 139 272q0 45 -37 45q-55 0 -180 -158t-248 -384q-23 4 -59 4q-39 0 -68 -4z" />
<glyph unicode="n" horiz-adv-x="801" d="M127 -14l156 247q133 212 133 265q0 30 -25 30q-51 0 -201 -215q-9 -13 -14 -14q-5 0 -6 6q1 5 4 8l19 25q153 205 206 205q34 0 58 -31t24 -74q0 -64 -75 -178q118 163 181.5 223t117.5 60q44 0 74 -36t30 -89q0 -67 -92 -205q-94 -141 -94 -180q0 -41 41 -41 q89 0 307 317q5 10 10 10q6 0 6 -6q0 -21 -145 -194q-119 -142 -187 -142q-45 0 -75.5 35t-30.5 86q0 45 18.5 83.5t96.5 152.5q81 120 81 153q0 41 -43 41q-146 0 -450 -542q-49 4 -59 4q-35 0 -66 -4z" />
<glyph unicode="o" horiz-adv-x="594" d="M109 145q0 154 202 297q142 101 234 101q86 0 86 -92q0 -115 -121 -277q20 -12 45 -12q45 0 105 42t98 101q11 14 16 14q4 0 4 -4q0 -16 -59 -75q-88 -88 -162 -88q-31 0 -55 12q-132 -187 -248 -187q-60 0 -102.5 49.5t-42.5 118.5zM190 63q0 -69 66 -69q108 0 236 178 q-29 32 -29 66q0 49 39 101t76 52q16 0 22 -20q16 35 16 78q0 81 -73 81q-91 0 -222 -174t-131 -293z" />
<glyph unicode="p" horiz-adv-x="543" d="M-358 -557l821 1350q27 -9 53 -9q27 0 66 9l-297 -480q107 142 155.5 186t96.5 44q53 0 89 -46t36 -114q0 -163 -203 -297q-165 -109 -258 -109q-64 0 -64 60q0 18 10 49l-383 -639q-35 8 -57 8q-33 0 -65 -12zM152 43q0 -51 47 -51q92 0 240.5 179.5t148.5 291.5 q0 65 -58 65q-73 0 -245 -235q-133 -182 -133 -250z" />
<glyph unicode="q" horiz-adv-x="592" d="M10 -545l469 752q-4 -6 -39 -51q-133 -179 -215 -179q-52 0 -87.5 46.5t-35.5 113.5q0 161 205 297q163 109 258 109q62 0 62 -60q0 -20 -15 -57l60 109q18 -5 47 -5q22 0 72 7q-95 -160 -322 -531q-121 -202 -281 -469q-17 -26 -51 -82q-33 8 -63 8q-34 0 -64 -8z M178 57q0 -65 58 -65q70 0 237 225q139 188 139 262q0 49 -45 49q-90 0 -239.5 -180t-149.5 -291z" />
<glyph unicode="r" horiz-adv-x="569" d="M127 -14l164 266q123 200 123 248q0 28 -23 28q-56 0 -203 -215q-9 -14 -16 -14q-4 1 -4 6q1 5 4 8l18 25q154 205 209 205q80 0 80 -103q0 -77 -82 -204q52 60 99 98q38 89 94.5 149t101.5 60q31 0 31 -27q0 -48 -139 -137q-22 -14 -66 -41l-12 -10q-14 -46 -14 -76 q0 -84 63 -84q78 0 170 129q20 22 25 22q6 0 6 -6q0 -8 -60 -73q-76 -84 -143 -84q-76 0 -76 88q0 28 12 71q-63 -55 -102.5 -109t-136.5 -220q-53 4 -62 4q-4 0 -61 -4z" />
<glyph unicode="s" horiz-adv-x="399" d="M29 119q0 75 53.5 146t110.5 71q10 0 18 -4l80 98q36 43 96 119q17 70 52 120t69 50q16 0 16 -17q0 -40 -125 -159q-6 -31 -6 -54q0 -58 53 -184q27 -63 27 -106q0 -90 -87.5 -156t-207.5 -66q-68 0 -108.5 38.5t-40.5 103.5zM49 94q0 -40 29 -67t72 -27q84 0 159.5 97.5 t75.5 209.5q0 30 -2 59.5t-2 84.5q0 45 4 75q-56 -71 -162 -200q19 -16 19 -39q0 -59 -97 -80q-39 -9 -67.5 -42.5t-28.5 -70.5z" />
<glyph unicode="t" horiz-adv-x="338" d="M78 96q0 60 53 150l168 282h-102l10 15h100l117 194q30 -8 57 -8q28 0 58 8l-115 -194h131l-8 -15h-131l-223 -381q-41 -69 -41 -110q0 -45 47 -45q91 0 307 317q7 10 12 10q6 0 6 -6q-1 -3 -10 -16l-43 -59q-188 -261 -283 -261q-47 0 -78.5 34t-31.5 85z" />
<glyph unicode="u" horiz-adv-x="641" d="M78 96q0 58 45 133l182 306q34 -7 53 -7t68 7l-238 -392q-36 -60 -36 -106q0 -45 38 -45q101 0 324 377l98 166q31 -7 52 -7q25 0 71 7l-160 -261q-114 -186 -114 -239q0 -43 41 -43q80 0 260 252l31 43l18 22q5 10 10 10q6 0 6 -6q0 -23 -145 -194q-120 -142 -190 -142 q-44 0 -74.5 35.5t-30.5 85.5q0 39 39 109l-20 -27q-92 -118 -135 -158q-47 -45 -89 -45q-44 0 -74 34.5t-30 84.5z" />
<glyph unicode="v" horiz-adv-x="559" d="M78 98q0 59 67 172l158 265q49 -5 66 -5q37 0 59 5l-209 -338q-69 -114 -69 -158q0 -47 53 -47q49 0 100.5 45t147.5 170q-9 30 -9 53q0 91 56 187t108 96q25 0 25 -29q0 -75 -166 -309q21 -45 65 -45q76 0 185 135q20 24 26 24q4 0 4 -4q0 -12 -63 -77q-87 -91 -152 -91 q-44 0 -73 48q-89 -123 -145 -170.5t-113 -47.5q-51 0 -86 35.5t-35 85.5z" />
<glyph unicode="w" horiz-adv-x="868" d="M78 96q0 57 59 158l166 281q40 -7 59 -7q17 0 66 7l-227 -371q-54 -87 -54 -127q0 -45 41 -45q45 0 134.5 100t177.5 250l112 193q54 -5 68 -5q35 0 57 5l-209 -338q-69 -113 -69 -156q0 -49 51 -49q102 0 248 215q-6 37 -6 55q0 89 55.5 185t107.5 96q23 0 23 -31 q0 -84 -164 -307q25 -45 66 -45q75 0 184 135q20 24 27 24q3 0 4 -4q0 -11 -64 -77q-86 -91 -151 -91q-44 0 -74 48q-89 -123 -145 -170.5t-113 -47.5q-51 0 -85 34.5t-34 84.5q0 42 27 101q-150 -220 -236 -220q-43 0 -72.5 35t-29.5 84z" />
<glyph unicode="x" horiz-adv-x="713" d="M94 61q0 52 37 96t80 44q53 0 53 -51q0 -58 -82 -80q-45 -12 -45 -45q0 -31 37 -31q74 0 170 135q152 213 152 338q0 61 -56 61q-95 0 -243 -206q-17 -23 -23 -23q-4 2 -4 6q0 18 99 128t177 110q60 0 99 -41t39 -103q0 -30 -15 -67q138 211 238 211q76 0 76 -82 q0 -49 -33 -91t-72 -42q-49 0 -49 51q0 48 72 70q45 13 45 47q0 32 -41 32q-85 0 -206.5 -171t-121.5 -289q0 -76 72 -76q104 0 321 305q16 22 21 22q6 0 6 -6l-4 -8l-12 -16q-131 -175 -203 -242q-75 -70 -135 -70t-105 46.5t-45 107.5q0 27 15 76q-136 -230 -238 -230 q-32 0 -54 24.5t-22 59.5z" />
<glyph unicode="y" horiz-adv-x="631" d="M-344 -582q0 201 463 416q38 19 114 53l15 9l176 313q-104 -143 -151 -187.5t-95 -44.5q-41 0 -71.5 35t-30.5 82q0 57 71 178l154 260q23 -4 53 -4q26 0 72 7l-197 -320q-84 -136 -84 -178q0 -45 41 -45q108 0 332 383l92 157q23 -4 56 -4q27 0 67 7 q-124 -197 -336 -578q122 63 206 136.5t188 207.5q14 18 18 18q6 0 6 -6q0 -15 -110 -137q-122 -134 -318 -242l-49 -88q-145 -260 -303 -387q-163 -131 -283 -131q-41 0 -68.5 26t-27.5 64zM-330 -584q0 -75 84 -75q106 0 211 115t260 403l13 20q-16 -9 -113 -57 q-455 -226 -455 -406z" />
<glyph unicode="z" horiz-adv-x="571" d="M-369 -567q0 110 160 231q83 63 430 215q68 30 127 64q17 46 17 84q0 75 -80 75q-23 0 -35 -2l-14 -12l-37 -35q-94 -88 -121 -88q-25 0 -25 23q0 64 185 121q279 211 426 329l-21 -14q-56 -39 -102 -39q-33 0 -84 43q-47 39 -78 39q-62 0 -187 -155q-11 -13 -16 -13 q-4 1 -4 6q0 17 92 115q112 119 189 119q31 0 133 -66q35 -22 63 -22q15 0 31 8l12 16l33 41q23 29 45 29q16 0 16 -13q0 -33 -92 -86q-102 -86 -346 -270q-32 -23 -84 -63l29 2h7q44 0 78 -33q37 -36 48 -92q57 32 158 134t151 177q12 18 19 18q3 0 4 -4q0 -20 -109 -141 q-112 -125 -221 -201v-26q0 -111 -79 -237.5t-195 -203.5q-255 -168 -406 -168q-117 0 -117 95zM-356 -571q0 -78 102 -78q143 0 329.5 179.5t266.5 395.5q-25 -13 -285 -135q-193 -89 -303 -185.5t-110 -176.5z" />
<glyph unicode="{" horiz-adv-x="899" d="M344 -49q0 57 38 141.5t155 282.5q81 139 81 178q0 57 -83 57q-15 0 -15 8q0 12 37 17q128 19 189.5 90t150.5 301q64 166 132 250q65 80 169 127q100 45 215 45q39 0 39 -10q0 -12 -37 -15q-165 -12 -243.5 -102t-167.5 -365q-95 -288 -439 -333q4 -1 21 -2 q139 -11 139 -89q0 -76 -133 -305q-127 -218 -127 -280q0 -76 133 -74q59 1 59 -6q0 -19 -51 -19q-133 0 -162 6q-100 18 -100 97z" />
<glyph unicode="|" horiz-adv-x="1024" d="M819 -342v1708h39v-1708h-39z" />
<glyph unicode="}" horiz-adv-x="899" d="M-53 -139q0 13 63 12q136 -1 210 68t173 284q114 248 190 317.5t242 80.5q-180 29 -180 139q0 60 90 194q59 86 117 173q84 133 84 192q0 105 -131 102q-25 0 -25 9q0 16 51 16q211 0 211 -139q0 -49 -30 -107.5t-181 -300.5q-86 -138 -86 -184q0 -34 31 -58.5t72 -23.5 q22 1 22 -10t-26 -15q-101 -13 -144 -54t-104 -179q-102 -228 -141 -293q-105 -175 -232 -215q-65 -21 -243 -21q-33 0 -33 13z" />
<glyph unicode="~" horiz-adv-x="1366" d="M664 1257q112 191 254 191q79 0 243 -90q150 -82 219 -82q120 0 224 174l32 -20q-109 -191 -254 -191q-76 0 -282 111q-115 61 -187 61q-114 0 -215 -176z" />
<glyph unicode="&#xa1;" horiz-adv-x="588" d="M178 47q0 43 104 192q63 85 126 171q247 340 331 508q7 12 15 12t8 -8q0 -5 -12 -23q-94 -137 -330 -676q-58 -133 -98 -184t-84 -51q-60 0 -60 59zM758 1030q0 45 41 86t84 41t43 -45q0 -41 -43 -82t-86 -41q-39 0 -39 41z" />
<glyph unicode="&#xa2;" d="M434 -84q0 8 10 21l174 290q-110 46 -110 160q0 124 135 245.5t289 135.5l133 227q11 19 18 19q11 0 11 -8q0 -9 -7 -19l-135 -221q86 -16 86 -92q0 -69 -62.5 -123.5t-141.5 -54.5q-78 0 -78 71q0 33 14 33q4 -1 4 -6l-2 -6l-2 -19q0 -53 51 -53q53 0 114.5 67t61.5 124 q0 47 -53 47q-93 0 -224.5 -160.5t-131.5 -274.5q0 -86 84 -86q131 0 264 201q6 11 10 12q8 0 8 -8q0 -11 -37 -59t-69 -78q-87 -82 -180 -82q-17 0 -33 4l-176 -305q-9 -12 -15 -12q-10 0 -10 10z" />
<glyph unicode="&#xa3;" d="M121 61q3 62 155 62q87 0 201 -41q51 41 209 295h-205l17 18h198q175 295 273 400q127 135 198 135q29 0 29 -25q0 -151 -319 -360q-38 -81 -80 -150h202l-16 -18h-197q-159 -241 -294 -301q217 -76 317 -76q85 0 145 55q4 4 9 4q2 -1 4 -4q0 -18 -60.5 -60t-136.5 -42 q-155 0 -354 80q-84 -33 -160 -33q-139 0 -135 61zM131 61q0 -49 129 -49q67 0 143 29q-116 53 -192 53q-80 0 -80 -33zM887 567q119 81 202 169q95 102 95 169q0 17 -17 17q-42 0 -133 -105q-29 -33 -147 -250z" />
<glyph unicode="&#xa4;" horiz-adv-x="1040" d="M266 170l234 172q-31 48 -31 120q0 52 18 101q49 133 175 225l-121 185l24 18l121 -186q121 80 246 80q123 0 190 -76l236 172l20 -23l-237 -174q28 -47 28 -112q0 -54 -20 -111q-49 -136 -168 -221l119 -186l-29 -21l-117 186q-122 -77 -239 -77q-124 0 -195 77 l-237 -174zM508 466q0 -85 57 -138.5t154 -53.5q124 0 234.5 82.5t156.5 206.5q22 59 22 110q0 84 -54.5 132.5t-151.5 48.5q-122 0 -239 -85.5t-161 -205.5q-18 -50 -18 -97z" />
<glyph unicode="&#xa5;" d="M418 -41l272 481h-235l10 19h235q25 47 64 112h-272l10 19h272q162 297 162 375q0 84 -129 84t-231.5 -80.5t-102.5 -180.5q0 -88 105 -88q46 0 101 31t87 76q3 5 8 6q4 -1 4 -6q0 -7 -37 -43q-77 -76 -168 -76q-58 0 -94.5 32t-36.5 83q0 97 112 177.5t247 80.5 q174 0 174 -148q0 -129 -109 -364l-12 -27q366 547 604 547q17 0 17 -10q0 -13 -45 -15q-197 -7 -506 -454h264l-12 -19h-265q-31 -46 -75 -112h315l-12 -19h-316q-96 -152 -268 -481q-40 12 -68 12q-32 0 -69 -12z" />
<glyph unicode="&#xa6;" horiz-adv-x="1024" d="M819 313h39v-655h-39v655zM819 711v655h39v-655h-39z" />
<glyph unicode="&#xa7;" d="M238 -14q0 10 10 10q7 0 59 -37q90 -63 193 -63q107 0 190.5 80t83.5 182q0 60 -22 147q-78 301 -78 443q0 244 128 405.5t322 161.5q69 0 161.5 -37.5t92.5 -65.5q0 -8 -8 -8t-33 19q-85 63 -176 63q-107 0 -179.5 -69t-72.5 -170q0 -57 66 -308q39 -148 39 -295 q0 -238 -142 -406.5t-344 -168.5q-83 0 -186.5 41.5t-103.5 75.5zM653 -80q275 105 275 445q0 103 -42 302.5t-42 299.5q0 217 198 313q-282 -98 -282 -432q0 -125 49 -367q33 -161 33 -248q0 -189 -189 -313z" />
<glyph unicode="&#xa8;" horiz-adv-x="1024" d="M717 688q0 34 29.5 62t64.5 28q43 0 43 -41q0 -37 -27 -66.5t-61 -29.5q-49 0 -49 47zM887 686q0 34 29.5 63t64.5 29q43 0 43 -41q0 -37 -27 -66.5t-61 -29.5q-49 0 -49 45z" />
<glyph unicode="&#xa9;" horiz-adv-x="1573" d="M410 578q0 308 228 533.5t540 225.5q264 0 446 -184.5t182 -450.5q0 -307 -226 -533t-531 -226q-271 0 -455 183t-184 452zM436 582q0 -260 177.5 -437.5t437.5 -177.5q293 0 511 218.5t218 512.5q0 264 -178 439.5t-445 175.5q-287 0 -504 -220t-217 -511zM686 502 q0 117 85 235t226 197q199 110 363 110q74 0 119 -40t45 -107q0 -101 -84.5 -181.5t-190.5 -80.5q-46 0 -78 21.5t-32 52.5q0 10 6 10q4 -1 4 -6q7 -51 63 -51q94 0 184.5 90t90.5 182t-103 92q-150 0 -364 -168q-118 -93 -186 -207t-68 -219q0 -186 205 -186q203 0 393 276 q20 29 27 29q5 0 6 -6q0 -32 -109 -148q-159 -170 -319 -170q-117 0 -200 80.5t-83 194.5z" />
<glyph unicode="&#xaa;" horiz-adv-x="705" d="M616 1026q0 133 191 238q82 45 133 45q43 0 43 -41q0 -17 -4 -31l35 68q21 -7 37 -7q18 0 49 7l-123 -205q-62 -103 -62 -137q0 -33 25 -33q66 0 215 217q2 4 8 8q7 0 8 -6q0 -16 -100 -135q-84 -101 -137 -101q-74 0 -74 86q0 37 25 80q-122 -166 -180 -166 q-38 0 -63.5 32t-25.5 81zM670 977q0 -47 39 -47q45 0 161 155q99 132 99 181q0 26 -27 26q-65 0 -168.5 -119.5t-103.5 -195.5z" />
<glyph unicode="&#xab;" horiz-adv-x="733" d="M207 238q165 28 407 198q4 4 9 4l2 -2q0 -9 -107 -90q-102 -78 -205 -123l146 -119q-1 -3 -4 -4q-5 0 -64 33q-69 38 -184 103zM430 238q165 28 408 198q3 4 8 4l2 -2q0 -9 -107 -90q-102 -78 -204 -123l145 -119q-1 -3 -4 -4q-5 0 -64 33q-69 38 -184 103z" />
<glyph unicode="&#xac;" horiz-adv-x="1231" d="M432 510l19 37h886l-266 -547h-39l248 510h-848z" />
<glyph unicode="&#xad;" horiz-adv-x="1071" d="M365 528q3 19 61 19h840q38 0 34 -19q-3 -18 -61 -18h-844q-34 0 -30 18z" />
<glyph unicode="&#xae;" horiz-adv-x="1573" d="M410 578q0 308 228 533.5t540 225.5q264 0 446 -184.5t182 -450.5q0 -307 -226 -533t-531 -226q-271 0 -455 183t-184 452zM436 582q0 -260 177.5 -437.5t437.5 -177.5q293 0 511 218.5t218 512.5q0 264 -178 439.5t-445 175.5q-287 0 -504 -220t-217 -511zM571 377 q0 38 23.5 65t56.5 27q51 0 51 -55q0 -58 -51 -58q-47 0 -47 41q0 11 8 33q2 2 2 6q-1 4 -4 4q-9 0 -18.5 -21.5t-9.5 -41.5q0 -54 50.5 -93.5t119.5 -39.5q84 0 155 86q42 50 152 295q99 220 332 370q-88 68 -207 68q-174 0 -321.5 -117.5t-147.5 -255.5q0 -117 135 -117 q46 0 90 17q16 6 18 6q6 0 7 -4q0 -9 -41 -19t-78 -10q-71 0 -114.5 39t-43.5 103q0 150 141.5 262t331.5 112q134 0 256 -65q119 59 162 59q14 0 14 -6q0 -5 -28 -8q-52 -6 -135 -53q106 -67 106 -172q0 -143 -207 -172q86 -47 86 -132q0 -30 -20 -114q-23 -93 -23 -119 q0 -78 74 -78q53 0 90 47q8 8 10 8q4 0 4 -6q-3 -17 -42 -38t-66 -21q-55 0 -95 50t-40 118q0 42 28 131q21 64 21 96q0 34 -37 53q-49 -4 -66 -4q-47 0 -47 13q0 10 35 10q41 0 78 -12q147 45 147 196q0 79 -63 125q-159 -119 -242 -350q-89 -248 -213 -336 q-96 -68 -194 -68q-76 0 -129.5 43t-53.5 103z" />
<glyph unicode="&#xb0;" d="M823 1096q0 74 53 125t130 51q73 0 125.5 -52t52.5 -124t-53.5 -124t-126.5 -52q-74 0 -127.5 52t-53.5 124zM856 1096q0 -62 43 -105t105 -43q59 0 103 44t44 104q0 61 -43.5 104t-106.5 43q-59 0 -102 -43.5t-43 -103.5z" />
<glyph unicode="&#xb1;" horiz-adv-x="1071" d="M193 18q3 19 61 19h840q38 0 34 -19q-3 -18 -61 -18h-844q-34 0 -30 18zM365 528q3 19 61 19h399l166 356q24 51 39 45q20 -7 0 -49q-55 -118 -166 -352h402q38 0 34 -19q-3 -18 -61 -18h-391l-168 -360q-20 -43 -33 -43q-3 0 -6 2q-18 7 2 49l166 352h-414q-34 0 -30 18 z" />
<glyph unicode="&#xb2;" horiz-adv-x="651" d="M371 520q0 28 49 78q65 67 256 154q149 67 237 158.5t88 179.5q0 79 -102 79q-107 0 -231.5 -106.5t-124.5 -198.5q0 -63 80 -63q66 0 144 60t112 136q2 9 8 9t6 -7q0 -28 -53 -88q-111 -123 -215 -123q-107 0 -107 103q0 106 121.5 198.5t261.5 92.5q74 0 121 -38 t47 -97q0 -109 -131 -195q-66 -43 -256 -117q-164 -63 -254 -145q44 33 102 33q53 0 136 -27q76 -25 106 -25q116 0 156 142q3 10 8 10q6 0 6 -6q0 -33 -43 -92q-77 -107 -190 -107q-44 0 -183 45q-37 12 -67 12q-64 0 -70 -47q0 -16 -10 -16q-8 0 -8 8z" />
<glyph unicode="&#xb3;" horiz-adv-x="651" d="M385 645q0 55 55.5 93t134.5 38q60 0 60 -10q0 -6 -8 -6l-17 2h-20q-69 0 -115.5 -35.5t-46.5 -87.5q0 -44 36 -71t93 -27q109 0 202 77t93 166q0 73 -92 101q-38 -8 -86 -8h-12q-23 0 -23 10q0 14 47 14q34 0 74 -6q198 70 198 209q0 74 -94 74q-84 0 -169 -57t-85 -113 q0 -52 68 -52q92 0 176 111q3 6 10 6q4 -1 4 -4q0 -24 -67 -75.5t-127 -51.5q-84 0 -84 78q0 66 83 118t189 52q74 0 119 -31.5t45 -83.5q0 -142 -244 -186q142 -33 142 -146q0 -86 -103 -151.5t-239 -65.5q-85 0 -141 33.5t-56 85.5z" />
<glyph unicode="&#xb4;" horiz-adv-x="1024" d="M774 657q0 3 12 9q234 111 334 241l41 -63q-97 -76 -248 -139q-116 -50 -133 -50q-4 0 -6 2z" />
<glyph unicode="&#xb6;" horiz-adv-x="1694" d="M233 254q0 58 34.5 149t56.5 91q6 -3 6 -9q0 -3 -8 -16q-70 -112 -70 -215q0 -127 86.5 -203t232.5 -76q187 0 336.5 112.5t315.5 379.5q188 302 309 455.5t264 269.5q-115 53 -217 53q-190 0 -321.5 -132t-131.5 -325q0 -190 99 -190q25 0 45 14q0 2 2 2q4 -1 4 -4 q0 -12 -40 -24.5t-79 -12.5q-132 0 -229 89t-97 210q0 170 192 288t468 118q174 0 321 -74q186 131 359 131q129 0 211 -80.5t82 -207.5q0 -57 -10 -107.5t-21 -50.5q-6 2 -6 8q0 19 9 68t9 77q0 123 -76 199t-200 76q-199 0 -387 -166q-106 -93 -183 -215.5t-225 -431.5 q-145 -303 -432 -445q-203 -100 -367 -100q-156 0 -249 80t-93 215z" />
<glyph unicode="&#xb8;" horiz-adv-x="1024" d="M281 -84q0 6 6 6q4 0 16 -8q57 -39 111 -39q29 0 50 18t21 41q0 31 -41 78l17 -4q84 -58 84 -108q0 -74 -86 -74q-40 0 -109 35t-69 55z" />
<glyph unicode="&#xb9;" horiz-adv-x="651" d="M539 743q0 6 26 19q151 75 447 393q5 8 10 8q4 -1 4 -6q0 -6 -137 -215q-182 -278 -217 -410q-28 7 -45 7q-26 0 -70 -9q43 119 258 373q90 107 146 182q-139 -146 -259 -247t-155 -101q-7 0 -8 6z" />
<glyph unicode="&#xba;" horiz-adv-x="705" d="M653 1032q0 116 142 217q83 60 170 60q61 0 61 -64q0 -88 -74 -192q-98 -140 -190 -140q-45 0 -77 33.5t-32 85.5zM719 975q0 -45 45 -45q84 0 172 129q74 108 74 184q0 53 -47 53q-63 0 -153.5 -119t-90.5 -202z" />
<glyph unicode="&#xbb;" horiz-adv-x="733" d="M113 88q0 17 128 92.5t189 93.5q-92 82 -151 127q-5 5 -5 7q4 1 81 -42t188 -104q-177 -33 -408 -166q-17 -10 -20 -10zM336 88q0 17 128 92.5t189 93.5q-92 82 -151 127q-4 5 -4 7q3 1 80 -42t188 -104q-177 -33 -408 -166q-17 -10 -20 -10z" />
<glyph unicode="&#xbc;" horiz-adv-x="622" d="M284 684q0 21 119 49q130 75 319 264q256 256 414 256q70 0 70 -20q0 -8 -9 -8q-1 0 -20 6q-25 4 -39 4q-161 0 -408 -250q-188 -191 -292 -248q69 15 168 15q40 0 69 -4q22 32 144 200q97 131 120 178q3 8 9 9q6 0 6 -6q0 -2 -2 -5l-7 -12l-16 -31l-29 -49 q-13 -25 -41 -76q-65 -116 -114 -213h57q150 0 150 95q0 13 -9 32q-2 2 -2 7q0 6 7 6q16 0 16 -45q0 -123 -234 -123q-54 -119 -63 -182q-31 6 -47 6q-20 0 -66 -6q28 74 99 182q-17 2 -60 6q-67 6 -106 6q-27 0 -74 -4q-75 -47 -117 -47q-12 0 -12 8z" />
<glyph unicode="&#xbd;" horiz-adv-x="1332" d="M298 -74q178 213 425 488q337 377 383 430q52 63 140 166l62 78q57 67 74 67q11 0 11 -10q0 -58 -48 -99q-40 -35 -93 -46q-47 -53 -139 -160q-444 -529 -704 -922q-27 12 -59 12q-29 0 -52 -4zM519 743q0 6 26 19q151 75 447 393q5 8 10 8q4 -1 4 -6q0 -6 -137 -215 q-182 -278 -217 -410q-28 7 -45 7q-26 0 -70 -9q43 119 258 373q90 107 146 182q-139 -146 -259 -247t-155 -101q-7 0 -8 6zM761 -20q0 28 49 78q65 67 256 154q149 67 237 158.5t88 179.5q0 79 -102 79q-107 0 -231.5 -106.5t-124.5 -198.5q0 -63 80 -63q66 0 144 60 t112 136q2 9 8 9t6 -7q0 -28 -53 -88q-111 -123 -215 -123q-107 0 -107 103q0 106 121.5 198.5t261.5 92.5q74 0 121 -38t47 -97q0 -109 -131 -195q-66 -43 -256 -117q-164 -63 -254 -145q44 33 102 33q53 0 136 -27q76 -25 106 -25q116 0 156 142q3 10 8 10q6 0 6 -6 q0 -33 -43 -92q-77 -107 -190 -107q-44 0 -183 45q-37 12 -67 12q-64 0 -70 -47q0 -16 -10 -16q-8 0 -8 8z" />
<glyph unicode="&#xbe;" horiz-adv-x="1349" d="M395 645q0 55 55.5 93t134.5 38q60 0 60 -10q0 -6 -8 -6l-17 2h-20q-69 0 -115.5 -35.5t-46.5 -87.5q0 -44 36 -71t93 -27q109 0 202 77t93 166q0 73 -92 101q-38 -8 -86 -8h-12q-23 0 -23 10q0 14 47 14q34 0 74 -6q198 70 198 209q0 74 -94 74q-84 0 -169 -57t-85 -113 q0 -52 68 -52q92 0 176 111q3 6 10 6q4 -1 4 -4q0 -24 -67 -75.5t-127 -51.5q-84 0 -84 78q0 66 83 118t189 52q74 0 119 -31.5t45 -83.5q0 -142 -244 -186q142 -33 142 -146q0 -86 -103 -151.5t-239 -65.5q-85 0 -141 33.5t-56 85.5zM414 -74q178 213 425 488 q337 377 383 430q52 63 140 166l62 78q57 67 74 67q11 0 11 -10q0 -58 -48 -99q-40 -35 -93 -46q-47 -53 -139 -160q-444 -529 -704 -922q-27 12 -59 12q-29 0 -52 -4zM772 150q0 21 119 49q130 75 319 264q256 256 414 256q70 0 70 -20q0 -8 -9 -8q-1 0 -20 6q-25 4 -39 4 q-161 0 -408 -250q-188 -191 -292 -248q69 15 168 15q40 0 69 -4q22 32 144 200q97 131 120 178q3 8 9 9q6 0 6 -6q0 -2 -2 -5l-7 -12l-16 -31l-29 -49q-13 -25 -41 -76q-65 -116 -114 -213h57q150 0 150 95q0 13 -9 32q-2 2 -2 7q0 6 7 6q16 0 16 -45q0 -123 -234 -123 q-54 -119 -63 -182q-31 6 -47 6q-20 0 -66 -6q28 74 99 182q-17 2 -60 6q-67 6 -106 6q-27 0 -74 -4q-75 -47 -117 -47q-12 0 -12 8z" />
<glyph unicode="&#xbf;" horiz-adv-x="893" d="M160 258q0 158 190 279q68 43 336 145q277 106 277 217q0 51 -56 51q-87 0 -170 -119q-3 -6 -8 -6q-4 1 -4 4q0 18 57 72q68 64 129 64q66 0 66 -64q0 -52 -66 -113q-35 -32 -227 -139q-422 -234 -422 -463q0 -168 199 -184q-10 36 -10 74q0 177 141.5 337t298.5 160 q66 0 108.5 -42t42.5 -105q0 -164 -175 -299.5t-390 -136.5q51 -123 170 -123q39 0 78 14q8 4 10 4q6 -2 6 -6q0 -8 -33 -17t-61 -9q-128 0 -184 137q-134 9 -218.5 84t-84.5 184zM463 74q0 -36 10 -74q203 0 377 166q162 154 162 285q0 108 -121 108q-143 0 -285.5 -161.5 t-142.5 -323.5zM942 1044q0 45 41 86t84 41t43 -45q0 -40 -43 -81t-84 -41t-41 40z" />
<glyph unicode="&#xc0;" horiz-adv-x="1860" d="M178 217q0 55 33.5 94t81.5 39q65 0 65 -63q0 -33 -22.5 -56.5t-52.5 -23.5q-47 0 -47 45l2 20q2 4 2 11q0 10 -9 10q-10 0 -20 -25t-10 -51q0 -98 103 -165.5t253 -67.5q215 0 473 211q59 47 131 124q143 150 228 234l30 31h-194l12 18q96 0 197 -2q293 326 568.5 476.5 t582.5 152.5q71 14 133 14q139 0 139 -45q0 -18 -21 -18q-9 0 -67 12q-107 22 -178 22q-161 -49 -284.5 -190t-281.5 -457q-242 -485 -620 -573q79 -12 137 -12q184 0 309 118q121 114 201 242q9 14 14 14q6 0 7 -4q0 -15 -115 -155q-107 -131 -195 -180.5t-215 -49.5 q-73 0 -178 21q-64 -21 -147 -21q-58 0 -58 21q0 24 78 24q55 0 127 -10q155 37 234.5 122t306.5 460h-385q-245 -258 -379 -367q-313 -254 -590 -254q-158 0 -268.5 74t-110.5 180zM690 838q0 211 203.5 391t441.5 180q105 0 164.5 -52t59.5 -143q0 -68 -48 -161 q-43 -85 -43 -115q0 -74 88 -74q100 0 207 148q9 12 15 12q8 0 8 -8q0 -11 -37 -53q-102 -117 -193 -117q-58 0 -94.5 40.5t-36.5 106.5q0 56 66 181q31 58 31 96q0 50 -55.5 85.5t-135.5 35.5q-229 0 -424.5 -176t-195.5 -381q0 -104 65.5 -170t169.5 -66q113 0 227.5 82.5 t161.5 198.5q3 10 8 10q9 0 9 -10q0 -21 -35 -74.5t-72 -89.5q-135 -133 -303 -133q-114 0 -183 70t-69 186zM1542 600h379q128 223 309 400q178 176 310 210q-261 -13 -484 -150t-514 -460zM2421 1673l86 60q-17 -49 -17 -97q0 -104 56 -178q7 -7 8 -12q-1 -4 -6 -4 q-25 0 -65.5 74t-61.5 157z" />
<glyph unicode="&#xc1;" horiz-adv-x="1860" d="M178 217q0 55 33.5 94t81.5 39q65 0 65 -63q0 -33 -22.5 -56.5t-52.5 -23.5q-47 0 -47 45l2 20q2 4 2 11q0 10 -9 10q-10 0 -20 -25t-10 -51q0 -98 103 -165.5t253 -67.5q215 0 473 211q59 47 131 124q143 150 228 234l30 31h-194l12 18q96 0 197 -2q293 326 568.5 476.5 t582.5 152.5q71 14 133 14q139 0 139 -45q0 -18 -21 -18q-9 0 -67 12q-107 22 -178 22q-161 -49 -284.5 -190t-281.5 -457q-242 -485 -620 -573q79 -12 137 -12q184 0 309 118q121 114 201 242q9 14 14 14q6 0 7 -4q0 -15 -115 -155q-107 -131 -195 -180.5t-215 -49.5 q-73 0 -178 21q-64 -21 -147 -21q-58 0 -58 21q0 24 78 24q55 0 127 -10q155 37 234.5 122t306.5 460h-385q-245 -258 -379 -367q-313 -254 -590 -254q-158 0 -268.5 74t-110.5 180zM690 838q0 211 203.5 391t441.5 180q105 0 164.5 -52t59.5 -143q0 -68 -48 -161 q-43 -85 -43 -115q0 -74 88 -74q100 0 207 148q9 12 15 12q8 0 8 -8q0 -11 -37 -53q-102 -117 -193 -117q-58 0 -94.5 40.5t-36.5 106.5q0 56 66 181q31 58 31 96q0 50 -55.5 85.5t-135.5 35.5q-229 0 -424.5 -176t-195.5 -381q0 -104 65.5 -170t169.5 -66q113 0 227.5 82.5 t161.5 198.5q3 10 8 10q9 0 9 -10q0 -21 -35 -74.5t-72 -89.5q-135 -133 -303 -133q-114 0 -183 70t-69 186zM1542 600h379q128 223 309 400q178 176 310 210q-261 -13 -484 -150t-514 -460zM2508 1478q0 3 12 9q234 111 334 241l41 -63q-97 -76 -248 -139 q-116 -50 -133 -50q-4 0 -6 2z" />
<glyph unicode="&#xc2;" horiz-adv-x="1860" d="M178 217q0 55 33.5 94t81.5 39q65 0 65 -63q0 -33 -22.5 -56.5t-52.5 -23.5q-47 0 -47 45l2 20q2 4 2 11q0 10 -9 10q-10 0 -20 -25t-10 -51q0 -98 103 -165.5t253 -67.5q215 0 473 211q59 47 131 124q143 150 228 234l30 31h-194l12 18q96 0 197 -2q293 326 568.5 476.5 t582.5 152.5q71 14 133 14q139 0 139 -45q0 -18 -21 -18q-9 0 -67 12q-107 22 -178 22q-161 -49 -284.5 -190t-281.5 -457q-242 -485 -620 -573q79 -12 137 -12q184 0 309 118q121 114 201 242q9 14 14 14q6 0 7 -4q0 -15 -115 -155q-107 -131 -195 -180.5t-215 -49.5 q-73 0 -178 21q-64 -21 -147 -21q-58 0 -58 21q0 24 78 24q55 0 127 -10q155 37 234.5 122t306.5 460h-385q-245 -258 -379 -367q-313 -254 -590 -254q-158 0 -268.5 74t-110.5 180zM690 838q0 211 203.5 391t441.5 180q105 0 164.5 -52t59.5 -143q0 -68 -48 -161 q-43 -85 -43 -115q0 -74 88 -74q100 0 207 148q9 12 15 12q8 0 8 -8q0 -11 -37 -53q-102 -117 -193 -117q-58 0 -94.5 40.5t-36.5 106.5q0 56 66 181q31 58 31 96q0 50 -55.5 85.5t-135.5 35.5q-229 0 -424.5 -176t-195.5 -381q0 -104 65.5 -170t169.5 -66q113 0 227.5 82.5 t161.5 198.5q3 10 8 10q9 0 9 -10q0 -21 -35 -74.5t-72 -89.5q-135 -133 -303 -133q-114 0 -183 70t-69 186zM1542 600h379q128 223 309 400q178 176 310 210q-261 -13 -484 -150t-514 -460zM2298 1482q1 3 14 8q110 46 222 118t155 124q-11 -126 -17 -244q0 -7 -4 -8 q-4 0 -6 23q-7 85 -22 123q-64 -42 -184 -95t-152 -53q-6 0 -6 4z" />
<glyph unicode="&#xc3;" horiz-adv-x="1860" d="M178 217q0 55 33.5 94t81.5 39q65 0 65 -63q0 -33 -22.5 -56.5t-52.5 -23.5q-47 0 -47 45l2 20q2 4 2 11q0 10 -9 10q-10 0 -20 -25t-10 -51q0 -98 103 -165.5t253 -67.5q215 0 473 211q59 47 131 124q143 150 228 234l30 31h-194l12 18q96 0 197 -2q293 326 568.5 476.5 t582.5 152.5q71 14 133 14q139 0 139 -45q0 -18 -21 -18q-9 0 -67 12q-107 22 -178 22q-161 -49 -284.5 -190t-281.5 -457q-242 -485 -620 -573q79 -12 137 -12q184 0 309 118q121 114 201 242q9 14 14 14q6 0 7 -4q0 -15 -115 -155q-107 -131 -195 -180.5t-215 -49.5 q-73 0 -178 21q-64 -21 -147 -21q-58 0 -58 21q0 24 78 24q55 0 127 -10q155 37 234.5 122t306.5 460h-385q-245 -258 -379 -367q-313 -254 -590 -254q-158 0 -268.5 74t-110.5 180zM690 838q0 211 203.5 391t441.5 180q105 0 164.5 -52t59.5 -143q0 -68 -48 -161 q-43 -85 -43 -115q0 -74 88 -74q100 0 207 148q9 12 15 12q8 0 8 -8q0 -11 -37 -53q-102 -117 -193 -117q-58 0 -94.5 40.5t-36.5 106.5q0 56 66 181q31 58 31 96q0 50 -55.5 85.5t-135.5 35.5q-229 0 -424.5 -176t-195.5 -381q0 -104 65.5 -170t169.5 -66q113 0 227.5 82.5 t161.5 198.5q3 10 8 10q9 0 9 -10q0 -21 -35 -74.5t-72 -89.5q-135 -133 -303 -133q-114 0 -183 70t-69 186zM1542 600h379q128 223 309 400q178 176 310 210q-261 -13 -484 -150t-514 -460zM2344 1514q0 14 55.5 40t85.5 26q34 0 121 -21l46 -11q43 -9 65 -9q33 0 59 14 q8 4 10 4q4 -1 4 -4q0 -14 -55.5 -39.5t-83.5 -25.5q-32 0 -88 14l-20 5q-95 24 -123 24q-23 0 -56 -15q-10 -6 -14 -6q-6 0 -6 4z" />
<glyph unicode="&#xc4;" horiz-adv-x="1860" d="M178 217q0 55 33.5 94t81.5 39q65 0 65 -63q0 -33 -22.5 -56.5t-52.5 -23.5q-47 0 -47 45l2 20q2 4 2 11q0 10 -9 10q-10 0 -20 -25t-10 -51q0 -98 103 -165.5t253 -67.5q215 0 473 211q59 47 131 124q143 150 228 234l30 31h-194l12 18q96 0 197 -2q293 326 568.5 476.5 t582.5 152.5q71 14 133 14q139 0 139 -45q0 -18 -21 -18q-9 0 -67 12q-107 22 -178 22q-161 -49 -284.5 -190t-281.5 -457q-242 -485 -620 -573q79 -12 137 -12q184 0 309 118q121 114 201 242q9 14 14 14q6 0 7 -4q0 -15 -115 -155q-107 -131 -195 -180.5t-215 -49.5 q-73 0 -178 21q-64 -21 -147 -21q-58 0 -58 21q0 24 78 24q55 0 127 -10q155 37 234.5 122t306.5 460h-385q-245 -258 -379 -367q-313 -254 -590 -254q-158 0 -268.5 74t-110.5 180zM690 838q0 211 203.5 391t441.5 180q105 0 164.5 -52t59.5 -143q0 -68 -48 -161 q-43 -85 -43 -115q0 -74 88 -74q100 0 207 148q9 12 15 12q8 0 8 -8q0 -11 -37 -53q-102 -117 -193 -117q-58 0 -94.5 40.5t-36.5 106.5q0 56 66 181q31 58 31 96q0 50 -55.5 85.5t-135.5 35.5q-229 0 -424.5 -176t-195.5 -381q0 -104 65.5 -170t169.5 -66q113 0 227.5 82.5 t161.5 198.5q3 10 8 10q9 0 9 -10q0 -21 -35 -74.5t-72 -89.5q-135 -133 -303 -133q-114 0 -183 70t-69 186zM1542 600h379q128 223 309 400q178 176 310 210q-261 -13 -484 -150t-514 -460zM2403 1516q0 34 29.5 62t64.5 28q43 0 43 -41q0 -37 -27 -66.5t-61 -29.5 q-49 0 -49 47zM2573 1514q0 34 29.5 63t64.5 29q43 0 43 -41q0 -37 -27 -66.5t-61 -29.5q-49 0 -49 45z" />
<glyph unicode="&#xc5;" horiz-adv-x="1860" d="M178 217q0 55 33.5 94t81.5 39q65 0 65 -63q0 -33 -22.5 -56.5t-52.5 -23.5q-47 0 -47 45l2 20q2 4 2 11q0 10 -9 10q-10 0 -20 -25t-10 -51q0 -98 103 -165.5t253 -67.5q215 0 473 211q59 47 131 124q143 150 228 234l30 31h-194l12 18q96 0 197 -2q293 326 568.5 476.5 t582.5 152.5q71 14 133 14q139 0 139 -45q0 -18 -21 -18q-9 0 -67 12q-107 22 -178 22q-161 -49 -284.5 -190t-281.5 -457q-242 -485 -620 -573q79 -12 137 -12q184 0 309 118q121 114 201 242q9 14 14 14q6 0 7 -4q0 -15 -115 -155q-107 -131 -195 -180.5t-215 -49.5 q-73 0 -178 21q-64 -21 -147 -21q-58 0 -58 21q0 24 78 24q55 0 127 -10q155 37 234.5 122t306.5 460h-385q-245 -258 -379 -367q-313 -254 -590 -254q-158 0 -268.5 74t-110.5 180zM690 838q0 211 203.5 391t441.5 180q105 0 164.5 -52t59.5 -143q0 -68 -48 -161 q-43 -85 -43 -115q0 -74 88 -74q100 0 207 148q9 12 15 12q8 0 8 -8q0 -11 -37 -53q-102 -117 -193 -117q-58 0 -94.5 40.5t-36.5 106.5q0 56 66 181q31 58 31 96q0 50 -55.5 85.5t-135.5 35.5q-229 0 -424.5 -176t-195.5 -381q0 -104 65.5 -170t169.5 -66q113 0 227.5 82.5 t161.5 198.5q3 10 8 10q9 0 9 -10q0 -21 -35 -74.5t-72 -89.5q-135 -133 -303 -133q-114 0 -183 70t-69 186zM1542 600h379q128 223 309 400q178 176 310 210q-261 -13 -484 -150t-514 -460zM2521 1431q0 60 52 114t110 54q53 0 53 -55q0 -60 -50.5 -115t-107.5 -55t-57 57z M2544 1425q0 -33 28 -33q42 0 93 55.5t51 100.5q0 33 -31 33q-40 0 -90.5 -55.5t-50.5 -100.5z" />
<glyph unicode="&#xc6;" horiz-adv-x="2644" d="M178 219q0 55 33.5 94t81.5 39q65 0 65 -63q0 -32 -22 -55t-53 -23q-47 0 -47 45q0 14 2 19t2 12q0 10 -9 10q-10 0 -20 -25t-10 -51q0 -100 101.5 -168.5t248.5 -68.5q253 0 528 254q100 92 338 346q-117 0 -194 -2l14 20q94 0 197 -2q293 335 479 467.5t364 132.5 q46 0 129 -18q140 63 312 63q135 0 231 -36.5t96 -88.5q0 -67 -123 -67q-90 0 -286 47q-20 4 -131 33q-31 8 -41 12q-170 -98 -170 -244q0 -73 49 -100q64 6 100 6q111 0 111 -25q0 -16 -47 -16q-87 0 -160 22q-95 -13 -217.5 -67.5t-208.5 -120.5h174l-10 -16h-184 q-189 -159 -189 -344q0 -191 207 -244q-37 59 -37 139q0 200 200.5 365.5t442.5 165.5q108 0 173 -54t65 -143q0 -197 -214 -353.5t-483 -156.5q-54 0 -100 6q88 -129 287 -129q111 0 188 35l13 2q6 -2 6 -8q0 -14 -73.5 -29.5t-135.5 -15.5q-215 0 -320 151 q-148 29 -236.5 114t-88.5 198q0 155 157 301h-237q-302 -329 -529 -474t-436 -145q-161 0 -272 74t-111 180zM657 836q0 213 203 393t445 180q104 0 163.5 -52t59.5 -143q0 -72 -47 -161q-45 -85 -45 -115q0 -74 88 -74q98 0 207 148q6 12 14 12t8 -8q0 -10 -37 -53 q-99 -117 -192 -117q-59 0 -95 40.5t-36 106.5q0 60 67 181q31 54 31 96q0 50 -55.5 85.5t-135.5 35.5q-230 0 -426 -176t-196 -381q0 -105 66 -170.5t169 -65.5q115 0 229.5 82.5t162.5 198.5q2 10 8 10q8 0 8 -10q0 -22 -34.5 -75t-72.5 -89q-137 -133 -305 -133 q-112 0 -182 70.5t-70 183.5zM1542 600h242q192 154 538 199q-110 45 -110 147q0 134 172 225q-74 13 -105 13q-146 0 -285 -110t-452 -474zM1919 96q0 -55 33 -108q51 -11 102 -11q240 0 465 163.5t225 336.5q0 73 -57 119.5t-145 46.5q-215 0 -419 -179t-204 -368z M2486 1157q270 -86 443 -86q96 0 96 51q0 39 -82.5 69t-189.5 30q-143 0 -267 -64z" />
<glyph unicode="&#xc7;" horiz-adv-x="1632" d="M358 1053q0 156 161 261t401 105q335 0 677 -223q59 12 121 12q199 0 199 -98q0 -65 -90 -135q82 -121 82 -223q0 -25 -15 -25q-12 0 -12 33q0 100 -70 203q-145 -108 -394.5 -186.5t-442.5 -78.5q-27 0 -47 2q-160 -223 -160 -430q0 -141 87.5 -223t238.5 -82 q285 0 508 273q135 165 135 313q0 78 -47 124t-125 46q-125 0 -268.5 -131.5t-143.5 -245.5q0 -10 6 -10q5 1 8 4q27 24 50 24q51 0 51 -55q0 -74 -72 -74q-66 0 -66 80q0 143 145 283.5t294 140.5q192 0 192 -211q0 -218 -208.5 -397.5t-462.5 -179.5q-177 0 -297.5 119 t-120.5 294q0 170 119 349q-433 80 -433 342zM393 1034q0 -239 406 -309q252 351 770 467q-304 176 -647 176q-212 0 -370.5 -100t-158.5 -234zM823 -128q0 6 6 6q4 0 16 -8q57 -39 111 -39q29 0 50 18t21 41q0 31 -41 78l17 -4q84 -58 84 -108q0 -74 -86 -74q-40 0 -109 35 t-69 55zM940 715q209 0 462.5 76.5t401.5 185.5q-77 111 -207 197q-187 -51 -365 -175.5t-292 -283.5zM1622 1178q119 -82 197 -191q82 70 82 123q0 82 -160 82q-50 0 -119 -14z" />
<glyph unicode="&#xc8;" horiz-adv-x="1722" d="M317 752q0 177 154 325q183 176 514 176q184 0 490 -75q138 67 321 67q136 0 232 -36.5t96 -88.5q0 -67 -123 -67q-97 0 -461 90q-170 -97 -170 -244q0 -71 49 -98q71 6 107 6q104 0 104 -25q0 -16 -55 -16q-70 0 -152 20q-111 -16 -258 -86q-374 -179 -374 -464 q0 -189 204 -240q-37 61 -37 141q0 197 201 363t440 166q110 0 175 -54t65 -145q0 -195 -214 -351.5t-482 -156.5q-54 0 -101 6q96 -129 285 -129q117 0 191 35l12 2q6 -2 6 -8q0 -14 -74 -29.5t-135 -15.5q-209 0 -319 151q-153 34 -239.5 115.5t-86.5 189.5 q0 145 120 271.5t320 191.5q121 40 277 58q-111 47 -111 149q0 131 162 219q-232 56 -383 56q-296 0 -504.5 -148t-208.5 -358q0 -94 55 -161t132 -67q53 0 53 17q0 9 -19 6q-53 0 -53 49q0 28 23.5 48t56.5 20q64 0 64 -62q0 -41 -36.5 -69.5t-88.5 -28.5 q-93 0 -158.5 83.5t-65.5 201.5zM995 98q0 -54 33 -110q58 -11 107 -11q236 0 461 163.5t225 334.5q0 72 -57 119t-144 47q-215 0 -420 -178.5t-205 -364.5zM1563 1157q265 -86 446 -86q94 0 94 51q0 39 -82.5 69t-189.5 30q-147 0 -268 -64zM1767 1678l86 60 q-17 -49 -17 -97q0 -104 56 -178q7 -7 8 -12q-1 -4 -6 -4q-25 0 -65.5 74t-61.5 157z" />
<glyph unicode="&#xc9;" horiz-adv-x="1722" d="M317 752q0 177 154 325q183 176 514 176q184 0 490 -75q138 67 321 67q136 0 232 -36.5t96 -88.5q0 -67 -123 -67q-97 0 -461 90q-170 -97 -170 -244q0 -71 49 -98q71 6 107 6q104 0 104 -25q0 -16 -55 -16q-70 0 -152 20q-111 -16 -258 -86q-374 -179 -374 -464 q0 -189 204 -240q-37 61 -37 141q0 197 201 363t440 166q110 0 175 -54t65 -145q0 -195 -214 -351.5t-482 -156.5q-54 0 -101 6q96 -129 285 -129q117 0 191 35l12 2q6 -2 6 -8q0 -14 -74 -29.5t-135 -15.5q-209 0 -319 151q-153 34 -239.5 115.5t-86.5 189.5 q0 145 120 271.5t320 191.5q121 40 277 58q-111 47 -111 149q0 131 162 219q-232 56 -383 56q-296 0 -504.5 -148t-208.5 -358q0 -94 55 -161t132 -67q53 0 53 17q0 9 -19 6q-53 0 -53 49q0 28 23.5 48t56.5 20q64 0 64 -62q0 -41 -36.5 -69.5t-88.5 -28.5 q-93 0 -158.5 83.5t-65.5 201.5zM995 98q0 -54 33 -110q58 -11 107 -11q236 0 461 163.5t225 334.5q0 72 -57 119t-144 47q-215 0 -420 -178.5t-205 -364.5zM1563 1157q265 -86 446 -86q94 0 94 51q0 39 -82.5 69t-189.5 30q-147 0 -268 -64zM1893 1473q0 3 12 9 q234 111 334 241l41 -63q-97 -76 -248 -139q-116 -50 -133 -50q-4 0 -6 2z" />
<glyph unicode="&#xca;" horiz-adv-x="1722" d="M317 752q0 177 154 325q183 176 514 176q184 0 490 -75q138 67 321 67q136 0 232 -36.5t96 -88.5q0 -67 -123 -67q-97 0 -461 90q-170 -97 -170 -244q0 -71 49 -98q71 6 107 6q104 0 104 -25q0 -16 -55 -16q-70 0 -152 20q-111 -16 -258 -86q-374 -179 -374 -464 q0 -189 204 -240q-37 61 -37 141q0 197 201 363t440 166q110 0 175 -54t65 -145q0 -195 -214 -351.5t-482 -156.5q-54 0 -101 6q96 -129 285 -129q117 0 191 35l12 2q6 -2 6 -8q0 -14 -74 -29.5t-135 -15.5q-209 0 -319 151q-153 34 -239.5 115.5t-86.5 189.5 q0 145 120 271.5t320 191.5q121 40 277 58q-111 47 -111 149q0 131 162 219q-232 56 -383 56q-296 0 -504.5 -148t-208.5 -358q0 -94 55 -161t132 -67q53 0 53 17q0 9 -19 6q-53 0 -53 49q0 28 23.5 48t56.5 20q64 0 64 -62q0 -41 -36.5 -69.5t-88.5 -28.5 q-93 0 -158.5 83.5t-65.5 201.5zM995 98q0 -54 33 -110q58 -11 107 -11q236 0 461 163.5t225 334.5q0 72 -57 119t-144 47q-215 0 -420 -178.5t-205 -364.5zM1563 1157q265 -86 446 -86q94 0 94 51q0 39 -82.5 69t-189.5 30q-147 0 -268 -64zM1743 1486q1 3 14 8 q110 46 222 118t155 124q-11 -126 -17 -244q0 -7 -4 -8q-4 0 -6 23q-7 85 -22 123q-64 -42 -184 -95t-152 -53q-6 0 -6 4z" />
<glyph unicode="&#xcb;" horiz-adv-x="1722" d="M317 752q0 177 154 325q183 176 514 176q184 0 490 -75q138 67 321 67q136 0 232 -36.5t96 -88.5q0 -67 -123 -67q-97 0 -461 90q-170 -97 -170 -244q0 -71 49 -98q71 6 107 6q104 0 104 -25q0 -16 -55 -16q-70 0 -152 20q-111 -16 -258 -86q-374 -179 -374 -464 q0 -189 204 -240q-37 61 -37 141q0 197 201 363t440 166q110 0 175 -54t65 -145q0 -195 -214 -351.5t-482 -156.5q-54 0 -101 6q96 -129 285 -129q117 0 191 35l12 2q6 -2 6 -8q0 -14 -74 -29.5t-135 -15.5q-209 0 -319 151q-153 34 -239.5 115.5t-86.5 189.5 q0 145 120 271.5t320 191.5q121 40 277 58q-111 47 -111 149q0 131 162 219q-232 56 -383 56q-296 0 -504.5 -148t-208.5 -358q0 -94 55 -161t132 -67q53 0 53 17q0 9 -19 6q-53 0 -53 49q0 28 23.5 48t56.5 20q64 0 64 -62q0 -41 -36.5 -69.5t-88.5 -28.5 q-93 0 -158.5 83.5t-65.5 201.5zM995 98q0 -54 33 -110q58 -11 107 -11q236 0 461 163.5t225 334.5q0 72 -57 119t-144 47q-215 0 -420 -178.5t-205 -364.5zM1563 1157q265 -86 446 -86q94 0 94 51q0 39 -82.5 69t-189.5 30q-147 0 -268 -64zM1750 1514q0 34 29.5 62 t64.5 28q43 0 43 -41q0 -37 -27 -66.5t-61 -29.5q-49 0 -49 47zM1920 1512q0 34 29.5 63t64.5 29q43 0 43 -41q0 -37 -27 -66.5t-61 -29.5q-49 0 -49 45z" />
<glyph unicode="&#xcc;" horiz-adv-x="1307" d="M141 174q0 52 29.5 88.5t71.5 36.5q65 0 65 -68q0 -33 -21.5 -56t-52.5 -23q-47 0 -47 45v20q0 9 -6 10q-18 0 -18 -51q0 -86 84 -144.5t209 -58.5q301 0 542 301q71 89 191 275q-170 74 -170 239q0 200 225 297q114 50 359 91l110 18l94 20q54 40 140.5 79.5t119.5 39.5 q17 0 17 -10q0 -17 -82.5 -53.5t-188.5 -65.5q-249 -178 -493 -635l-16 -30q12 -2 28 -2q122 0 225 75t125 181q4 16 11 16q6 0 6 -8q0 -61 -66 -139q-118 -142 -305 -142q-18 0 -35 2l-28 -55q-73 -140 -129 -208q-52 -64 -142 -128q-251 -178 -514 -178q-147 0 -242.5 62 t-95.5 159zM1073 739q0 -126 123 -178q265 423 586 635q-23 -5 -68 -16q-37 -10 -108 -27q-244 -58 -388.5 -170.5t-144.5 -243.5zM1675 1674l86 60q-17 -49 -17 -97q0 -104 56 -178q7 -7 8 -12q-1 -4 -6 -4q-25 0 -65.5 74t-61.5 157z" />
<glyph unicode="&#xcd;" horiz-adv-x="1307" d="M141 174q0 52 29.5 88.5t71.5 36.5q65 0 65 -68q0 -33 -21.5 -56t-52.5 -23q-47 0 -47 45v20q0 9 -6 10q-18 0 -18 -51q0 -86 84 -144.5t209 -58.5q301 0 542 301q71 89 191 275q-170 74 -170 239q0 200 225 297q114 50 359 91l110 18l94 20q54 40 140.5 79.5t119.5 39.5 q17 0 17 -10q0 -17 -82.5 -53.5t-188.5 -65.5q-249 -178 -493 -635l-16 -30q12 -2 28 -2q122 0 225 75t125 181q4 16 11 16q6 0 6 -8q0 -61 -66 -139q-118 -142 -305 -142q-18 0 -35 2l-28 -55q-73 -140 -129 -208q-52 -64 -142 -128q-251 -178 -514 -178q-147 0 -242.5 62 t-95.5 159zM1073 739q0 -126 123 -178q265 423 586 635q-23 -5 -68 -16q-37 -10 -108 -27q-244 -58 -388.5 -170.5t-144.5 -243.5zM1843 1483q0 3 12 9q234 111 334 241l41 -63q-97 -76 -248 -139q-116 -50 -133 -50q-4 0 -6 2z" />
<glyph unicode="&#xce;" horiz-adv-x="1307" d="M141 174q0 52 29.5 88.5t71.5 36.5q65 0 65 -68q0 -33 -21.5 -56t-52.5 -23q-47 0 -47 45v20q0 9 -6 10q-18 0 -18 -51q0 -86 84 -144.5t209 -58.5q301 0 542 301q71 89 191 275q-170 74 -170 239q0 200 225 297q114 50 359 91l110 18l94 20q54 40 140.5 79.5t119.5 39.5 q17 0 17 -10q0 -17 -82.5 -53.5t-188.5 -65.5q-249 -178 -493 -635l-16 -30q12 -2 28 -2q122 0 225 75t125 181q4 16 11 16q6 0 6 -8q0 -61 -66 -139q-118 -142 -305 -142q-18 0 -35 2l-28 -55q-73 -140 -129 -208q-52 -64 -142 -128q-251 -178 -514 -178q-147 0 -242.5 62 t-95.5 159zM1073 739q0 -126 123 -178q265 423 586 635q-23 -5 -68 -16q-37 -10 -108 -27q-244 -58 -388.5 -170.5t-144.5 -243.5zM1536 1482q1 3 14 8q110 46 222 118t155 124q-11 -126 -17 -244q0 -7 -4 -8q-4 0 -6 23q-7 85 -22 123q-64 -42 -184 -95t-152 -53q-6 0 -6 4 z" />
<glyph unicode="&#xcf;" horiz-adv-x="1307" d="M141 174q0 52 29.5 88.5t71.5 36.5q65 0 65 -68q0 -33 -21.5 -56t-52.5 -23q-47 0 -47 45v20q0 9 -6 10q-18 0 -18 -51q0 -86 84 -144.5t209 -58.5q301 0 542 301q71 89 191 275q-170 74 -170 239q0 200 225 297q114 50 359 91l110 18l94 20q54 40 140.5 79.5t119.5 39.5 q17 0 17 -10q0 -17 -82.5 -53.5t-188.5 -65.5q-249 -178 -493 -635l-16 -30q12 -2 28 -2q122 0 225 75t125 181q4 16 11 16q6 0 6 -8q0 -61 -66 -139q-118 -142 -305 -142q-18 0 -35 2l-28 -55q-73 -140 -129 -208q-52 -64 -142 -128q-251 -178 -514 -178q-147 0 -242.5 62 t-95.5 159zM1073 739q0 -126 123 -178q265 423 586 635q-23 -5 -68 -16q-37 -10 -108 -27q-244 -58 -388.5 -170.5t-144.5 -243.5zM1658 1510q0 34 29.5 62t64.5 28q43 0 43 -41q0 -37 -27 -66.5t-61 -29.5q-49 0 -49 47zM1828 1508q0 34 29.5 63t64.5 29q43 0 43 -41 q0 -37 -27 -66.5t-61 -29.5q-49 0 -49 45z" />
<glyph unicode="&#xd0;" horiz-adv-x="1735" d="M129 6q0 26 64.5 46t150.5 20q104 0 414 -68q196 51 311.5 156t300.5 399h-164l6 19h170q199 321 385 499q-145 246 -473 246q-338 0 -620 -266q-142 -134 -227 -296t-85 -298q0 -108 68.5 -173t181.5 -65q191 0 396.5 205.5t205.5 396.5q0 71 -40 115.5t-105 44.5 q-74 0 -74 -26q0 -7 11 -7h10q4 2 14 2q49 0 49 -45q0 -33 -25 -57.5t-59 -24.5q-61 0 -61 66q0 46 40 78.5t97 32.5q73 0 118.5 -48.5t45.5 -126.5q0 -202 -210.5 -413t-412.5 -211q-139 0 -229 92.5t-90 237.5q0 310 307 557t694 247q329 0 496 -243q247 225 496 225 q127 0 204.5 -81.5t77.5 -213.5q0 -51 -12 -107.5t-23 -56.5q-6 0 -6 6q0 7 2 13q23 61 23 143q0 126 -76.5 202.5t-202.5 76.5q-247 0 -469 -232q86 -160 86 -336q0 -328 -251.5 -556t-614.5 -228q-112 0 -307 31q-169 -31 -324 -31q-264 0 -264 53zM150 6q0 -35 262 -35 q150 0 270 19q-276 39 -412 39q-120 0 -120 -23zM791 -4q127 -27 270 -27q383 0 620 369q154 238 154 473q0 124 -53 240q-120 -136 -283 -473h193l-6 -19h-197q-106 -232 -265.5 -360.5t-432.5 -202.5z" />
<glyph unicode="&#xd1;" horiz-adv-x="1784" d="M178 166q0 52 30 87.5t75 35.5q65 0 65 -64q0 -33 -21 -56.5t-51 -23.5q-49 0 -49 54q0 20 -8 20q-16 0 -16 -55q0 -82 78.5 -134.5t199.5 -52.5q232 0 430.5 175t454.5 606q209 351 334 461q86 75 110 75q4 -1 5 -4q0 -2 -13 -18q-63 -85 -79.5 -180.5t-22.5 -407.5 q-8 -381 -94 -545q-2 0 -2 -4l2 -2q18 0 303 502q208 367 401.5 530.5t417.5 163.5q160 0 264.5 -97.5t104.5 -246.5q0 -84 -19 -84q-8 0 -8 6q0 11 4 35t4 37q0 138 -98 226.5t-250 88.5q-301 0 -606 -391q-96 -122 -373 -588q-80 -135 -164.5 -240.5t-111.5 -105.5 q-15 0 -15 15q0 19 45 41q88 41 88 204q0 31 -4 103q-10 178 -10 307q0 215 41.5 353.5t138.5 244.5q2 3 4 8q-31 4 -137 -127q-56 -69 -100.5 -143t-231.5 -412q-160 -289 -373 -446.5t-444 -157.5q-130 0 -214.5 58t-84.5 149zM426 838q0 217 200.5 399t438.5 182 q98 0 153.5 -49t55.5 -135q0 -64 -64 -195q-22 -46 -22 -73q0 -76 82 -76q49 0 109.5 47t97.5 115q5 10 10 10q8 0 8 -8q0 -22 -57 -86q-86 -97 -166 -97q-55 0 -93 40.5t-38 99.5q0 57 41 137q51 100 51 141q0 51 -48 82t-126 31q-223 0 -419 -180t-196 -383 q0 -105 64.5 -171.5t165.5 -66.5q90 0 182.5 51.5t149.5 132.5q4 5 6 5q8 0 8 -9q0 -20 -64 -77q-132 -119 -286 -119q-108 0 -176 70t-68 182zM2005 1509q0 14 55.5 40t85.5 26q34 0 121 -21l46 -11q43 -9 65 -9q33 0 59 14q8 4 10 4q4 -1 4 -4q0 -14 -55.5 -39.5 t-83.5 -25.5q-32 0 -88 14l-20 5q-95 24 -123 24q-23 0 -56 -15q-10 -6 -14 -6q-6 0 -6 4z" />
<glyph unicode="&#xd2;" horiz-adv-x="1624" d="M500 383q0 184 114 375t308 329q138 100 310.5 162t311.5 62q138 0 220.5 -67t82.5 -179q0 -46 -16 -109q27 -79 27 -157q0 -153 -86 -311.5t-238 -286.5q-146 -124 -313.5 -196.5t-307.5 -72.5q-184 0 -298.5 125t-114.5 326zM588 287q0 -148 87.5 -241t225.5 -93 q280 0 563 288t314 603q-34 -60 -121.5 -141.5t-118.5 -81.5q-8 0 -8 8q0 5 16 14q162 90 234 238q0 125 -73 198.5t-198 73.5q-232 0 -476.5 -247.5t-244.5 -483.5q0 -94 44 -152.5t116 -58.5q34 0 69.5 20t35.5 39q-1 6 -4 6l-9 -4q-12 -12 -39 -12q-47 0 -47 55 q0 34 23 57t55 23q64 0 64 -71q0 -53 -45.5 -92t-106.5 -39q-86 0 -143.5 70.5t-57.5 176.5q0 244 254.5 486.5t509.5 242.5q109 0 195 -51.5t117 -134.5q12 40 12 80q0 101 -71 163t-187 62q-230 0 -465 -153q-225 -147 -369 -377q-151 -238 -151 -471zM1611 1673l86 60 q-17 -49 -17 -97q0 -104 56 -178q7 -7 8 -12q-1 -4 -6 -4q-25 0 -65.5 74t-61.5 157z" />
<glyph unicode="&#xd3;" horiz-adv-x="1624" d="M500 383q0 184 114 375t308 329q138 100 310.5 162t311.5 62q138 0 220.5 -67t82.5 -179q0 -46 -16 -109q27 -79 27 -157q0 -153 -86 -311.5t-238 -286.5q-146 -124 -313.5 -196.5t-307.5 -72.5q-184 0 -298.5 125t-114.5 326zM588 287q0 -148 87.5 -241t225.5 -93 q280 0 563 288t314 603q-34 -60 -121.5 -141.5t-118.5 -81.5q-8 0 -8 8q0 5 16 14q162 90 234 238q0 125 -73 198.5t-198 73.5q-232 0 -476.5 -247.5t-244.5 -483.5q0 -94 44 -152.5t116 -58.5q34 0 69.5 20t35.5 39q-1 6 -4 6l-9 -4q-12 -12 -39 -12q-47 0 -47 55 q0 34 23 57t55 23q64 0 64 -71q0 -53 -45.5 -92t-106.5 -39q-86 0 -143.5 70.5t-57.5 176.5q0 244 254.5 486.5t509.5 242.5q109 0 195 -51.5t117 -134.5q12 40 12 80q0 101 -71 163t-187 62q-230 0 -465 -153q-225 -147 -369 -377q-151 -238 -151 -471zM1567 1478q0 3 12 9 q234 111 334 241l41 -63q-97 -76 -248 -139q-116 -50 -133 -50q-4 0 -6 2z" />
<glyph unicode="&#xd4;" horiz-adv-x="1624" d="M500 383q0 184 114 375t308 329q138 100 310.5 162t311.5 62q138 0 220.5 -67t82.5 -179q0 -46 -16 -109q27 -79 27 -157q0 -153 -86 -311.5t-238 -286.5q-146 -124 -313.5 -196.5t-307.5 -72.5q-184 0 -298.5 125t-114.5 326zM588 287q0 -148 87.5 -241t225.5 -93 q280 0 563 288t314 603q-34 -60 -121.5 -141.5t-118.5 -81.5q-8 0 -8 8q0 5 16 14q162 90 234 238q0 125 -73 198.5t-198 73.5q-232 0 -476.5 -247.5t-244.5 -483.5q0 -94 44 -152.5t116 -58.5q34 0 69.5 20t35.5 39q-1 6 -4 6l-9 -4q-12 -12 -39 -12q-47 0 -47 55 q0 34 23 57t55 23q64 0 64 -71q0 -53 -45.5 -92t-106.5 -39q-86 0 -143.5 70.5t-57.5 176.5q0 244 254.5 486.5t509.5 242.5q109 0 195 -51.5t117 -134.5q12 40 12 80q0 101 -71 163t-187 62q-230 0 -465 -153q-225 -147 -369 -377q-151 -238 -151 -471zM1449 1482q1 3 14 8 q110 46 222 118t155 124q-11 -126 -17 -244q0 -7 -4 -8q-4 0 -6 23q-7 85 -22 123q-64 -42 -184 -95t-152 -53q-6 0 -6 4z" />
<glyph unicode="&#xd5;" horiz-adv-x="1624" d="M500 383q0 184 114 375t308 329q138 100 310.5 162t311.5 62q138 0 220.5 -67t82.5 -179q0 -46 -16 -109q27 -79 27 -157q0 -153 -86 -311.5t-238 -286.5q-146 -124 -313.5 -196.5t-307.5 -72.5q-184 0 -298.5 125t-114.5 326zM588 287q0 -148 87.5 -241t225.5 -93 q280 0 563 288t314 603q-34 -60 -121.5 -141.5t-118.5 -81.5q-8 0 -8 8q0 5 16 14q162 90 234 238q0 125 -73 198.5t-198 73.5q-232 0 -476.5 -247.5t-244.5 -483.5q0 -94 44 -152.5t116 -58.5q34 0 69.5 20t35.5 39q-1 6 -4 6l-9 -4q-12 -12 -39 -12q-47 0 -47 55 q0 34 23 57t55 23q64 0 64 -71q0 -53 -45.5 -92t-106.5 -39q-86 0 -143.5 70.5t-57.5 176.5q0 244 254.5 486.5t509.5 242.5q109 0 195 -51.5t117 -134.5q12 40 12 80q0 101 -71 163t-187 62q-230 0 -465 -153q-225 -147 -369 -377q-151 -238 -151 -471zM1505 1514 q0 14 55.5 40t85.5 26q34 0 121 -21l46 -11q43 -9 65 -9q33 0 59 14q8 4 10 4q4 -1 4 -4q0 -14 -55.5 -39.5t-83.5 -25.5q-32 0 -88 14l-20 5q-95 24 -123 24q-23 0 -56 -15q-10 -6 -14 -6q-6 0 -6 4z" />
<glyph unicode="&#xd6;" horiz-adv-x="1624" d="M500 383q0 184 114 375t308 329q138 100 310.5 162t311.5 62q138 0 220.5 -67t82.5 -179q0 -46 -16 -109q27 -79 27 -157q0 -153 -86 -311.5t-238 -286.5q-146 -124 -313.5 -196.5t-307.5 -72.5q-184 0 -298.5 125t-114.5 326zM588 287q0 -148 87.5 -241t225.5 -93 q280 0 563 288t314 603q-34 -60 -121.5 -141.5t-118.5 -81.5q-8 0 -8 8q0 5 16 14q162 90 234 238q0 125 -73 198.5t-198 73.5q-232 0 -476.5 -247.5t-244.5 -483.5q0 -94 44 -152.5t116 -58.5q34 0 69.5 20t35.5 39q-1 6 -4 6l-9 -4q-12 -12 -39 -12q-47 0 -47 55 q0 34 23 57t55 23q64 0 64 -71q0 -53 -45.5 -92t-106.5 -39q-86 0 -143.5 70.5t-57.5 176.5q0 244 254.5 486.5t509.5 242.5q109 0 195 -51.5t117 -134.5q12 40 12 80q0 101 -71 163t-187 62q-230 0 -465 -153q-225 -147 -369 -377q-151 -238 -151 -471zM1556 1516 q0 34 29.5 62t64.5 28q43 0 43 -41q0 -37 -27 -66.5t-61 -29.5q-49 0 -49 47zM1726 1514q0 34 29.5 63t64.5 29q43 0 43 -41q0 -37 -27 -66.5t-61 -29.5q-49 0 -49 45z" />
<glyph unicode="&#xd7;" horiz-adv-x="1071" d="M364 131q0 14 23 35q99 87 404 360q-44 97 -136 291q-14 31 -14 42q0 13 12 18q17 5 27 -17q48 -106 141 -305l344 307q35 32 49 23q19 -12 -12 -39l-364 -328l157 -340q16 -34 16 -46q0 -13 -12 -17q-18 -7 -38 41q-46 104 -154 333l-387 -348q-30 -26 -43 -26t-13 16z " />
<glyph unicode="&#xd8;" horiz-adv-x="1624" d="M500 383q0 186 114 376t308 328q140 101 311.5 162.5t310.5 61.5q65 0 125 -17l137 193h33l-141 -203q149 -70 149 -217q0 -45 -16 -111q27 -79 27 -157q0 -153 -86 -311.5t-238 -286.5q-146 -124 -313.5 -196.5t-307.5 -72.5q-71 0 -147 23l-113 -162h-32l120 172 q-241 121 -241 418zM588 287q0 -205 168 -301l149 213q-147 83 -147 268q0 229 252.5 465.5t496.5 236.5q20 0 72 -6l82 117q-56 10 -92 10q-227 0 -461 -154q-225 -148 -369 -378q-151 -240 -151 -471zM780 -27q65 -20 121 -20q280 0 563 288t314 603 q-34 -60 -121.5 -141.5t-118.5 -81.5q-8 0 -8 8q0 5 16 14q162 90 234 238q3 208 -183 260l-657 -938q52 -15 88 -15q60 0 112 25.5t52 54.5q0 8 -6 8q-1 -1 -6 -4q-17 -12 -37 -12q-47 0 -47 55q0 80 78 80q61 0 61 -69q0 -63 -60 -108.5t-143 -45.5q-45 0 -102 16z M803 436q0 -160 112 -221l654 932q-43 6 -58 6q-225 0 -466.5 -244t-241.5 -473zM1608 1157q71 -17 130 -66t81 -108q12 40 12 80q0 143 -143 207z" />
<glyph unicode="&#xd9;" horiz-adv-x="1845" d="M299 547q0 328 344 598q134 105 290 168t281 63q152 0 236 -81.5t84 -227.5q0 -124 -61 -235.5t-304 -432.5q-106 -140 -139 -200.5t-33 -114.5q0 -49 30.5 -81t76.5 -32q150 0 415 302t689 958q53 -4 59 -4q38 0 96 10q-694 -952 -694 -1229q0 -68 44.5 -111.5 t113.5 -43.5q119 0 233 127q10 10 15 10q6 0 6 -8q0 -11 -35 -41q-118 -105 -219 -105q-95 0 -158 74t-63 186q0 192 197 505q-11 -15 -31 -42l-48 -65q-181 -253 -347.5 -396t-276.5 -143q-72 0 -116 52t-44 138q0 91 48.5 180.5t217.5 311.5q177 231 225 321.5t48 192.5 q0 95 -70.5 151t-191.5 56q-306 0 -588.5 -278.5t-282.5 -579.5q0 -113 63.5 -181.5t168.5 -68.5q199 0 383 227q192 238 192 434q0 166 -141 166q-35 0 -66 -16t-31 -35q0 -8 9 -8q6 1 18 6q5 2 14 2q52 0 52 -49q0 -32 -24 -56t-56 -24q-62 0 -62 66q0 54 44.5 93.5 t105.5 39.5q71 0 113 -50t42 -135q0 -196 -188 -436q-191 -244 -405 -244q-126 0 -202.5 86.5t-76.5 229.5zM1872 1682l86 60q-17 -49 -17 -97q0 -104 56 -178q7 -7 8 -12q-1 -4 -6 -4q-25 0 -65.5 74t-61.5 157z" />
<glyph unicode="&#xda;" horiz-adv-x="1845" d="M299 547q0 328 344 598q134 105 290 168t281 63q152 0 236 -81.5t84 -227.5q0 -124 -61 -235.5t-304 -432.5q-106 -140 -139 -200.5t-33 -114.5q0 -49 30.5 -81t76.5 -32q150 0 415 302t689 958q53 -4 59 -4q38 0 96 10q-694 -952 -694 -1229q0 -68 44.5 -111.5 t113.5 -43.5q119 0 233 127q10 10 15 10q6 0 6 -8q0 -11 -35 -41q-118 -105 -219 -105q-95 0 -158 74t-63 186q0 192 197 505q-11 -15 -31 -42l-48 -65q-181 -253 -347.5 -396t-276.5 -143q-72 0 -116 52t-44 138q0 91 48.5 180.5t217.5 311.5q177 231 225 321.5t48 192.5 q0 95 -70.5 151t-191.5 56q-306 0 -588.5 -278.5t-282.5 -579.5q0 -113 63.5 -181.5t168.5 -68.5q199 0 383 227q192 238 192 434q0 166 -141 166q-35 0 -66 -16t-31 -35q0 -8 9 -8q6 1 18 6q5 2 14 2q52 0 52 -49q0 -32 -24 -56t-56 -24q-62 0 -62 66q0 54 44.5 93.5 t105.5 39.5q71 0 113 -50t42 -135q0 -196 -188 -436q-191 -244 -405 -244q-126 0 -202.5 86.5t-76.5 229.5zM1962 1479q0 3 12 9q234 111 334 241l41 -63q-97 -76 -248 -139q-116 -50 -133 -50q-4 0 -6 2z" />
<glyph unicode="&#xdb;" horiz-adv-x="1845" d="M299 547q0 328 344 598q134 105 290 168t281 63q152 0 236 -81.5t84 -227.5q0 -124 -61 -235.5t-304 -432.5q-106 -140 -139 -200.5t-33 -114.5q0 -49 30.5 -81t76.5 -32q150 0 415 302t689 958q53 -4 59 -4q38 0 96 10q-694 -952 -694 -1229q0 -68 44.5 -111.5 t113.5 -43.5q119 0 233 127q10 10 15 10q6 0 6 -8q0 -11 -35 -41q-118 -105 -219 -105q-95 0 -158 74t-63 186q0 192 197 505q-11 -15 -31 -42l-48 -65q-181 -253 -347.5 -396t-276.5 -143q-72 0 -116 52t-44 138q0 91 48.5 180.5t217.5 311.5q177 231 225 321.5t48 192.5 q0 95 -70.5 151t-191.5 56q-306 0 -588.5 -278.5t-282.5 -579.5q0 -113 63.5 -181.5t168.5 -68.5q199 0 383 227q192 238 192 434q0 166 -141 166q-35 0 -66 -16t-31 -35q0 -8 9 -8q6 1 18 6q5 2 14 2q52 0 52 -49q0 -32 -24 -56t-56 -24q-62 0 -62 66q0 54 44.5 93.5 t105.5 39.5q71 0 113 -50t42 -135q0 -196 -188 -436q-191 -244 -405 -244q-126 0 -202.5 86.5t-76.5 229.5zM1797 1477q1 3 14 8q110 46 222 118t155 124q-11 -126 -17 -244q0 -7 -4 -8q-4 0 -6 23q-7 85 -22 123q-64 -42 -184 -95t-152 -53q-6 0 -6 4z" />
<glyph unicode="&#xdc;" horiz-adv-x="1845" d="M299 547q0 328 344 598q134 105 290 168t281 63q152 0 236 -81.5t84 -227.5q0 -124 -61 -235.5t-304 -432.5q-106 -140 -139 -200.5t-33 -114.5q0 -49 30.5 -81t76.5 -32q150 0 415 302t689 958q53 -4 59 -4q38 0 96 10q-694 -952 -694 -1229q0 -68 44.5 -111.5 t113.5 -43.5q119 0 233 127q10 10 15 10q6 0 6 -8q0 -11 -35 -41q-118 -105 -219 -105q-95 0 -158 74t-63 186q0 192 197 505q-11 -15 -31 -42l-48 -65q-181 -253 -347.5 -396t-276.5 -143q-72 0 -116 52t-44 138q0 91 48.5 180.5t217.5 311.5q177 231 225 321.5t48 192.5 q0 95 -70.5 151t-191.5 56q-306 0 -588.5 -278.5t-282.5 -579.5q0 -113 63.5 -181.5t168.5 -68.5q199 0 383 227q192 238 192 434q0 166 -141 166q-35 0 -66 -16t-31 -35q0 -8 9 -8q6 1 18 6q5 2 14 2q52 0 52 -49q0 -32 -24 -56t-56 -24q-62 0 -62 66q0 54 44.5 93.5 t105.5 39.5q71 0 113 -50t42 -135q0 -196 -188 -436q-191 -244 -405 -244q-126 0 -202.5 86.5t-76.5 229.5zM1859 1516q0 34 29.5 62t64.5 28q43 0 43 -41q0 -37 -27 -66.5t-61 -29.5q-49 0 -49 47zM2029 1514q0 34 29.5 63t64.5 29q43 0 43 -41q0 -37 -27 -66.5t-61 -29.5 q-49 0 -49 45z" />
<glyph unicode="&#xdd;" horiz-adv-x="1907" d="M301 596q0 298 313 549q156 124 335.5 197t328.5 73q158 0 249 -88.5t91 -243.5q0 -123 -56 -239.5t-221 -329.5q-142 -185 -180.5 -250.5t-38.5 -128.5q0 -125 119 -125q111 0 266 136.5t408 457.5q261 331 526 508l13 8q8 4 10 4q10 0 10 -12q-1 -3 -8 -8 q-173 -122 -319 -330q-141 -203 -316 -575q-150 -320 -407 -511.5t-529 -191.5q-135 0 -222 62.5t-87 160.5q0 59 36 100.5t87 41.5q65 0 65 -62q0 -33 -22.5 -57.5t-53.5 -24.5q-53 0 -53 50q0 12 4 22q2 5 2 12q0 6 -4 6q-14 0 -27.5 -28.5t-13.5 -59.5q0 -89 80 -147.5 t203 -58.5q166 0 316.5 90.5t245.5 212.5q93 119 284 465q66 119 157 264q-221 -266 -329 -367q-202 -188 -330 -188q-77 0 -125.5 57.5t-48.5 149.5q0 94 54 192t226 318q222 281 222 458q0 234 -283 234q-315 0 -631 -287q-130 -118 -217.5 -280.5t-87.5 -286.5 q0 -120 69.5 -191t186.5 -71q208 0 397 196q228 236 228 436q0 71 -40 114.5t-106 43.5q-146 0 -307.5 -180.5t-161.5 -343.5q0 -105 101 -105h4q10 0 10 -6q0 -8 -25 -8q-55 0 -90 46t-35 120q0 171 164.5 332.5t337.5 161.5q76 0 121 -47.5t45 -127.5q0 -179 -184 -397 q-215 -254 -457 -254q-135 0 -217 91t-82 241zM2102 1466q0 3 12 9q234 111 334 241l41 -63q-97 -76 -248 -139q-116 -50 -133 -50q-4 0 -6 2z" />
<glyph unicode="&#xde;" horiz-adv-x="1532" d="M233 174q0 51 30.5 87t72.5 36q61 0 61 -68q0 -79 -71 -79q-52 0 -50 53q1 22 -4 22q-16 0 -16 -53q0 -86 82.5 -141.5t208.5 -55.5q247 0 440 203q60 63 112 139q50 73 232 361q132 208 301 387q-76 43 -186 49q8 -33 8 -57q0 -161 -149.5 -324.5t-296.5 -163.5 q-68 0 -112 44.5t-44 113.5q0 152 174.5 275.5t390.5 123.5h13q-46 144 -158 144q-37 0 -76 -17q-5 -2 -10 -2q-6 0 -6 6q0 10 32.5 18.5t65.5 8.5q114 0 166 -158q119 -6 205 -45q254 254 501 254q126 0 208.5 -81t82.5 -205q0 -59 -10 -109.5t-23 -50.5q-6 2 -6 8l4 16 q17 66 17 125q0 127 -75.5 203t-201.5 76q-254 0 -473 -248q178 -105 178 -272q0 -128 -103.5 -221t-246.5 -93q-39 0 -78 10t-39 19q0 8 9 8h2q46 -20 100 -20q109 0 186.5 94t77.5 227q0 136 -104 226q-79 -100 -133 -197q-51 -91 -172 -346q-142 -298 -430 -447 q-191 -98 -377 -98q-132 0 -221 61.5t-89 153.5zM891 696q0 -114 115 -114q140 0 287 163.5t147 319.5q0 18 -6 49q-194 0 -368.5 -134.5t-174.5 -283.5z" />
<glyph unicode="&#xdf;" horiz-adv-x="596" d="M-621 -483q0 10 11 10q1 0 47 -8q11 -2 37 -2q155 0 311 164q76 79 126 160q53 86 247 446q73 136 135 241h-111l8 15h109q152 252 295 389q150 143 227 143q45 0 45 -49q0 -127 -211 -321q-116 -108 -116 -185q0 -59 61 -141q78 -103 78 -172q0 -91 -84.5 -159 t-198.5 -68q-151 0 -151 141q0 77 49 146t104 69q52 0 52 -49q0 -50 -91 -80q-94 -32 -94 -113q0 -40 29 -67t72 -27q78 0 149.5 95.5t71.5 201.5q0 55 -45 156q-31 68 -31 110q0 53 29 93t133 132q182 162 182 244q0 31 -31 31q-61 0 -159 -113q-121 -138 -304 -493 q-184 -360 -294 -519.5t-256 -281.5q-187 -156 -361 -156q-70 0 -70 17z" />
<glyph unicode="&#xe0;" horiz-adv-x="705" d="M104 137q0 192 271 340q119 66 192 66q62 0 62 -60q0 -17 -8 -45l51 97q30 -7 53 -7q27 0 70 7l-177 -293q-92 -154 -92 -203q0 -47 39 -47q40 0 128 91.5t179 225.5q6 10 11 10q6 0 6 -6q0 -21 -146 -194q-118 -142 -186 -142q-46 0 -75 34.5t-29 86.5q0 54 32 117 q-100 -140 -153 -189t-103 -49q-53 0 -89 45.5t-36 114.5zM178 57q0 -65 58 -65q69 0 239 229q139 188 139 258q0 49 -45 49q-92 0 -241.5 -180t-149.5 -291zM553 866l86 60q-17 -49 -17 -97q0 -104 56 -178q7 -7 8 -12q-1 -4 -6 -4q-25 0 -65.5 74t-61.5 157z" />
<glyph unicode="&#xe1;" horiz-adv-x="705" d="M104 137q0 192 271 340q119 66 192 66q62 0 62 -60q0 -17 -8 -45l51 97q30 -7 53 -7q27 0 70 7l-177 -293q-92 -154 -92 -203q0 -47 39 -47q40 0 128 91.5t179 225.5q6 10 11 10q6 0 6 -6q0 -21 -146 -194q-118 -142 -186 -142q-46 0 -75 34.5t-29 86.5q0 54 32 117 q-100 -140 -153 -189t-103 -49q-53 0 -89 45.5t-36 114.5zM178 57q0 -65 58 -65q69 0 239 229q139 188 139 258q0 49 -45 49q-92 0 -241.5 -180t-149.5 -291zM617 657q0 3 12 9q234 111 334 241l41 -63q-97 -76 -248 -139q-116 -50 -133 -50q-4 0 -6 2z" />
<glyph unicode="&#xe2;" horiz-adv-x="705" d="M104 137q0 192 271 340q119 66 192 66q62 0 62 -60q0 -17 -8 -45l51 97q30 -7 53 -7q27 0 70 7l-177 -293q-92 -154 -92 -203q0 -47 39 -47q40 0 128 91.5t179 225.5q6 10 11 10q6 0 6 -6q0 -21 -146 -194q-118 -142 -186 -142q-46 0 -75 34.5t-29 86.5q0 54 32 117 q-100 -140 -153 -189t-103 -49q-53 0 -89 45.5t-36 114.5zM178 57q0 -65 58 -65q69 0 239 229q139 188 139 258q0 49 -45 49q-92 0 -241.5 -180t-149.5 -291zM414 651q1 3 14 8q110 46 222 118t155 124q-11 -126 -17 -244q0 -7 -4 -8q-4 0 -6 23q-7 85 -22 123 q-64 -42 -184 -95t-152 -53q-6 0 -6 4z" />
<glyph unicode="&#xe3;" horiz-adv-x="705" d="M104 137q0 192 271 340q119 66 192 66q62 0 62 -60q0 -17 -8 -45l51 97q30 -7 53 -7q27 0 70 7l-177 -293q-92 -154 -92 -203q0 -47 39 -47q40 0 128 91.5t179 225.5q6 10 11 10q6 0 6 -6q0 -21 -146 -194q-118 -142 -186 -142q-46 0 -75 34.5t-29 86.5q0 54 32 117 q-100 -140 -153 -189t-103 -49q-53 0 -89 45.5t-36 114.5zM178 57q0 -65 58 -65q69 0 239 229q139 188 139 258q0 49 -45 49q-92 0 -241.5 -180t-149.5 -291zM437 688q0 14 55.5 40t85.5 26q34 0 121 -21l46 -11q43 -9 65 -9q33 0 59 14q8 4 10 4q4 -1 4 -4 q0 -14 -55.5 -39.5t-83.5 -25.5q-32 0 -88 14l-20 5q-95 24 -123 24q-23 0 -56 -15q-10 -6 -14 -6q-6 0 -6 4z" />
<glyph unicode="&#xe4;" horiz-adv-x="705" d="M104 137q0 192 271 340q119 66 192 66q62 0 62 -60q0 -17 -8 -45l51 97q30 -7 53 -7q27 0 70 7l-177 -293q-92 -154 -92 -203q0 -47 39 -47q40 0 128 91.5t179 225.5q6 10 11 10q6 0 6 -6q0 -21 -146 -194q-118 -142 -186 -142q-46 0 -75 34.5t-29 86.5q0 54 32 117 q-100 -140 -153 -189t-103 -49q-53 0 -89 45.5t-36 114.5zM178 57q0 -65 58 -65q69 0 239 229q139 188 139 258q0 49 -45 49q-92 0 -241.5 -180t-149.5 -291zM527 688q0 34 29.5 62t64.5 28q43 0 43 -41q0 -37 -27 -66.5t-61 -29.5q-49 0 -49 47zM697 686q0 34 29.5 63 t64.5 29q43 0 43 -41q0 -37 -27 -66.5t-61 -29.5q-49 0 -49 45z" />
<glyph unicode="&#xe5;" horiz-adv-x="705" d="M104 137q0 192 271 340q119 66 192 66q62 0 62 -60q0 -17 -8 -45l51 97q30 -7 53 -7q27 0 70 7l-177 -293q-92 -154 -92 -203q0 -47 39 -47q40 0 128 91.5t179 225.5q6 10 11 10q6 0 6 -6q0 -21 -146 -194q-118 -142 -186 -142q-46 0 -75 34.5t-29 86.5q0 54 32 117 q-100 -140 -153 -189t-103 -49q-53 0 -89 45.5t-36 114.5zM178 57q0 -65 58 -65q69 0 239 229q139 188 139 258q0 49 -45 49q-92 0 -241.5 -180t-149.5 -291zM618 694q0 60 52 114t110 54q53 0 53 -55q0 -60 -50.5 -115t-107.5 -55t-57 57zM641 688q0 -33 28 -33 q42 0 93 55.5t51 100.5q0 33 -31 33q-40 0 -90.5 -55.5t-50.5 -100.5z" />
<glyph unicode="&#xe6;" horiz-adv-x="901" d="M106 70q0 160 416 192q72 100 72 180q0 86 -100 86q-153 0 -299 -209q-15 -20 -21 -20q-4 1 -4 6q0 17 102 123q111 115 228 115q63 0 108 -35.5t56 -93.5q178 129 294 129q97 0 97 -86q0 -148 -410 -203q-70 -103 -70 -176q0 -86 99 -86q164 0 389 309q14 18 20 18 q4 0 4 -4q0 -15 -110 -139q-177 -199 -309 -199q-126 0 -164 127q-197 -127 -297 -127q-43 0 -72 27t-29 66zM172 29q0 -37 43 -37q52 0 136.5 72t164.5 186q-159 -25 -251.5 -84.5t-92.5 -136.5zM651 266q138 28 247.5 97.5t109.5 130.5q0 32 -45 32q-125 0 -312 -260z" />
<glyph unicode="&#xe7;" horiz-adv-x="496" d="M15 -84q0 6 6 6q4 0 16 -8q57 -39 111 -39q29 0 50 18t21 41q0 31 -41 78l17 -4q84 -58 84 -108q0 -74 -86 -74q-40 0 -109 35t-69 55zM109 158q0 84 68 174t183 155q97 56 158 56q74 0 74 -88q0 -69 -46.5 -138t-92.5 -69q-45 0 -45 45q0 53 92 98q71 35 71 92 q0 45 -49 45q-83 0 -204 -165t-121 -277q0 -94 88 -94q138 0 374 311q13 16 19 16q4 -1 4 -6q0 -13 -141 -168q-154 -168 -262 -168q-70 0 -120 53.5t-50 127.5z" />
<glyph unicode="&#xe8;" horiz-adv-x="504" d="M109 154q0 180 251 317q132 72 215 72q36 0 61.5 -21.5t25.5 -52.5q0 -72 -94 -122.5t-314 -94.5q-68 -103 -68 -172q0 -86 93 -86q158 0 387 309q12 16 20 16q4 -1 4 -6q0 -3 -18 -26l-43 -54q-207 -256 -355 -256q-70 0 -117.5 50.5t-47.5 126.5zM262 266 q144 37 244 104.5t100 127.5q0 32 -35 32q-53 0 -139.5 -73.5t-169.5 -190.5zM526 866l86 60q-17 -49 -17 -97q0 -104 56 -178q7 -7 8 -12q-1 -4 -6 -4q-25 0 -65.5 74t-61.5 157z" />
<glyph unicode="&#xe9;" horiz-adv-x="504" d="M109 154q0 180 251 317q132 72 215 72q36 0 61.5 -21.5t25.5 -52.5q0 -72 -94 -122.5t-314 -94.5q-68 -103 -68 -172q0 -86 93 -86q158 0 387 309q12 16 20 16q4 -1 4 -6q0 -3 -18 -26l-43 -54q-207 -256 -355 -256q-70 0 -117.5 50.5t-47.5 126.5zM262 266 q144 37 244 104.5t100 127.5q0 32 -35 32q-53 0 -139.5 -73.5t-169.5 -190.5zM584 657q0 3 12 9q234 111 334 241l41 -63q-97 -76 -248 -139q-116 -50 -133 -50q-4 0 -6 2z" />
<glyph unicode="&#xea;" horiz-adv-x="504" d="M109 154q0 180 251 317q132 72 215 72q36 0 61.5 -21.5t25.5 -52.5q0 -72 -94 -122.5t-314 -94.5q-68 -103 -68 -172q0 -86 93 -86q158 0 387 309q12 16 20 16q4 -1 4 -6q0 -3 -18 -26l-43 -54q-207 -256 -355 -256q-70 0 -117.5 50.5t-47.5 126.5zM262 266 q144 37 244 104.5t100 127.5q0 32 -35 32q-53 0 -139.5 -73.5t-169.5 -190.5zM393 651q1 3 14 8q110 46 222 118t155 124q-11 -126 -17 -244q0 -7 -4 -8q-4 0 -6 23q-7 85 -22 123q-64 -42 -184 -95t-152 -53q-6 0 -6 4z" />
<glyph unicode="&#xeb;" horiz-adv-x="504" d="M109 154q0 180 251 317q132 72 215 72q36 0 61.5 -21.5t25.5 -52.5q0 -72 -94 -122.5t-314 -94.5q-68 -103 -68 -172q0 -86 93 -86q158 0 387 309q12 16 20 16q4 -1 4 -6q0 -3 -18 -26l-43 -54q-207 -256 -355 -256q-70 0 -117.5 50.5t-47.5 126.5zM262 266 q144 37 244 104.5t100 127.5q0 32 -35 32q-53 0 -139.5 -73.5t-169.5 -190.5zM482 688q0 34 29.5 62t64.5 28q43 0 43 -41q0 -37 -27 -66.5t-61 -29.5q-49 0 -49 47zM652 686q0 34 29.5 63t64.5 29q43 0 43 -41q0 -37 -27 -66.5t-61 -29.5q-49 0 -49 45z" />
<glyph unicode="&#xec;" horiz-adv-x="344" d="M78 94q0 58 69 176l156 265q31 -7 49 -7q27 0 76 7l-227 -373q-49 -81 -49 -125q0 -45 47 -45q89 0 313 317q5 10 10 10q6 0 6 -6q-1 -3 -10 -16l-43 -59q-188 -261 -287 -261q-47 0 -78.5 33.5t-31.5 83.5zM328 866l86 60q-17 -49 -17 -97q0 -104 56 -178q7 -7 8 -12 q-1 -4 -6 -4q-25 0 -65.5 74t-61.5 157z" />
<glyph unicode="&#xed;" horiz-adv-x="344" d="M78 94q0 58 69 176l156 265q31 -7 49 -7q27 0 76 7l-227 -373q-49 -81 -49 -125q0 -45 47 -45q89 0 313 317q5 10 10 10q6 0 6 -6q-1 -3 -10 -16l-43 -59q-188 -261 -287 -261q-47 0 -78.5 33.5t-31.5 83.5zM387 657q0 3 12 9q234 111 334 241l41 -63q-97 -76 -248 -139 q-116 -50 -133 -50q-4 0 -6 2z" />
<glyph unicode="&#xee;" horiz-adv-x="344" d="M78 94q0 58 69 176l156 265q31 -7 49 -7q27 0 76 7l-227 -373q-49 -81 -49 -125q0 -45 47 -45q89 0 313 317q5 10 10 10q6 0 6 -6q-1 -3 -10 -16l-43 -59q-188 -261 -287 -261q-47 0 -78.5 33.5t-31.5 83.5zM195 651q1 3 14 8q110 46 222 118t155 124q-11 -126 -17 -244 q0 -7 -4 -8q-4 0 -6 23q-7 85 -22 123q-64 -42 -184 -95t-152 -53q-6 0 -6 4z" />
<glyph unicode="&#xef;" horiz-adv-x="344" d="M78 94q0 58 69 176l156 265q31 -7 49 -7q27 0 76 7l-227 -373q-49 -81 -49 -125q0 -45 47 -45q89 0 313 317q5 10 10 10q6 0 6 -6q-1 -3 -10 -16l-43 -59q-188 -261 -287 -261q-47 0 -78.5 33.5t-31.5 83.5zM285 688q0 34 29.5 62t64.5 28q43 0 43 -41q0 -37 -27 -66.5 t-61 -29.5q-49 0 -49 47zM455 686q0 34 29.5 63t64.5 29q43 0 43 -41q0 -37 -27 -66.5t-61 -29.5q-49 0 -49 45z" />
<glyph unicode="&#xf0;" horiz-adv-x="594" d="M109 145q0 159 200 299q141 99 234 99q90 0 90 -92q0 -13 -6 -50q67 177 67 322q0 84 -22 158l-156 -58l-4 15l154 57q-48 134 -160 152q-14 2 -14 8q1 4 8 4q99 0 198 -152l148 54l4 -17l-143 -51q65 -128 65 -277q0 -269 -215 -479q-164 -160 -295 -160 q-66 0 -109.5 48t-43.5 120zM190 66q0 -72 70 -72q95 0 225.5 168.5t130.5 290.5q0 77 -75 77q-89 0 -220 -173t-131 -291z" />
<glyph unicode="&#xf1;" horiz-adv-x="801" d="M127 -14l156 247q133 212 133 265q0 30 -25 30q-51 0 -201 -215q-9 -13 -14 -14q-5 0 -6 6q1 5 4 8l19 25q153 205 206 205q34 0 58 -31t24 -74q0 -64 -75 -178q118 163 181.5 223t117.5 60q44 0 74 -36t30 -89q0 -67 -92 -205q-94 -141 -94 -180q0 -41 41 -41 q89 0 307 317q5 10 10 10q6 0 6 -6q0 -21 -145 -194q-119 -142 -187 -142q-45 0 -75.5 35t-30.5 86q0 45 18.5 83.5t96.5 152.5q81 120 81 153q0 41 -43 41q-146 0 -450 -542q-49 4 -59 4q-35 0 -66 -4zM499 688q0 14 55.5 40t85.5 26q34 0 121 -21l46 -11q43 -9 65 -9 q33 0 59 14q8 4 10 4q4 -1 4 -4q0 -14 -55.5 -39.5t-83.5 -25.5q-32 0 -88 14l-20 5q-95 24 -123 24q-23 0 -56 -15q-10 -6 -14 -6q-6 0 -6 4z" />
<glyph unicode="&#xf2;" horiz-adv-x="594" d="M109 145q0 154 202 297q142 101 234 101q86 0 86 -92q0 -115 -121 -277q20 -12 45 -12q45 0 105 42t98 101q11 14 16 14q4 0 4 -4q0 -16 -59 -75q-88 -88 -162 -88q-31 0 -55 12q-132 -187 -248 -187q-60 0 -102.5 49.5t-42.5 118.5zM190 63q0 -69 66 -69q108 0 236 178 q-29 32 -29 66q0 49 39 101t76 52q16 0 22 -20q16 35 16 78q0 81 -73 81q-91 0 -222 -174t-131 -293zM547 866l86 60q-17 -49 -17 -97q0 -104 56 -178q7 -7 8 -12q-1 -4 -6 -4q-25 0 -65.5 74t-61.5 157z" />
<glyph unicode="&#xf3;" horiz-adv-x="594" d="M109 145q0 154 202 297q142 101 234 101q86 0 86 -92q0 -115 -121 -277q20 -12 45 -12q45 0 105 42t98 101q11 14 16 14q4 0 4 -4q0 -16 -59 -75q-88 -88 -162 -88q-31 0 -55 12q-132 -187 -248 -187q-60 0 -102.5 49.5t-42.5 118.5zM190 63q0 -69 66 -69q108 0 236 178 q-29 32 -29 66q0 49 39 101t76 52q16 0 22 -20q16 35 16 78q0 81 -73 81q-91 0 -222 -174t-131 -293zM559 657q0 3 12 9q234 111 334 241l41 -63q-97 -76 -248 -139q-116 -50 -133 -50q-4 0 -6 2z" />
<glyph unicode="&#xf4;" horiz-adv-x="594" d="M109 145q0 154 202 297q142 101 234 101q86 0 86 -92q0 -115 -121 -277q20 -12 45 -12q45 0 105 42t98 101q11 14 16 14q4 0 4 -4q0 -16 -59 -75q-88 -88 -162 -88q-31 0 -55 12q-132 -187 -248 -187q-60 0 -102.5 49.5t-42.5 118.5zM190 63q0 -69 66 -69q108 0 236 178 q-29 32 -29 66q0 49 39 101t76 52q16 0 22 -20q16 35 16 78q0 81 -73 81q-91 0 -222 -174t-131 -293zM391 651q1 3 14 8q110 46 222 118t155 124q-11 -126 -17 -244q0 -7 -4 -8q-4 0 -6 23q-7 85 -22 123q-64 -42 -184 -95t-152 -53q-6 0 -6 4z" />
<glyph unicode="&#xf5;" horiz-adv-x="594" d="M109 145q0 154 202 297q142 101 234 101q86 0 86 -92q0 -115 -121 -277q20 -12 45 -12q45 0 105 42t98 101q11 14 16 14q4 0 4 -4q0 -16 -59 -75q-88 -88 -162 -88q-31 0 -55 12q-132 -187 -248 -187q-60 0 -102.5 49.5t-42.5 118.5zM190 63q0 -69 66 -69q108 0 236 178 q-29 32 -29 66q0 49 39 101t76 52q16 0 22 -20q16 35 16 78q0 81 -73 81q-91 0 -222 -174t-131 -293zM381 688q0 14 55.5 40t85.5 26q34 0 121 -21l46 -11q43 -9 65 -9q33 0 59 14q8 4 10 4q4 -1 4 -4q0 -14 -55.5 -39.5t-83.5 -25.5q-32 0 -88 14l-20 5q-95 24 -123 24 q-23 0 -56 -15q-10 -6 -14 -6q-6 0 -6 4z" />
<glyph unicode="&#xf6;" horiz-adv-x="594" d="M109 145q0 154 202 297q142 101 234 101q86 0 86 -92q0 -115 -121 -277q20 -12 45 -12q45 0 105 42t98 101q11 14 16 14q4 0 4 -4q0 -16 -59 -75q-88 -88 -162 -88q-31 0 -55 12q-132 -187 -248 -187q-60 0 -102.5 49.5t-42.5 118.5zM190 63q0 -69 66 -69q108 0 236 178 q-29 32 -29 66q0 49 39 101t76 52q16 0 22 -20q16 35 16 78q0 81 -73 81q-91 0 -222 -174t-131 -293zM467 688q0 34 29.5 62t64.5 28q43 0 43 -41q0 -37 -27 -66.5t-61 -29.5q-49 0 -49 47zM637 686q0 34 29.5 63t64.5 29q43 0 43 -41q0 -37 -27 -66.5t-61 -29.5 q-49 0 -49 45z" />
<glyph unicode="&#xf7;" horiz-adv-x="1071" d="M365 528q3 19 61 19h840q38 0 34 -19q-3 -18 -61 -18h-844q-34 0 -30 18zM659 276q0 36 38.5 71.5t76.5 35.5q35 0 35 -35q0 -40 -36.5 -76t-76.5 -36q-37 0 -37 40zM854 688q0 37 38 73t77 36q35 0 35 -37q0 -39 -36.5 -75t-74.5 -36q-39 0 -39 39z" />
<glyph unicode="&#xf8;" horiz-adv-x="594" d="M109 145q0 155 202 299q138 99 230 99q12 0 22 -2l76 118h23l-80 -122q49 -28 49 -86q0 -115 -121 -277q20 -12 45 -12q104 0 201 141q11 16 18 16q4 0 4 -4q0 -17 -59 -77q-84 -86 -162 -86q-31 0 -55 12q-131 -187 -244 -187q-18 0 -31 3l-82 -125h-24l86 131 q-98 47 -98 159zM190 63q0 -30 29 -59l336 524q-6 2 -16 2q-87 0 -218 -175t-131 -292zM238 -4q10 -2 24 -2q103 0 230 178q-29 32 -29 66q0 49 39 101t76 52q16 0 22 -20q16 35 16 78q0 52 -41 75z" />
<glyph unicode="&#xf9;" horiz-adv-x="641" d="M78 96q0 58 45 133l182 306q34 -7 53 -7t68 7l-238 -392q-36 -60 -36 -106q0 -45 38 -45q101 0 324 377l98 166q31 -7 52 -7q25 0 71 7l-160 -261q-114 -186 -114 -239q0 -43 41 -43q80 0 260 252l31 43l18 22q5 10 10 10q6 0 6 -6q0 -23 -145 -194q-120 -142 -190 -142 q-44 0 -74.5 35.5t-30.5 85.5q0 39 39 109l-20 -27q-92 -118 -135 -158q-47 -45 -89 -45q-44 0 -74 34.5t-30 84.5zM455 866l86 60q-17 -49 -17 -97q0 -104 56 -178q7 -7 8 -12q-1 -4 -6 -4q-25 0 -65.5 74t-61.5 157z" />
<glyph unicode="&#xfa;" horiz-adv-x="641" d="M78 96q0 58 45 133l182 306q34 -7 53 -7t68 7l-238 -392q-36 -60 -36 -106q0 -45 38 -45q101 0 324 377l98 166q31 -7 52 -7q25 0 71 7l-160 -261q-114 -186 -114 -239q0 -43 41 -43q80 0 260 252l31 43l18 22q5 10 10 10q6 0 6 -6q0 -23 -145 -194q-120 -142 -190 -142 q-44 0 -74.5 35.5t-30.5 85.5q0 39 39 109l-20 -27q-92 -118 -135 -158q-47 -45 -89 -45q-44 0 -74 34.5t-30 84.5zM536 657q0 3 12 9q234 111 334 241l41 -63q-97 -76 -248 -139q-116 -50 -133 -50q-4 0 -6 2z" />
<glyph unicode="&#xfb;" horiz-adv-x="641" d="M78 96q0 58 45 133l182 306q34 -7 53 -7t68 7l-238 -392q-36 -60 -36 -106q0 -45 38 -45q101 0 324 377l98 166q31 -7 52 -7q25 0 71 7l-160 -261q-114 -186 -114 -239q0 -43 41 -43q80 0 260 252l31 43l18 22q5 10 10 10q6 0 6 -6q0 -23 -145 -194q-120 -142 -190 -142 q-44 0 -74.5 35.5t-30.5 85.5q0 39 39 109l-20 -27q-92 -118 -135 -158q-47 -45 -89 -45q-44 0 -74 34.5t-30 84.5zM358 651q1 3 14 8q110 46 222 118t155 124q-11 -126 -17 -244q0 -7 -4 -8q-4 0 -6 23q-7 85 -22 123q-64 -42 -184 -95t-152 -53q-6 0 -6 4z" />
<glyph unicode="&#xfc;" horiz-adv-x="641" d="M78 96q0 58 45 133l182 306q34 -7 53 -7t68 7l-238 -392q-36 -60 -36 -106q0 -45 38 -45q101 0 324 377l98 166q31 -7 52 -7q25 0 71 7l-160 -261q-114 -186 -114 -239q0 -43 41 -43q80 0 260 252l31 43l18 22q5 10 10 10q6 0 6 -6q0 -23 -145 -194q-120 -142 -190 -142 q-44 0 -74.5 35.5t-30.5 85.5q0 39 39 109l-20 -27q-92 -118 -135 -158q-47 -45 -89 -45q-44 0 -74 34.5t-30 84.5zM446 688q0 34 29.5 62t64.5 28q43 0 43 -41q0 -37 -27 -66.5t-61 -29.5q-49 0 -49 47zM616 686q0 34 29.5 63t64.5 29q43 0 43 -41q0 -37 -27 -66.5 t-61 -29.5q-49 0 -49 45z" />
<glyph unicode="&#xfd;" horiz-adv-x="631" d="M-344 -582q0 201 463 416q38 19 114 53l15 9l176 313q-104 -143 -151 -187.5t-95 -44.5q-41 0 -71.5 35t-30.5 82q0 57 71 178l154 260q23 -4 53 -4q26 0 72 7l-197 -320q-84 -136 -84 -178q0 -45 41 -45q108 0 332 383l92 157q23 -4 56 -4q27 0 67 7 q-124 -197 -336 -578q122 63 206 136.5t188 207.5q14 18 18 18q6 0 6 -6q0 -15 -110 -137q-122 -134 -318 -242l-49 -88q-145 -260 -303 -387q-163 -131 -283 -131q-41 0 -68.5 26t-27.5 64zM-330 -584q0 -75 84 -75q106 0 211 115t260 403l13 20q-16 -9 -113 -57 q-455 -226 -455 -406zM529 657q0 3 12 9q234 111 334 241l41 -63q-97 -76 -248 -139q-116 -50 -133 -50q-3 0 -6 2z" />
<glyph unicode="&#xfe;" horiz-adv-x="535" d="M-367 -557l967 1569q27 -8 57 -8q25 0 62 6l-443 -697q108 142 156.5 186t95.5 44q54 0 89.5 -46t35.5 -114q0 -163 -202 -297q-165 -109 -258 -109q-64 0 -64 60q0 18 10 49l-383 -639q-35 8 -57 8q-34 0 -66 -12zM143 43q0 -51 47 -51q93 0 241.5 179.5t148.5 291.5 q0 65 -58 65q-73 0 -246 -235q-133 -182 -133 -250z" />
<glyph unicode="&#xff;" horiz-adv-x="631" d="M-344 -582q0 201 463 416q38 19 114 53l15 9l176 313q-104 -143 -151 -187.5t-95 -44.5q-41 0 -71.5 35t-30.5 82q0 57 71 178l154 260q23 -4 53 -4q26 0 72 7l-197 -320q-84 -136 -84 -178q0 -45 41 -45q108 0 332 383l92 157q23 -4 56 -4q27 0 67 7 q-124 -197 -336 -578q122 63 206 136.5t188 207.5q14 18 18 18q6 0 6 -6q0 -15 -110 -137q-122 -134 -318 -242l-49 -88q-145 -260 -303 -387q-163 -131 -283 -131q-41 0 -68.5 26t-27.5 64zM-330 -584q0 -75 84 -75q106 0 211 115t260 403l13 20q-16 -9 -113 -57 q-455 -226 -455 -406zM439 688q0 34 29.5 62t64.5 28q43 0 43 -41q0 -37 -27 -66.5t-61 -29.5q-49 0 -49 47zM609 686q0 34 29.5 63t64.5 29q43 0 43 -41q0 -37 -27 -66.5t-61 -29.5q-49 0 -49 45z" />
<glyph unicode="&#x152;" horiz-adv-x="2392" d="M502 401q0 175 96.5 359t263.5 327q148 128 327 203.5t331 75.5q98 0 179 -24q78 -24 236 -101q37 -18 129 -57q145 61 308 61q135 0 231 -36.5t96 -88.5q0 -67 -123 -67q-98 0 -458 90q-170 -94 -170 -242q0 -73 49 -102q68 8 106 8q105 0 105 -25q0 -16 -58 -16 q-60 0 -149 20q-86 -12 -189 -55q-58 -346 -419 -608q47 -80 132.5 -113t243.5 -33q-53 85 -53 185q0 188 156 325q185 164 395 164q112 0 177 -55.5t65 -149.5q0 -181 -212 -327.5t-491 -157.5q97 -117 273 -117q133 0 235 58q6 5 13 6q8 0 8 -8q0 -20 -89.5 -46 t-158.5 -26q-179 0 -305 129q-301 -3 -439 131q-245 -154 -434 -154q-178 0 -292.5 131.5t-114.5 335.5zM598 307q0 -157 86.5 -255.5t224.5 -98.5q194 0 414 158q-63 83 -63 170q0 157 143 289t379 192q14 74 14 131q0 138 -88.5 223.5t-230.5 85.5q-220 0 -439 -235 q-262 -283 -262 -547q0 -92 50.5 -147.5t134.5 -55.5q39 0 77.5 19.5t38.5 37.5q0 9 -6 9q-1 -1 -6 -4q-21 -11 -37 -11q-47 0 -47 54q0 79 78 79q61 0 61 -69q0 -57 -46.5 -95t-117.5 -38q-93 0 -150.5 67.5t-57.5 177.5q0 264 240.5 520.5t488.5 256.5q158 0 252 -99.5 t94 -265.5q0 -15 -6 -86q71 16 159 27q-110 47 -110 147q0 139 178 230q-49 16 -117 49q-245 118 -387 118q-223 0 -447 -157q-215 -150 -352 -387q-143 -246 -143 -490zM1366 242q0 -45 14 -88q137 106 245 261t144 300q-403 -189 -403 -473zM1759 117q0 -76 37 -137 q238 0 464 156.5t226 322.5q0 75 -55 121.5t-145 46.5q-178 0 -351 -146q-176 -148 -176 -364zM2140 1157q266 -86 445 -86q94 0 94 51q0 39 -82.5 69t-190.5 30q-145 0 -266 -64z" />
<glyph unicode="&#x153;" horiz-adv-x="852" d="M109 141q0 173 217 310q146 92 237 92q72 0 72 -80q0 -19 -4 -37q168 117 274 117q74 0 74 -70q0 -131 -385 -219q-68 -108 -68 -174q0 -88 97 -88q117 0 264 160q84 91 135 159q6 8 8 8q6 0 6 -4q0 -6 -84 -108q-189 -230 -336 -230q-130 0 -161 127 q-110 -127 -207 -127q-62 0 -100.5 46t-38.5 118zM184 68q0 -76 66 -76q98 0 199 147q0 140 151 264q21 41 21 66q0 59 -58 59q-90 0 -234.5 -175t-144.5 -285zM604 268q139 39 235.5 105.5t96.5 124.5q0 30 -31 30q-113 0 -301 -260z" />
<glyph unicode="&#x178;" horiz-adv-x="1907" d="M301 596q0 298 313 549q156 124 335.5 197t328.5 73q158 0 249 -88.5t91 -243.5q0 -123 -56 -239.5t-221 -329.5q-142 -185 -180.5 -250.5t-38.5 -128.5q0 -125 119 -125q111 0 266 136.5t408 457.5q261 331 526 508l13 8q8 4 10 4q10 0 10 -12q-1 -3 -8 -8 q-173 -122 -319 -330q-141 -203 -316 -575q-150 -320 -407 -511.5t-529 -191.5q-135 0 -222 62.5t-87 160.5q0 59 36 100.5t87 41.5q65 0 65 -62q0 -33 -22.5 -57.5t-53.5 -24.5q-53 0 -53 50q0 12 4 22q2 5 2 12q0 6 -4 6q-14 0 -27.5 -28.5t-13.5 -59.5q0 -89 80 -147.5 t203 -58.5q166 0 316.5 90.5t245.5 212.5q93 119 284 465q66 119 157 264q-221 -266 -329 -367q-202 -188 -330 -188q-77 0 -125.5 57.5t-48.5 149.5q0 94 54 192t226 318q222 281 222 458q0 234 -283 234q-315 0 -631 -287q-130 -118 -217.5 -280.5t-87.5 -286.5 q0 -120 69.5 -191t186.5 -71q208 0 397 196q228 236 228 436q0 71 -40 114.5t-106 43.5q-146 0 -307.5 -180.5t-161.5 -343.5q0 -105 101 -105h4q10 0 10 -6q0 -8 -25 -8q-55 0 -90 46t-35 120q0 171 164.5 332.5t337.5 161.5q76 0 121 -47.5t45 -127.5q0 -179 -184 -397 q-215 -254 -457 -254q-135 0 -217 91t-82 241zM1983 1516q0 34 29.5 62t64.5 28q43 0 43 -41q0 -37 -27 -66.5t-61 -29.5q-49 0 -49 47zM2153 1514q0 34 29.5 63t64.5 29q43 0 43 -41q0 -37 -27 -66.5t-61 -29.5q-49 0 -49 45z" />
<glyph unicode="&#x2c6;" horiz-adv-x="1024" d="M582 651q1 3 14 8q110 46 222 118t155 124q-11 -126 -17 -244q0 -7 -4 -8q-4 0 -6 23q-7 85 -22 123q-64 -42 -184 -95t-152 -53q-6 0 -6 4z" />
<glyph unicode="&#x2dc;" horiz-adv-x="1024" d="M635 688q0 14 55.5 40t85.5 26q34 0 121 -21l46 -11q43 -9 65 -9q33 0 59 14q8 4 10 4q4 -1 4 -4q0 -14 -55.5 -39.5t-83.5 -25.5q-32 0 -88 14l-20 5q-95 24 -123 24q-23 0 -56 -15q-10 -6 -14 -6q-6 0 -6 4z" />
<glyph unicode="&#x2000;" horiz-adv-x="871" />
<glyph unicode="&#x2001;" horiz-adv-x="1742" />
<glyph unicode="&#x2002;" horiz-adv-x="871" />
<glyph unicode="&#x2003;" horiz-adv-x="1742" />
<glyph unicode="&#x2004;" horiz-adv-x="580" />
<glyph unicode="&#x2005;" horiz-adv-x="435" />
<glyph unicode="&#x2006;" horiz-adv-x="290" />
<glyph unicode="&#x2007;" horiz-adv-x="290" />
<glyph unicode="&#x2008;" horiz-adv-x="217" />
<glyph unicode="&#x2009;" horiz-adv-x="348" />
<glyph unicode="&#x200a;" horiz-adv-x="96" />
<glyph unicode="&#x2010;" horiz-adv-x="733" d="M274 213q0 12 77.5 39t113.5 27q21 0 86 -15q55 -12 80 -12q47 0 88 20q6 4 10 4t4 -4q0 -12 -82 -37.5t-125 -25.5q-40 0 -84 10q-52 12 -77 12q-42 0 -80 -20q-2 -2 -6 -2q-4 1 -5 4z" />
<glyph unicode="&#x2011;" horiz-adv-x="733" d="M274 213q0 12 77.5 39t113.5 27q21 0 86 -15q55 -12 80 -12q47 0 88 20q6 4 10 4t4 -4q0 -12 -82 -37.5t-125 -25.5q-40 0 -84 10q-52 12 -77 12q-42 0 -80 -20q-2 -2 -6 -2q-4 1 -5 4z" />
<glyph unicode="&#x2012;" horiz-adv-x="733" d="M274 213q0 12 77.5 39t113.5 27q21 0 86 -15q55 -12 80 -12q47 0 88 20q6 4 10 4t4 -4q0 -12 -82 -37.5t-125 -25.5q-40 0 -84 10q-52 12 -77 12q-42 0 -80 -20q-2 -2 -6 -2q-4 1 -5 4z" />
<glyph unicode="&#x2013;" horiz-adv-x="911" d="M274 215q0 20 105.5 55t163.5 35q43 0 131 -26q74 -23 114 -23q50 0 105 23q10 4 12 4q4 -1 4 -4q-2 -6 -12 -9l-39 -16q-92 -39 -166 -39q-39 0 -162 25q-61 12 -102 12q-88 0 -141 -37q-4 -4 -8 -4q-4 1 -5 4z" />
<glyph unicode="&#x2014;" horiz-adv-x="1223" d="M268 215q0 23 133.5 63.5t208.5 40.5q62 0 228 -38q131 -31 200 -31q65 0 160 29q12 3 19 4q5 0 6 -4q0 -5 -62 -29q-122 -47 -203 -47q-67 0 -184 24q-185 39 -268 39q-133 0 -219 -51q-7 -4 -13 -4q-5 1 -6 4z" />
<glyph unicode="&#x2018;" horiz-adv-x="428" d="M522 803q0 57 81 147t132 90q6 0 6 -6q0 -5 -18 -12q-37 -15 -67.5 -41.5t-30.5 -44.5q0 -6 10 -6q45 0 45 -43q0 -39 -40.5 -83t-76.5 -44q-41 0 -41 43z" />
<glyph unicode="&#x2019;" horiz-adv-x="428" d="M514 766q0 5 8 8q109 41 109 90q0 6 -10 6q-46 0 -46 43q0 39 41 83t76 44q41 0 41 -43q0 -68 -74 -147q-28 -30 -74 -60t-65 -30q-6 0 -6 6z" />
<glyph unicode="&#x201a;" horiz-adv-x="428" d="M78 -111q0 6 8 9q42 15 75.5 42.5t33.5 47.5q0 6 -11 6q-45 0 -45 43q0 39 40.5 83t76.5 44q41 0 41 -43q0 -68 -74 -148q-28 -30 -74.5 -60t-64.5 -30q-6 0 -6 6z" />
<glyph unicode="&#x201c;" horiz-adv-x="616" d="M522 803q0 57 81 147t132 90q6 0 6 -6q0 -5 -18 -12q-37 -15 -67.5 -41.5t-30.5 -44.5q0 -6 10 -6q45 0 45 -43q0 -39 -40.5 -83t-76.5 -44q-41 0 -41 43zM711 803q0 57 81 147t132 90q6 0 6 -6q0 -5 -8 -8q-109 -41 -109 -90q0 -6 10 -6q45 0 45 -43q0 -39 -40.5 -83 t-75.5 -44q-41 0 -41 43z" />
<glyph unicode="&#x201d;" horiz-adv-x="616" d="M510 766q0 5 8 8q109 41 109 90q0 6 -11 6q-45 0 -45 43q0 39 41 83t76 44q41 0 41 -43q0 -68 -74 -147q-28 -30 -74 -60t-65 -30q-6 0 -6 6zM705 766q0 5 20 12q35 13 65.5 40.5t30.5 45.5q0 6 -10 6q-43 0 -43 41q0 42 40 85.5t77 43.5q41 0 41 -43q0 -95 -111 -182 q-70 -55 -104 -55q-6 0 -6 6z" />
<glyph unicode="&#x201e;" horiz-adv-x="616" d="M74 -111q0 6 8 9q42 15 75 42.5t33 47.5q0 6 -10 6q-45 0 -45 43q0 39 40.5 83t76.5 44q41 0 41 -43q0 -68 -74 -148q-28 -30 -74.5 -60t-64.5 -30q-6 0 -6 6zM268 -111q0 6 8 9q109 40 109 90q0 5 -4 6h-10q-39 0 -39 41t40 85t77 44q40 0 40 -43q0 -95 -110 -182 q-70 -56 -105 -56q-6 0 -6 6z" />
<glyph unicode="&#x2022;" horiz-adv-x="1370" d="M741 721q0 124 86.5 209.5t212.5 85.5q120 0 205.5 -87t85.5 -208q0 -123 -86 -209t-209 -86t-209 86t-86 209z" />
<glyph unicode="&#x2026;" horiz-adv-x="1368" d="M229 35q0 41 43 82t86 41q39 0 39 -41q0 -45 -40.5 -86t-84.5 -41q-43 0 -43 45zM686 33q0 43 42.5 84t86.5 41q39 0 39 -41q0 -45 -41 -86t-84 -41t-43 43zM1141 33q0 42 42.5 83.5t86.5 41.5q39 0 39 -41q0 -43 -41 -85t-84 -42t-43 43z" />
<glyph unicode="&#x202f;" horiz-adv-x="348" />
<glyph unicode="&#x2039;" horiz-adv-x="510" d="M206 238q166 28 408 198q4 4 9 4l2 -2q-19 -27 -121 -101q-114 -82 -191 -112q48 -38 146 -119q-1 -3 -4 -4q-6 0 -116.5 61t-132.5 75z" />
<glyph unicode="&#x203a;" horiz-adv-x="510" d="M113 88q0 17 128 92.5t189 93.5q-92 82 -151 127q-5 5 -5 7q4 1 81 -42t188 -104q-177 -33 -408 -166q-17 -10 -20 -10z" />
<glyph unicode="&#x205f;" horiz-adv-x="435" />
<glyph unicode="&#x20ac;" d="M299 457l16 18h44q25 72 69 132l7 10h-136l16 18h134q118 146 315 245t377 99q86 0 140 -45q58 -49 58 -133q0 -127 -102.5 -222t-230.5 -95q-47 0 -86 21q-47 25 -47 68q0 13 7 13q5 -1 5 -8q8 -61 76 -61q115 0 224 108t109 221q0 111 -124 111q-130 0 -296 -100 q-149 -90 -270 -222h362l-16 -18h-362q-63 -73 -100 -142h348l-16 -18h-341q-58 -118 -58 -223q0 -221 249 -221q245 0 475 334q24 35 33 35q6 0 7 -7q0 -38 -132 -179q-193 -206 -386 -206q-165 0 -255 98q-81 89 -81 229q0 70 22 140h-54z" />
<glyph unicode="&#x2122;" horiz-adv-x="1587" d="M385 760q0 61 53 61q37 0 37 -37q0 -41 -39 -41q-23 0 -26 25q-2 6 -2 10q-7 -6 -7 -16q0 -42 41.5 -69t104.5 -27q108 0 183.5 61.5t187.5 243.5q117 190 272 268q-215 43 -270 43q-133 0 -251 -98.5t-118 -208.5q0 -80 78 -80q56 0 123 51q5 5 12 6q7 0 8 -6 q0 -15 -55.5 -40t-87.5 -25q-40 0 -66 27t-26 69q0 70 61.5 152.5t151.5 130.5q110 59 251 59q35 0 96 -12q112 -23 150 -29l13 -2l10 4q126 47 217 47q115 0 115 -45q0 -31 -56 -51.5t-139 -20.5q-71 0 -197 25q-112 -56 -221 -268q-57 -112 -88 -153q-28 -37 -78 -73 q-129 -92 -266 -92q-77 0 -124.5 31t-47.5 80zM913 756q0 63 56 63q35 0 35 -35q0 -41 -37 -41q-24 0 -29 35q-6 -12 -6 -18q0 -96 145 -96q132 0 260 133q68 70 228 329q44 73 101.5 133t82.5 60q6 0 6 -6q0 -3 -6 -10q-42 -57 -78 -187q-55 -202 -102.5 -290.5 t-128.5 -139.5q72 40 128.5 100t184.5 232q136 183 232.5 253t209.5 70q91 0 147 -48.5t56 -125.5q0 -57 -16 -57q-6 0 -6 6q0 1 2 4q6 16 6 47q0 63 -53.5 107.5t-128.5 44.5q-126 0 -256 -119q-83 -75 -234 -268q-177 -227 -297 -268l-10 -2q-2 -3 -6 -3q-6 0 -6 5 q0 3 12 12q75 53 141 254q93 282 172 358q-84 -71 -196 -282q-109 -205 -226 -283q-110 -74 -219 -74q-72 0 -118 29.5t-46 77.5zM1288 1272q131 -27 205 -27q96 0 96 35q0 33 -98 33q-85 0 -203 -41zM1495 662q0 16 39 16q20 0 63 -6q90 30 179 196q104 195 166.5 277 t148.5 137q42 27 55 27q6 0 6 -6q0 -5 -14 -13q-104 -54 -207 -266q-83 -172 -145 -244t-162 -112q37 -4 55 -4q77 0 133 37.5t127 138.5q6 8 11 8q6 -1 6 -6q0 -9 -60 -78q-96 -113 -210 -113q-37 0 -91 8q-33 -10 -67 -10q-33 0 -33 13z" />
<glyph unicode="&#x25fc;" horiz-adv-x="545" d="M0 0v545h545v-545h-545z" />
</font>
</defs>
</svg>
